<?xml version="1.0" encoding="utf-8"?>
<!-- Generator: Adobe Illustrator 25.0.0, SVG Export Plug-In . SVG Version: 6.00 Build 0)  -->
<svg version="1.1" id="Layer_1" xmlns="http://www.w3.org/2000/svg" xmlns:xlink="http://www.w3.org/1999/xlink" x="0px" y="0px"
	 viewBox="0 0 1040 896" style="enable-background:new 0 0 1040 896;" xml:space="preserve">
<style type="text/css">
	.st0{fill:none;}
	.st1{fill:#D85327;}
	.st2{fill:#E58630;}
	.st3{fill:#D1932A;}
	.st4{fill:#7FCFDA;}
	.st5{fill:#02587E;}
</style>
<g>
	<g>
		<path class="st0" d="M472.8,353.7c-1,0-1.8-0.2-2.4-0.7l-1.4,1.1C470.1,354.4,471.4,354.3,472.8,353.7z"/>
		<path class="st0" d="M516.8,317.1l-9.6,7.4c0.7,4,2.4,7.9,4.9,11.2C513.6,329.5,515.2,323.3,516.8,317.1z"/>
		<path class="st1" d="M552.4,597.4c-11.8-6.6-21.9-16-33.8-22.3c-12-6.3-27.2-9-38.6-1.8c2.7-13,1.7-26.7-2.9-39.1
			c-6,2.9-13.4-1.6-15.9-7.8c-2.5-6.1-1.2-13.1,0.5-19.5c5.6-20.9,16-40.4,30.2-56.6c5.5-1.9,10.9-3.8,16.4-5.7
			c-6.6-7-14.4-12.9-23-17.4c-2.7-1.1-5.3-2.3-7.7-3.5c2.6,1.1,5.2,2.2,7.7,3.5c11.1,4.4,23.7,6.2,30.3-2.8
			c12.4-0.3,23.4-11.9,23-24.4c-14.2-3-27.8-9.1-39.5-17.8c7.5,0.3,14.1,4.5,21,7.4c6.9,3,15.3,4.6,21.4,0.3
			c6.1-4.3,5.4-16.3-2.1-17.2c8.9,0.8,17.7,1.6,26.6,2.4c-2.3-6.4-7.6-11.6-13.9-14c7.2-0.1,14.2,5,16.3,11.9
			c14.8-8.3,15.8-33,1.8-42.5c3.6-2.9,7.3-5.7,10.9-8.6c-4.8,1.6-5.3-6.8-2.8-11.2c-6.3,1.3-16.2-3.8-11.4-7.9
			c-7.3-2.6-15.4-2.6-22.7-0.1c1.3,6.3,3.6,12.5,6.9,18c-5,12.8-10.1,25.6-15.1,38.4c-15.6-6.4-2.1-39.8-15.9-44.6l-3.2,2.4
			c-1.6,6.2-3.2,12.4-4.8,18.6c-2.5-3.3-4.1-7.1-4.9-11.2l-36.9,28.6c0.7,0.4,1.5,0.7,2.4,0.7c-1.3,0.6-2.6,0.7-3.8,0.4l-373,289
			c103,50.8,214.8,83.8,329,97.1c5.1,0.6,12.3-0.4,12.5-5.6c17.1,16,39.3,26.4,62.5,29.6L555,598.8
			C554.1,598.4,553.2,597.9,552.4,597.4z"/>
		<path class="st1" d="M485.2,427.2c-2.5-1.3-5.1-2.5-7.7-3.5C479.9,424.9,482.5,426.1,485.2,427.2z"/>
		<path class="st1" d="M574.6,446c-1.2,1.5-4.4,15.8-1.5,15.2c9.5-1.8,17-11,16.8-20.7c-2.8,0.9-7.9,1.6-11.7,3.1
			C576.7,444.3,575.4,445.1,574.6,446z"/>
		<path class="st1" d="M581.9,408c-2.7-2-5.3-4.1-8-6.1c-2.9-2.3-6.4-4.6-10-3.9c-1.2-2.2-2.4-4.4-3.5-6.6c-1.6,2-3.2,4-4.7,6
			c0.7-5.5-1.6-10.1-6.4-12.3c-7.3,8.3-3.9,25.9-2.7,36.2c-3.6,3-6.8,6.5-9.4,10.3c0.9,0.8,1.9,1.5,2.8,2.3c4-1.3,7.9-2.7,11.9-4
			c0.3,3.8,0.7,7.6,1,11.4c3.3,1.5,6.8-1.4,9.2-4c4.5-4.8,9.2-10.1,9.9-16.7c1.5-0.5,3.1-1,4.6-1.5c-0.1,1.1-0.3,2.2-0.4,3.4
			c2.1,0,4.2,0,6.3,0.1c-0.1,1.5-0.2,3-0.3,4.6c4.8-0.3,9.6,0.8,13.9,3.1c2.2-2.1,4.5-4.3,6.7-6.4c-2.9-4.6-9.6-6.4-14.4-3.8
			C590.1,415.5,585.8,411,581.9,408z"/>
		<polygon class="st1" points="558.8,389.6 558.5,385.7 555.4,381 553.6,381 553.9,384.7 557.2,389.8 		"/>
		<polygon class="st1" points="570.3,388.3 572.5,387 560.8,377.9 559.8,380.3 563.4,386.5 		"/>
		<polygon class="st1" points="622.4,321.8 615.9,325.5 613.4,335.8 617,347 625,347 631.3,339 628.9,328.9 628.9,322.7 		"/>
		<polygon class="st1" points="643.7,328.9 641.7,324.8 634.7,323.9 631.8,325.7 633.9,330.7 642.3,330.7 		"/>
		<polygon class="st1" points="592.1,315.2 593.6,317.1 596.4,315.2 600.3,306.5 598.9,303.6 596.8,305.9 594.5,310.4 		"/>
		<polygon class="st1" points="599.7,299.4 599.7,296.2 597.9,296.8 595.2,300.9 597,301.7 		"/>
		<polygon class="st1" points="611.9,303.6 609.1,300.5 606.3,302.2 607.2,307.4 609.3,307.4 		"/>
		<path class="st1" d="M645.2,265.4c0.2-0.8,0.3-1.6,0.4-2.4C645.1,263.7,645,264.6,645.2,265.4z"/>
		<path class="st1" d="M658.6,268.8c3.6-1.6,5.4-6.3,3.7-9.9c-4,0.9-7.9,1.8-11.9,2.7c-1.6-1.1-3.9-0.2-4.9,1.4
			c0,0.8-0.2,1.6-0.4,2.4c-0.3-0.8-0.1-1.7,0.4-2.4c0.1-2.4-0.5-4.9-1.9-7c-2.7,3.6-5.5,7.2-8.2,10.8c-2.9-3.2-0.5-9.3,3.8-9.7
			c-0.3-5.5-6.3-10-11.7-8.6c-0.6,2.7-1.3,5.3-1.9,8c-3.2-3.6-9.1-4.5-13.2-2.1c1-4.1,2.1-8.2,3.1-12.3c-0.8,1.3-1.9,1.5-3.1,1.1
			l-67.1,52c5.9,1.2,11.8,2.3,17.7,3.5c2.3,0.4,4.8,0.8,6.7-0.6c1.4-1.1,1.3-3.5,0.3-4.5c-0.5-0.2-0.9-0.3-1.4-0.5
			c0.6-0.1,1,0.1,1.4,0.5c8.6,2.9,18.2,2.4,26.5-1.4c-4.9-2.3-8.2-7.7-7.9-13.1c5.1,4.6,10.3,9.2,15.4,13.8
			c5.6,3.7,11,7.7,16.3,11.8c-3.7,2.3-5.9,6.8-5.5,11.1c4.4-2.2,8.2-5.4,11.2-9.3c1.6,3.3,4.1,7.2,7.7,6.8
			c4.5,3.3,9.2,7.1,12.9,11.5L664,272C662.2,270.9,660.4,269.9,658.6,268.8z"/>
		<path class="st1" d="M622.5,384.6c-3.8,5.4-5.2,13.1-2.2,18.7l6.1-18.3C625,385,623.8,384.8,622.5,384.6z"/>
		<path class="st1" d="M569.9,293.4c-0.4-0.4-0.8-0.6-1.4-0.5C569,293.1,569.4,293.2,569.9,293.4z"/>
		<path class="st2" d="M59.5,578.5c0.7-0.2,1.3-0.4,1.9-0.7C60.6,577.8,60,578.1,59.5,578.5z"/>
		<path class="st2" d="M465.5,338c-3.1-7.4-12-11.8-19.8-9.9c3.1,5.5,6.1,11.1,9.2,16.6c-3.3-2.6-6.6-5.1-9.9-7.7
			c-21.2,7.3-47.1-7.2-52-29c-7.9-5.7-20.8-1.6-24,7.7c8-0.8,16.1-1.6,24.1-2.4c-7.9,4.5-15.8,9-23.8,13.5
			c5.6,5.9,3.8,16.9-3.4,20.7c3.5-11.6-4.1-24.1-14.4-30.3c-10.4-6.2-22.8-7.5-34.8-8.7c1.3-7.1,8.7-12.4,15.8-11.4
			c-11.4-14.1-22.9-28.2-34.3-42.3c-6.8-8.4-20.7-16.7-26.5-7.5c1.8-6.3,3.6-12.6,5.4-19c-5.8,3.6-11.5,7.1-17.3,10.7
			c0.6-10,1.3-20.1,1.9-30.1c-9,7.7-22,10.6-33.4,7.4c-4.3-6.8-17.3-2.4-16.7,5.6c-7.2-4.6,4.4-14.5,12.8-12.7
			c8.4,1.8,19.8,5.2,23.4-2.6c-12.9-0.8-25.8-1.5-38.7-2.3c3.9-0.6,6.3-5.6,4.3-9c-4.9,2.6-11.2,2.3-15.8-0.8c1,7.3,2,14.5,3,21.8
			c-8.2-18.3-16.3-36.6-24.5-54.9C130,207.2,83.9,253,37.8,298.8c1.8,5.8,5.8,10.9,11.1,13.9c-1.1,11.6-2.3,23.2-3.4,34.8
			c9,0.1,18.1,0.1,27.1,0.2c-7.5,32.6-9.3,66.5-5.2,99.7c-10.5,13.3-21,26.7-31.6,40c-3,2.9-3.2,8.3-0.3,11.4c7.1-2.9,14.6-5,22.2-6
			c-3.5,1.8-5.7,6-5,9.9c-6.5-2.7-14.8,3.5-14,10.5c6.7-4.4,9.8,9.2,6.5,16.5c4.4-0.5,8.8-1,13.3-1.6c-0.9,4.7-1.8,9.4-2.8,14.1
			c-0.1-5-5.2-9.2-10.1-8.5s-8.5,6.3-7.2,11.1c3.3-4.5,11.9-1.9,12.2,3.6c-2.8-3.8-8.7-4.8-12.5-2.1c3.9,0.5-2.6,5.8-3,2.9
			c0,2.3,1.1,4.5,2.8,6c2-0.9,5-0.1,4.1,2c-1.5-0.2-2.9-1-4.1-2c-0.9,0.4-1.6,1.1-1.7,2.1c-0.2,3.4,3.2,5.7,6.2,7.2
			c4.2,2.1,8.3,4.3,12.5,6.4c-3.3,2.3-7.7,3-11.5,1.7c3.4,5.2,10.5,7.6,16.4,5.9c0.5-0.4,1.1-0.7,1.9-0.7c-0.6,0.3-1.3,0.5-1.9,0.7
			c-2.4,2.2-0.9,8.4,2.6,8.2c0.3-0.1,0.6-0.1,0.9-0.2c-0.3,0.1-0.6,0.2-0.9,0.2c-4.7,1.2-8.3,6.1-7.9,10.9c2.6,3.4,8.5,3.5,11.1,0.1
			c2.8,3.9-3.6,9.8-7.3,6.7c-3.9,4.4,5.8,9.4,10.4,5.7c-8.2,7.9,3.2,20.5,13.3,25.7c4.7,2.4,9.4,4.8,14.2,7.1l373.1-288.8
			C462.6,352.7,458.7,341.3,465.5,338z"/>
		<path class="st2" d="M62.1,586.7c0.3,0,0.6-0.1,0.9-0.2C62.7,586.6,62.4,586.6,62.1,586.7z"/>
		<path class="st2" d="M517.6,314.1c-0.3,1-0.5,2-0.8,3l3.2-2.4C519.3,314.4,518.5,314.2,517.6,314.1z"/>
		<path class="st2" d="M508.6,309.9c-5.7-1.8-11.3-3.6-17-5.5c2.7-3.9,5.3-7.9,8-11.8c-5.5-11.8-11-23.6-16.5-35.4
			c4.7-4.1,6.7-10.9,5.1-16.9c11.9-0.3,22.3-12.1,21.2-24c-6.8-9.3-23.4-8.1-28.9,2c-4.9,9.1-0.9,20.3-1.7,30.5
			c-1,12.2-9,22.8-11.2,34.8s6.9,27.8,18.6,24.2c-2.8,4.3-5.7,8.6-8.5,12.8c3-0.8,8.8,3.1,7.3,7.4c-2,5.7-8.8,7.9-13.3,11.8
			c-3.8,3.3-4.6,10.9-1.2,13.2l36.9-28.6C506.3,319.6,506.7,314.5,508.6,309.9z"/>
		<path class="st2" d="M475.8,323.3c0.6-0.9,1.2-1.8,1.8-2.6C476.5,321,475.8,321.8,475.8,323.3z"/>
		<path class="st2" d="M37.5,555.1c1.1,1,2.5,1.8,4.1,2C42.5,555,39.5,554.2,37.5,555.1z"/>
		<polygon class="st2" points="419.1,104 421,103.1 422.9,104.8 426,105.4 428.6,105.9 430.9,103.1 429.2,96 429.2,96 423.7,95.6 
			421,98.1 412.4,99.6 412.1,102.3 417,102.5 		"/>
		<path class="st2" d="M396.9,143.8c-0.9-0.9-2.2-1.7-2.8-2.9c-0.4-0.9-0.5-1.9-0.8-2.9c-1.2-3.6-6.8-4.6-9.2-1.6
			c0.5,1.4,0.9,2.8,1.4,4.2c-1.3-2.7-6-2.5-7,0.3s2.4,6,5.1,4.8c-1.8,1.1-4.1,0.2-6.1-0.3s-5,0.2-5,2.3c0,1.6,1.7,2.6,3.3,2.8
			c1.8-0.5,3.7-0.5,5.4,0.2c0.1,0,0.2,0.1,0.4,0.1c-0.1-0.1-0.2-0.1-0.4-0.1c-1.5-0.5-3.3-0.1-4.9-0.1c-0.2,0-0.3,0-0.5,0
			c-3,0.8-5.9,2.7-7.6,4.6c1.6,3.4,4.9,7.4,8.7,8.9c3.6,1.4,8.2-1.2,8.8-5c0.8-0.9,1.8,1,1.1,1.9c-0.7,0.9-2,1.6-2,2.7
			c0,1.2,1.4,1.9,2.6,2.2c3.8,1.1,7.7,2.1,11.5,3.2c-5.9,0.7-11.8,1.5-17.7,2.2c-0.8,0.1-1.7,0.2-2.3,0.8c-1,0.9-0.9,2.4-0.4,3.6
			c2.4,6,10.8,6.3,16.9,4.3s12.7-5.2,18.6-2.7c2,0.9,3.9,2.4,6.1,2.5c1.5,0.1,3-0.5,4.4-1.3c7.3-4.5,9-15.9,3.4-22.4
			c-1.3,2.5-2.6,5.1-3.8,7.6c-4.1-7.7-4.8-17.2-1.7-25.3c-7.3-0.1-12.6,9.5-8.6,15.6c-0.9,0.7-1.9,1.3-2.8,2c1.5,2.2,2,5.1,1.4,7.8
			c-3.5,3.6-9.5-1-10.9-5.8c-1.1-4-1-8.6-3-12.1C398,145,397.5,144.4,396.9,143.8z"/>
		<path class="st2" d="M381.3,150.6c-1.7-0.7-3.6-0.6-5.4-0.2c0.2,0,0.4,0,0.5,0C378,150.5,379.7,150.1,381.3,150.6z"/>
		<path class="st2" d="M381.3,150.6c0.1,0,0.2,0.1,0.4,0.1C381.5,150.7,381.4,150.6,381.3,150.6z"/>
		<polygon class="st2" points="407.6,122.7 414.8,123.6 420.1,122.6 422.3,122.2 422.9,117.6 425.9,113.3 424.1,110.8 423.7,110.1 
			415.4,108.7 410.2,110.2 408.9,112.7 407.2,118 		"/>
		<polygon class="st2" points="293.8,193.4 293.6,196.9 296.3,201.6 297.1,206.4 294.8,213.1 294.6,216.1 302.6,216.5 305.7,214.6 
			307.8,214.6 308.3,217.1 316.4,217 324.8,205.2 330.1,204 336.6,198.9 350,196.6 361.7,195.4 364.1,193.5 362.9,189.7 357,173.5 
			353.8,171.1 349.9,172.8 346.7,174 344.2,173.3 345.6,171.2 346.7,167.8 342.5,163.7 341.5,157 333.7,156.1 321.8,153.3 
			319.9,160 319.7,166 306.9,173.2 306.5,178.9 304.6,178.5 299.8,183.3 289.5,190.8 290.1,192.1 		"/>
		<polygon class="st2" points="375.3,138.4 374.7,136.3 369.3,137.6 361.2,142.5 362.7,146.1 365.2,146.2 371.4,142.8 		"/>
		<polygon class="st2" points="354.2,127.9 355.7,130.7 357.1,130.3 358.6,127.4 360.7,127.8 360.5,130.5 359.4,133.7 359.6,136.5 
			362.1,136.5 364.1,133.9 364.7,127.8 366.8,127.6 367.4,130.6 368,133.2 371.7,130.1 372.2,126.9 374,126.9 378.5,122.3 
			378.7,124.6 375.4,129.7 376.1,134.7 378.6,134.5 381.2,130.5 387.1,130.1 387.9,125 389.3,124.6 389.1,119.4 393.6,118.5 
			395.1,116.2 391.9,110.9 389.5,111.1 389.3,114.7 388.1,115.1 382.2,110.3 378.5,110.3 359,122.4 358.2,121.2 353.4,121.2 
			350.1,127.6 351.7,128.2 		"/>
		<polygon class="st2" points="392.7,129.3 396.6,133.5 398.9,133.4 400.5,130.4 399.1,128.8 394.9,127.6 		"/>
		<polygon class="st2" points="407.1,111.7 408.7,111.1 405.6,104.3 401.6,105.1 402.8,111.2 		"/>
		<path class="st2" d="M420.1,297.6c0.5-1.5,0.9-3,1.4-4.5c3.3,2.1,6.6,4.1,9.8,6.2c2.6-3.1,3.5-7.6,2.3-11.5
			c-9.3-2.9-16.6-11.7-17.5-21.4c-0.2-1.7-0.1-3.4-0.1-5.1c0-6.2,0.1-12.3,0.1-18.5c0.1-12.1-1.4-26.9-12.5-31.9
			c-4,10.5-5.5,22-4.3,33.2c-1.6,0.8-3.2,1.6-4.8,2.3c-2.1-4.8-0.2-10.3,0.4-15.4s-0.9-11.8-6-12.9c-0.1,2-0.4,4.3-1.9,5.7
			c-1.5,1.4-4.7,0.8-4.7-1.3c-0.9,3-4.8,4.7-7.6,3.2c2.4-2.4,4.2-5.5,5.1-8.8c-2.4-3-4.9-6.1-7.3-9.1c-3,0.8-5.4,3.5-5.7,6.6
			c-2.4-0.4-4.8-0.7-7.2-1.1c4.8-3,8.1-8.2,8.7-13.8c-11.2-2.8-23.6-0.4-32.9,6.4c0.5,1.4,1.1,2.8,1.6,4.3c-17.5-1-5.8,15.2-4,12.7
			c-1.1,1.6-2.8,2.7-4.6,3.2c5.8,2.1,11.7,4.2,17.5,6.4c-3.6,2.5-8.4,1-12.7,0.3c-4.3-0.7-10.1,0.6-10.5,4.9c-0.3,3,2.2,5.5,4.8,7
			c6.2,3.8,13.6,5,20.4,7.8c6.7,2.8,13.3,8.1,13.9,15.4c-6.1-2.9-12.2-5.8-18.3-8.6c-7.4-3.5-17.8-6.2-22.3,0.6
			c-3,4.6-0.8,11.1,3.4,14.7c4.2,3.6,9.8,4.9,15.1,6.1c-3.2,4.9-4.2,11.1-2.8,16.7c17.2,7.7,38,6.8,54.4-2.4c0.2,1.9,0,3.9-0.7,5.7
			c2.8,1.9,5.9,3.2,9.2,3.7c-1.3,1.1-0.1,3.7,1.6,3.5c6.4,6.6,18.3,6.5,24.6-0.1c-1.4-0.5-2.8-1.1-4.2-1.6c2-1.1,2.7-4.1,1.4-6
			c-2.6,0.5-5.1,2-6.8,4c0.5-2.9-0.3-5.9-2.2-8.1C416,297.2,418.1,297.8,420.1,297.6z"/>
		<polygon class="st2" points="416.5,224.4 418.5,224.7 422.9,219.6 426.6,212 422,207.5 414,206.7 411.3,210.1 412,211.1 
			415.5,218.1 		"/>
		<polygon class="st2" points="437.2,182.5 439.1,180.4 438.6,175 436.9,172.8 433.8,174.6 431.5,179.8 434.6,182.5 		"/>
		<path class="st2" d="M468.4,257.3c1.1-1.6,1.5-3.7,1.9-5.6c0.8-4.4,1.6-8.8,2.4-13.2c-0.2,0-0.4,0-0.6,0c-2-0.1-4-1-5.4-2.5
			c0.2-1.4,0.3-2.8,0.5-4.2c-2.8-0.7-5.9-0.2-8.4,1.4c2.2-4.1,5.9-7.3,10.3-8.8c-2-2.6-0.8-7,2.3-8.2c-4.1-2.5-9.4-2.8-13.8-0.9
			c-1-1.9-1.9-3.8-2.9-5.7c-1.3,0.6-1.9,2.3-1.2,3.5c-1.5-1.1-3.1-2.1-4.6-3.2c-0.8,0.9-1.5,1.9-2.3,2.8c0.9,2.2,1.7,4.4,2.6,6.6
			c-1.3-1.4-2.7-2.7-4-4.1c-0.8,0.9-1.6,1.8-2.4,2.8c1.2,1.7,2.4,3.3,3.5,5c1.3-0.4,2.7-0.9,4-1.3c0.2,4.6-1.1,9.3-3.8,13.1
			c-1.3-0.1-2.7-0.2-4-0.2c-0.3,0-3.4-8-4-8.9c-5.5,0.6-5.3,3.6-6.2,8.5c3.1,1.4,5.2,4.5,5.5,7.8c8.1,3,9.7,13.4,12.2,21.6
			c0.2,0.8,0.5,1.6,1.1,2.2c1.6,1.6,4.6,0.4,5.5-1.7s0.4-4.5-0.1-6.7C459.4,261.2,465.8,261.1,468.4,257.3z"/>
		<polygon class="st2" points="468.2,209.6 467.3,207.7 461.1,208.6 458,210.9 459.4,212.6 462.9,212.6 		"/>
		<polygon class="st2" points="468.8,229.2 468.8,233.4 471.5,233.5 472.5,232 472.4,228.4 469.8,227.8 		"/>
		<polygon class="st2" points="443,155.7 447.4,155.7 447.8,153.9 442.9,147.6 441.5,147.5 440.3,149.8 440.4,154.5 		"/>
		<polygon class="st2" points="442.8,162.1 446,162.2 448.6,159.9 449.2,156.8 445.3,156.4 438.7,158.4 439.2,161 		"/>
		<polygon class="st2" points="461.1,151.6 461.6,149.4 460.3,148.7 457,149.9 455.3,151.7 		"/>
		<polygon class="st2" points="447.7,167.4 449.3,166.1 449,164.3 446.2,164.7 444.2,166.3 446,168.8 		"/>
		<path class="st2" d="M473.3,157.2c-0.7-1.8-1.8-3.5-3.1-5c-1.5,1.3-2.3,3.3-2.3,5.2c-0.5-4.5-7.9-6.1-10.1-2.1
			c4.4,1.2,5.8,8,2.2,10.8c-2.1-4.1-4.1-8.1-6.2-12.2c-2.4,4.2-2.5,9.6-0.3,13.9c-3.1-1.2-5.6,0.8-6.1,3.6
			c1.4,0.7,15.9,3.6,16.6,1.1c-0.7,2.3-3.7,2.7-5.8,4c-2.1,1.2-2,5.7,0.3,4.9c-2.2,0.6-3.2,3.8-1.7,5.6c4.8,1.4,10.1,1.1,14.8-0.8
			c-0.7-2.7-1.5-5.4-2.2-8.1c1.3-0.3,2.6-0.7,3.9-1c0.4-1.3-0.2-3-1.5-3.6C474.9,168.8,475.4,162.5,473.3,157.2z"/>
		<polygon class="st2" points="482,180.3 480.6,184.1 476.9,187.2 477.2,190.6 485.3,199.3 492.3,199.5 493.5,192.9 490.1,178.5 
			484.9,177.6 		"/>
		<polygon class="st2" points="515,144.1 515.1,138.8 510.9,133.5 508,134.4 507.9,137 508.3,141.3 511.4,144.1 		"/>
		<polygon class="st2" points="477.7,107.3 477.6,117 481.7,121.3 481,127.1 482.2,129.3 491.1,126.8 492.9,123 490.4,116.8 
			485.1,109.4 479.1,106.1 		"/>
		<polygon class="st2" points="479.5,86.3 480,79.1 477.2,75.8 473.6,77.4 473.3,80.3 477.9,86.7 		"/>
		<polygon class="st2" points="455.9,99.6 454.2,103.1 455.8,105 455.2,108.6 451.9,108.3 450.5,106.6 448,107.1 448.5,114.1 
			452.1,114.8 454.7,112.7 457.4,113.9 458.8,116.5 462.8,117.6 465.7,127.1 471.8,127.4 473.3,121.8 471.6,118.3 472.6,109.6 
			469.7,105 466.6,105.3 465.6,98 460.8,97.7 457.9,90.1 450.2,89.7 447.5,94.4 451.3,98.1 		"/>
		<polygon class="st2" points="462.7,126.4 459.8,123.9 455.7,124.9 456.2,127.5 463,128.2 		"/>
		<polygon class="st2" points="498.5,131.9 496.3,131.1 487.4,130.3 484.1,132.9 484,135.6 493.8,139 497.2,139 497.2,137.1 
			498.5,134.3 		"/>
		<polygon class="st2" points="449.3,308.8 446.7,311.8 440.7,312.6 440.7,317.4 445,317.4 451.2,322.4 455.6,326.1 459.6,326.1 
			463.5,328.9 468.5,323.6 472.6,323.5 473.6,320.7 468.6,320.7 466.1,309.7 459.4,303.7 457.8,303.2 457.2,298.1 455.2,296.8 
			451,301.5 451.2,303.8 449.6,304.4 		"/>
		<path class="st2" d="M495.5,89.7c-2.5-0.1-5.1,1.4-6.1,3.7c3.4,3.8,9.8,4.5,13.8,1.4c0.6,2,1.3,4,1.9,6c-3.6-1.4-8.3,1.3-8.8,5.1
			c0.9,4,2.9,7.7,5.8,10.7c-0.3,4,3.1,7.9,7.1,8.1c5.9-2.2,10.6-7.6,12-13.7c1.2,1.9,3.6-0.9,4.3-3c1.5-4.3,4.9-8,9.2-9.7
			c-1.9-2.2-3.8-4.5-5.8-6.7c-1.5,0.3-3.1,0.6-4.6,0.9c2.6-5-0.9-12-6.4-13c-0.3-2.5-0.7-5-1-7.5c-5.1-0.2-7-6.6-8.1-11.5
			c-1.1-5-4.8-11.1-9.6-9.4c-0.3,1.1-0.7,2.3-1,3.4c2-0.6,4.3,0.3,5.5,2c-1.7,2.4-5.1,3.4-7.9,2.4c-1.4,3.6-0.1,7.9,2.9,10.2
			c-2.2,0-4.4,0.1-6.6,0.1c0.2,2.1-0.7,4.2-2.3,5.5c1.2,2.4,4,3.8,6.7,3.4c0.6,1.4,0,3.3-1.4,4c-1.8-1.7-3.7-3.4-5.5-5.1
			c-1.7,3.6-0.8,6.9,0.1,11.1C491.5,88.6,493.5,89.1,495.5,89.7z"/>
		<polygon class="st2" points="522.3,79.2 522.3,72.7 518.7,72.7 519.8,78.2 		"/>
		<path class="st2" d="M513,52.1c0,0,0.1,0,0.1-0.1c1.7-0.8,3.3-1.6,5-2.3c-2.9,2.3-4.6,5.9-4.5,9.6c7.5,0,14.9-2.4,21-6.7
			c-4.8,5.3-11.7,8.8-18.9,9.3c2.3,1.9,4.7,3.8,7,5.7c2.5-4.9,7.2-8.7,12.5-10.3c0.3-0.1,0.6-0.2,1-0.3c-0.3,0.1-0.7,0.2-1,0.3
			c-5.4,1.7-9.3,7.3-8.7,13c3.1-0.2,6.1-0.4,9.2-0.6c-2.1-1.7,2.6-5.1,3.5-2.5c6.7-1.2,12.3-6.9,13.4-13.5c2.6,1.1,1.3,4.9,0.2,7.4
			c-0.9,2.3,0.6,6.1,2.4,5.6c0.2-0.1,0.4-0.2,0.6-0.3c-0.2,0.2-0.4,0.3-0.6,0.3c-5.7,3-11.3,6-17,9c3.6,5.4,9,9.5,15.1,11.6
			c-1.7,2.4-4.9,3.5-7.7,2.7c-1.4-8.9-9.9-16.1-18.9-16.1c-1.6,3.4-0.6,7.7,2.3,10.1c-1.6,0.3-2.4,2.5-1.5,3.8
			c4.5,1,6.9,5.8,9.3,9.7c2.3,3.7,6.4,7.5,10.5,6.3c0.2-0.1,0.4-0.2,0.7-0.2c-0.2,0.1-0.4,0.2-0.7,0.2c-2.9,1.2-4.2,5.2-2.5,7.9
			c-3.6-1.9-7.3-3.7-10.9-5.6c-6.5,2.7-10.3,10.6-8.4,17.4c5,1.8,11.2-2,11.9-7.3c-0.7,6.3-1.3,12.6-2,18.9c3.1,1.7,7.4,0.4,9.1-2.7
			c-0.2,2.9-0.7,6.4-3.4,7.6c-2.9,1.3-6.1-1-7.9-3.6c-1.8-2.6-3.1-5.8-5.8-7.3c-2.7-1.6-7.4,0.2-6.7,3.3c2.6,4.1,5.1,8.2,7.7,12.3
			c-4.2-1.2-9,0.7-11.3,4.4s-1.8,8.9,1.2,12.1c0.7-2.6,1.4-5.2,2.1-7.7c-0.6,3.3,0.8,6.9,3.5,8.9c0.4-2,0.9-3.9,1.3-5.9
			c0.6,1.5,1.3,3,1.9,4.4c2.4,0,4.6-2.1,4.7-4.5c0.4,1.9,0.7,3.8,1.1,5.8c2.7,0.4,5.4,0.7,8.1,1.1c0.1-2.9,0.3-5.9,0.4-8.8
			c0.6,2.8,3.4,5.1,6.3,5c-0.8-2.2-1.6-4.5-2.4-6.7c1.9,2.2,3.9,4.5,5.8,6.7c1.3-1.8,1.3-4.4,0-6.2c-0.4-0.4-0.8-0.8-1.2-1.3
			c0.5,0.3,0.9,0.8,1.2,1.3c2.6,2.5,6.1,4.1,9.7,4.6c-1.2,1.8-2.3,3.5-3.5,5.3c9-0.9,16.5-9.9,15.5-19c-1.7,1.1-3.5,2.3-5.2,3.4
			c-0.6-2.1-1.2-4.2-1.9-6.3c-4.9,0-9.8,0-14.7,0c-0.3-3-0.6-6.1-0.9-9.1c3.2,2.3,6.3,4.6,9.5,6.9c4.6-0.9,8.6-4.2,10.4-8.4
			c-1.9-1.8-3-4.4-3-7c4.2,2,10-1.1,10.7-5.7c-1.7-0.4-3.4-0.8-5.2-1.2c1.8-0.6,3.7-1.1,5.5-1.7c1.3-2.4-1-5.9-3.7-5.6
			c3.2-0.5,4.5-5.4,2.1-7.5c-3.3-1.2-6.7-2.4-10-3.7c2-6.6,8.1-11.8,14.9-12.9c-1.1-1.7-2.1-3.4-3.2-5c1.7,0.5,3.4,1,5.2,1.5
			c1.1-2.2,2.2-4.4,3.3-6.6c-0.9-1.3-1.9-2.6-2.8-3.9c6.1-12.6,10.6-25.9,13.3-39.6c-2.4,2.2-4.9,4.4-7.3,6.6
			c-1.4-1.6-0.3-4.1,0.8-6c3.8-6.2,7.6-12.4,11.4-18.6c-7.7-6.8-18.6-9-28.8-8.1c-10.2,0.8-20,4.3-29.6,7.8
			c-0.2,1.9-0.3,3.7-0.5,5.6c-4.2,0.8-7.7,4.2-8.6,8.4c2.3,2.6,4.5,5.2,6.8,7.8c-5.5-0.9-10.6-4.4-13.5-9.2c0.5,2.8-0.7,5.9-2.9,7.7
			c0.9,1.4,1.8,2.7,2.8,4.1c-2.9-0.4-5.7-0.7-8.6-1.1C509.2,35.3,507,46.9,513,52.1z"/>
		<path class="st2" d="M555.4,66.8c0.2-0.1,0.4-0.2,0.6-0.3C555.8,66.5,555.6,66.7,555.4,66.8z"/>
		<path class="st2" d="M550.1,151.8c0.4,0.5,0.8,0.9,1.2,1.3C551,152.6,550.6,152.2,550.1,151.8z"/>
		<path class="st2" d="M547.4,103.8c0.2-0.1,0.4-0.1,0.7-0.2C547.8,103.6,547.6,103.7,547.4,103.8z"/>
		<polygon class="st2" points="530.2,202.5 538.6,201.2 544.5,201.8 550.3,199 550.8,193.3 553.9,199.5 561,199.5 568.3,196.6 
			569.7,194.3 566.9,188.5 570.5,183.4 569.6,178.5 566.1,177.6 564.7,174.5 560.9,175.2 559.8,172 553.4,170.5 549.3,174.6 
			546.3,172.8 535.9,182.5 530,179.8 518,181.3 517.1,174.3 513.5,173.7 509.4,168.1 517.1,167.1 518,165.6 507.9,160.8 
			510.8,158.4 506.1,155.7 497.3,158.4 497.3,153.3 485.2,145.3 480.6,148.2 479,152.7 483.1,154.9 483.1,159.3 488.6,162.8 
			494.2,162.8 495.3,162.2 498,162.2 501.1,171.5 501.1,179.7 497.9,185.2 500.4,189.6 501.8,197 505.9,199.5 507.9,195.3 
			509.6,200.4 515.7,201.8 521.1,195.7 522.1,197.9 521.6,203.5 		"/>
		<polygon class="st2" points="574,226 574.5,231.2 579.6,235.6 588.6,230.2 598.9,230.7 600.3,228.7 587.2,213.2 576.5,215 
			572,214.1 568,215.2 569.4,224.9 		"/>
		<path class="st2" d="M605.3,236.5c-3.2-3.8-9.3-4.5-13.6-2.1c-0.9,0.5-1.7,1.2-2.4,1.9c-4,4.5-2.9,12.5,2.1,15.9
			c-4.5-0.1-8.7-3.6-9.5-8c-3,2.9-6,5.9-9,8.8c1.9-12.6-1.7-25.9-9.7-35.8c-9-1.8-18.6,5.9-18.8,15.1c-5.6,3.5-3.7,13.9,2.8,15.2
			c-2.5,2.6-5,5.1-7.4,7.7c7.1,4,11.1,12.9,9.4,20.9c-14.5-15.2-17.3-40.3-6.5-58.3c-11.4-2-22.4,7.2-26.5,18
			c-4.2,10.8-3.2,22.8-2.1,34.3c6.2,1,12.1,3.6,17,7.3c-4.3,0.6-8.7,0.5-13-0.3c-2.3,3.5-0.5,8.5,2.8,11.1c3.2,2.6,7.5,3.5,11.6,4.3
			c4.3,0.8,8.6,1.7,12.9,2.5l67.1-52C610,242.2,607.3,238.9,605.3,236.5z"/>
		<path class="st2" d="M54.5,622.8c-0.7-3.5,0.9-7.2-0.2-10.6c0,0,0,0,0-0.1c-1-3.1-3.9-5.1-5.4-8c-2.9-5.9,1.2-13,0.1-19.4
			c-1.7-9.1-12.6-13.2-16.9-21.3c-1.4-2.6-2.1-5.7-3.7-8.1l0,0c-5.4-7.9-10.9,2.2-7.8,4.4c2.1,1.5,5.3,1.3,7.2-0.4
			c0,1.1,0,2.3,0,3.4c-1.7-0.1-3.3-0.2-5-0.3c-1.2,2.1-2.3,4.1-3.5,6.2c1.6,0.1,3.1,0.2,4.7,0.3c-0.3,1.9,1,3.8,2.7,4.4
			c-2.6,1.1-1.3,5.9,1.5,5.6c-1.8,2.1-0.5,5.9,2.2,6.5c-3,0.2-2.8,4.9-0.8,7.2s5,4.4,4.6,7.4c-1.3,0.9-2.7,1.7-4,2.6
			c2.4,4.6,8.3,7.1,13.2,5.6c-0.9,1.5-1.9,3.1-2.8,4.6c-1.3-0.6-2.9-0.6-4.2-0.1c-0.3,10.4,6.9,20.6,16.8,23.8
			c2.7,0.7,4.7-2.9,4.2-5.6C56.8,627.8,55,625.5,54.5,622.8z"/>
		<path class="st2" d="M14.7,480.8c3.3-2.8,6.7-5.7,10-8.5l0,0c-1.8-10.9-14.9-19.9-15.3-3.6c-0.1,4.4,0.2,9.7-3.3,12.4
			c0.6,0.6,1.2,1.2,1.8,1.8c-2,7.3-2.1,15-0.4,22.3c1,0,2,0,3,0c1.8-3.2-2.1-6.9-1.7-10.5c0.3-2.8,3-4.6,5-6.6S17,482.5,14.7,480.8z
			"/>
		<path class="st3" d="M653.2,373.9c-6-0.3-8.5-8.2-6.8-14c1.6-5.7,5.6-10.7,6.7-16.6c1.2-7-1.8-13.3-6.5-18.8L626.3,385
			C636.3,385.5,646.5,381.4,653.2,373.9z"/>
		<path class="st3" d="M894.3,719.6c-1.9,0.7-6.4-6.3-7-7.7c-3.5,0.8-5.2,4.1-3.4,7.9c2.8-0.3,5.7,1,7.2,3.4
			c6.2,0.3,12.4,0.5,18.6,0.8c1,0,2,0.1,2.9-0.3c4.7-1.8,2.4-10.3,6.8-12.8c-0.5,0.2-1,0.3-1.4,0.5
			C910.2,714.1,902.3,716.8,894.3,719.6z"/>
		<path class="st3" d="M519.2,765c3-11.3,14.4-19.9,26.2-19.6c11.7,0.2,22.8,9.2,25.3,20.7c5.8-0.2,11.6-0.4,17.3-0.6
			c-8.3,10.9,2.8,27.1,15.8,31.2c13.1,4.2,27.4,1.7,40.7,5.1c13.3,3.4,26.1,17.5,19.8,29.7c-8.5-4.6-17-9.2-25.4-13.8
			c2.5,3.9,5,7.8,7.5,11.8c-3.7,22.3-12,43.7-24.2,62.7c22.6-11,45.1-22,67.7-32.9c-4.8-1-9.6-2.1-14.5-3.1
			c6.4-14.6,24-23.2,39.4-19.3c9-17.7,25.4-31.4,44.4-37.1c15.7-4.7,35.2-5.8,43.1-20.2c8.2-15-2-36.5,9.2-49.4
			c9.5-3.5,20.5,1.6,26.9,9.5s9.2,18,11.8,27.8c16.8-1.4,32.4-12.4,39.5-27.7c0.1-0.4,0.3-0.7,0.5-1.1c-0.2,0.4-0.3,0.7-0.5,1.1
			c-1,3.4,3.1,7.3,7,6.9c4.2-0.4,7.5-3.8,10.4-7c-1.6,3.4-3.3,6.8-4.9,10.2c-15.2,3.4-25.5,21-20.9,35.9c3.7,2,7.3,3.9,11,5.9
			c8-8.1,13-19.2,13.7-30.5c15.4-6.9,28-19.9,34.4-35.5c7.6-5.2,12.9-13.7,14.3-22.8c-2.2-0.1-4.4-0.2-6.6-0.2
			c-2.4-0.1-4.7-0.2-7.1-0.3c1.9-6.1-1.9-13.4-8.1-15.3c-3.3,11.6-3.8,23.9-1.5,35.7c-18.1,12.1-45.1,8.5-59.4-7.9
			c-0.3-5.1-0.7-10.2-1-15.3c-4.6-0.4-9.3,3-10.3,7.6c-3.6-2.5-7.2-4.9-10.7-7.4c9.8-1.6,18.5-8.6,22-17.9
			c-2.5-7.6-11.9-11.2-19.8-9.5c-7.8,1.6-14.3,7.1-19.9,12.8c-19.2,19.2-33.7,42.9-42.2,68.7c9.6-40.9,23.2-86.8,60.9-105.3
			c23.2-11.4,56.2-13.6,64.4-38.1c2-6.1,2.1-12.9,5.5-18.4c3.5-5.7,10.1-8.8,14.4-14c8.5-10.2,4.8-27.9-7.1-33.9
			c-1.4-8.7-16.2-9.3-19.2-1.6c-0.1,0.5-0.2,1-0.4,1.5c0.1-0.5,0.2-1,0.4-1.5c0.8-5.3-7.3-9.8-12.6-7.1c-5.8,2.9-8.2,9.8-10,16
			s-4.1,13.1-9.9,16.2c-0.3-3.7-3.7-6.6-7.2-7.1c-1.4,0.3-2.7,0.5-4.1,0.6c1.3-0.6,2.7-0.8,4.1-0.6c4.7-1.1,9-3.5,12.3-7
			c2.3-2.4,4-6.3,1.8-8.8c-0.2-0.3-0.5-0.4-0.8-0.5c-1,1.4-2.1,2.7-3.1,4.1c-2.8-1,0.8-5,3.1-4.1c4.8-6.3,9.6-12.6,14.4-18.9
			c-10.1-0.1-20.3,2-29.6,6c1.3-4.8-8.8-5.7-8.4-0.7c-0.5-7.8-10.5-10.1-18-12s-15.8-10.8-10.1-16.1c-22.7-17.4-44.5-35.9-65.5-55.4
			c5.6,20.5,2,43.4-9.8,61.2c-2.2-9.9-14.8-15.8-23.8-11.3c-5.3-13.9-10.5-27.9-15.8-41.8c-6.3,3.5-13.7,4.9-20.8,3.9
			c-2.2-11.4-13.6-20.1-25.2-19.3c-15.4,3.4-30.8,6.8-46.2,10.2c9.8,18.8,19.8,39.1,16.7,60c-0.5,3.6-1.5,7.2-0.8,10.7
			c0.7,3.9,3.2,7.3,5.6,10.4c10.1,13.2,20.2,26.4,30.3,39.6c-10.1,12.2-20.1,24.4-30.2,36.6c-2.1,2.5-4.2,5.2-4.5,8.5
			c-0.2,3.6,1.9,6.8,3.8,9.8c10.8,17.3,15.7,38.2,13.6,58.4c0-4.1-3.1-7.9-7.1-8.7c-1.6,3.7-3.2,7.5-4.8,11.2
			c-27.7-15.4-44.5-48.4-40.6-79.9c-17.3,2.8-35.4-0.1-51-8.1l-55.1,165.2C506.3,764.9,512.8,765.3,519.2,765z"/>
		<path class="st3" d="M879.5,548.4c1-1.4,2.1-2.7,3.1-4.1C880.3,543.4,876.7,547.4,879.5,548.4z"/>
		<path class="st3" d="M865.1,561.3c1.4-0.1,2.8-0.3,4.1-0.6C867.9,560.5,866.4,560.7,865.1,561.3z"/>
		<path class="st3" d="M909,542.7c-0.2,0.5-0.3,0.9-0.4,1.5C908.8,543.7,908.9,543.2,909,542.7z"/>
		<path class="st3" d="M889.8,739.7c0.2-0.4,0.3-0.7,0.5-1.1C890.1,739,889.9,739.3,889.8,739.7z"/>
		<polygon class="st3" points="613.2,650.1 614.1,652.1 622.1,655.5 631.5,656.3 630.6,652.5 625.2,646.3 619.5,645.2 		"/>
		<polygon class="st3" points="649.5,670 652.2,667.6 651,664.6 646.7,667.2 646.8,669.4 		"/>
		<polygon class="st3" points="733.9,458.4 732.1,464 732.3,466 734.9,467.2 738.7,463 735.8,457.5 		"/>
		<polygon class="st3" points="615.2,467.8 615.5,461 617.4,456.8 616.3,451.7 613.6,449.9 609.2,450.5 606.8,457.1 607.8,464.5 
			612.2,467.2 613.9,468.1 		"/>
		<polygon class="st3" points="625.1,425.9 619.9,427.4 619.5,428.9 623.5,431.7 625.8,434.5 628.5,433.2 630.5,430.2 629.1,427.2 
					"/>
		<polygon class="st3" points="630.4,419.8 628.9,421.5 633.7,426 634.7,426.8 636.6,425.9 637.4,423.7 634.4,420.3 		"/>
		<polygon class="st3" points="752.9,427.9 751.4,430.2 754.7,432.6 760.7,432.1 758.6,426.8 		"/>
		<path class="st3" d="M638.7,399.4c2.9,1.2,6.2,2.2,9.1,1.1c2.9-1.1,4.7-5.2,2.6-7.5c11.2,5.6,22.4,11.3,33.6,16.9
			c-1.2,1.8-2.5,3.7-3.7,5.5c20,8,41.5,12.2,63.1,12.1c0.2-8.2-8.5-13.4-16.3-15.8c-7.8-2.5-16.8-4.7-20.5-12
			c13.6,0.1,27.2,3.2,39.5,9c1.9-14.2-8.1-27.4-19.7-35.8s-25.2-13.9-36-23.3c4.3,1.8,9.2,1.9,13.5,0.1c-4.1-1.7-7.7-4.8-9.9-8.7
			c3.1-2.8,7.4-5,11.3-3.7c-0.5,4.9,9.1,5.6,9.3,0.6c-0.1,2.5-0.2,5-0.2,7.5c2.8-1.3,5.1-3.5,6.5-6.2c0.3-1,0.6-2,1.1-2.9
			c-0.3,1-0.6,2-1.1,2.9c-1.3,5.1,0.2,10.8,4.1,14.4c4.7,4.2,12.3,4.8,17.5,1.4c-2.3-3.9-4.6-7.8-6.9-11.8c4.9-4.3,6.1-11.4,7-17.9
			c0.7-5.1-0.6-12.4-5.7-12.1c-2.7,0.2-4.6,2.8-7.2,3.6c-2.6,0.9-5.9-2.9-3.5-4.1c-4.2,2-7.7,2.5-11,6.3
			c11.9-18.9-30.1-16.6-40.4-17.7c-0.8-3.8,0.1-7.9,2.3-11.1c-2.8,0.3-5.6,0.5-8.4,0.8c4.4-3.2,9.6-5.2,15-5.7
			c-2.7-4.8-9.8-6.4-14.3-3.3c0.2-3.4,2.7-6.6,5.9-7.6c0.9-5.7-9.6-8.1-11.3-2.6l0,0l-17.5,52.6c4.7,5.5,7.7,11.8,6.5,18.8
			c-1,5.9-5,10.8-6.7,16.6c-1.6,5.7,0.9,13.7,6.8,14c-6.7,7.5-16.9,11.6-26.9,11.1l-6.1,18.3c0.6,1.1,1.3,2.1,2.2,2.9
			C628.1,411.7,640.4,407.1,638.7,399.4z"/>
		<path class="st3" d="M720.8,339.3c0.5-0.9,0.9-1.9,1.1-2.9C721.4,337.3,721,338.3,720.8,339.3z"/>
		<path class="st3" d="M899.6,654.3c-12-3.4-25-3.7-37.1-0.7c-2,0.5-3.3,0.6-3.5,2.8c5.9,3.4,13.2,5,20.1,5.3c7.3,0.3,15-1.8,20.1-7
			C899.4,654.5,899.5,654.4,899.6,654.3z"/>
		<path class="st3" d="M1033.4,630.9c-0.8-4.2-1.7-8.4-2.5-12.6c-1.1,0.1-2.3,0.1-3.4,0.2c-0.5,3.3-1.8,6.5-3.7,9.2
			c-2.5-4.2-3.6-9.2-2.9-14c-3,4.4-4.6,9.8-4.3,15.1c-6-5.5-4.8-15.1-3.1-23.1c-2.6,3.1-5.2,6.2-7.8,9.3c-0.5-3.2-4.4-5.3-7.3-4
			c0.9-3.4,1.8-7.1,0.7-10.4c-1.1-3.4-5.1-6-8.3-4.4c-1,2.4-1.9,4.8-2.9,7.2c-3.7-0.3-7.5,1.9-9.2,5.2c-1-0.8-2-1.7-3-2.5
			c-2,4.5-9.5,4.7-11.9,0.5c1.7-2,3.4-4.1,5.2-6.1c-3.4-1.5-7.4-1.6-10.8-0.3c-1.4,4.9-2.8,9.8-4.3,14.8c-1-8.8-2.1-17.6-3.1-26.4
			c3.8-1.6,4-7.9,0.3-9.7c-1.4,0.1-2.7,0.2-4.1,0.2c2.1-2.1,4.1-4.3,6.2-6.4c-0.4-2.3-2.6-4.1-5-4c-0.1,1.4-0.2,2.8-0.2,4.2
			c0,0.2-8.8,8.3-9.7,11.6c-2.2,7.8,1,20.9,1.4,29.1c0.2,4.1,0.9,9,4.6,10.8c-1.2,0.3-2.4,0.6-3.6,0.9c0,1.6,0,3.2,0,4.8
			c2.7,0.1,5.5,0.2,8.2,0.3c-1.3,2.5-4.4,4-7.1,3.4c0,3.8,0,7.7,0,11.5c-2.4,0.4-4.1,3-3.6,5.4c1.5-2.6,4.9-3.9,7.7-3
			c-1.1,5.8-2.7,11.5-4.9,16.9c1.9,3.5,7.1,2.2,10.7,0.4c6-3.1,12-6.1,18.1-9.2c6.6-3.3,13.4-6.8,18-12.6c0.2,1.8,0.4,3.7,0.6,5.5
			c4.6,0.1,8.3-5.3,6.6-9.6c1.7-0.3,3.4-0.7,5-1c1.2,7.5-1,15.5-5.7,21.5c4.9-1.2,10.8-3.5,11.1-8.5c0.1-2.1-0.8-4.1-0.5-6.2
			c0.2-1.7,1.3-3.1,2-4.6c2.1-4,2.6-8.7,1.5-13.1c6,5.3,9.9,12.8,10.8,20.7c2.8-2.6,3.8-7,2.4-10.6c1.6,0.4,3.1,0.8,4.7,1.2
			c0.3,2.6,0.5,5.1,0.8,7.7c2.9-1.3,5.8-2.5,8.7-3.8C1034.9,638.4,1034.1,634.7,1033.4,630.9z"/>
	</g>
	<g>
		<g>
			<path class="st4" d="M102.2,503.9c0,0-19.4-22-16.2-37.5c3.8-18.4,11.3-21.2,16.1-31.6c5.3-11.6,5.2-26.6-3.4-30.7
				c0,0,19.8,6.8,26.9,20.2c6.4,12.1,6.2,27-5.8,41.9C106.6,482.8,100.3,490.3,102.2,503.9z"/>
		</g>
		<path class="st5" d="M113.9,435.3c0,1.9-0.2,3.8-0.5,5.7s-0.7,3.7-1.2,5.6c-1,3.7-2.4,7.2-3.8,10.8c-1.4,3.5-3,7-4.3,10.4
			c-1.4,3.5-2.6,7-3.5,10.5c-0.4,1.8-0.7,3.6-0.9,5.3c0,0.4-0.1,0.9-0.1,1.3v1.3c0,0.9,0,1.8,0.1,2.6c0.3,3.4,1.4,6.8,2.7,10.1
			c1.3,3.3,3,6.6,4.7,10c1.7,3.3,3.5,6.7,4.8,10.3l-0.4,0.2c-2.5-2.9-4.8-5.8-7.1-8.9c-0.6-0.8-1.1-1.5-1.7-2.3s-1.1-1.6-1.6-2.4
			c-0.5-0.8-1-1.7-1.5-2.5c-0.5-0.9-0.9-1.7-1.4-2.6c-0.9-1.8-1.6-3.6-2.1-5.6s-0.9-4-0.9-6.1c-0.1-4.1,0.7-8,1.8-11.8
			c1.1-3.7,2.6-7.3,4.2-10.8c1.6-3.4,3.4-6.8,5-10.2c1.7-3.4,3.3-6.7,4.5-10.3c0.6-1.8,1.2-3.5,1.6-5.4c0.4-1.8,0.8-3.7,1-5.5
			L113.9,435.3z"/>
	</g>
	<g>
		<g>
			<path class="st4" d="M575.4,727.4c0,0-19.4-22-16.2-37.5c3.8-18.4,11.3-21.2,16.1-31.6c5.3-11.6,5.2-26.6-3.4-30.7
				c0,0,19.8,6.8,26.9,20.2c6.4,12.1,6.2,27-5.8,41.9C579.8,706.3,573.5,713.7,575.4,727.4z"/>
		</g>
		<path class="st5" d="M587.1,658.7c0,1.9-0.2,3.8-0.5,5.7s-0.7,3.7-1.2,5.6c-1,3.7-2.4,7.2-3.8,10.8c-1.4,3.5-3,7-4.3,10.4
			c-1.4,3.5-2.6,7-3.5,10.5c-0.4,1.8-0.7,3.6-0.9,5.3c0,0.4-0.1,0.9-0.1,1.3v1.3c0,0.9,0,1.8,0.1,2.6c0.3,3.4,1.4,6.8,2.7,10.1
			s3,6.6,4.7,10c1.7,3.3,3.5,6.7,4.8,10.3l-0.4,0.2c-2.5-2.9-4.8-5.8-7.1-8.9c-0.6-0.8-1.1-1.5-1.7-2.3c-0.6-0.8-1.1-1.6-1.6-2.4
			c-0.5-0.8-1-1.7-1.5-2.5c-0.5-0.9-0.9-1.7-1.4-2.6c-0.9-1.8-1.6-3.6-2.1-5.6s-0.9-4-0.9-6.1c-0.1-4.1,0.7-8,1.8-11.8
			c1.1-3.7,2.6-7.3,4.2-10.8c1.6-3.4,3.4-6.8,5-10.2c1.7-3.4,3.3-6.7,4.5-10.3c0.6-1.8,1.2-3.5,1.6-5.4c0.4-1.8,0.8-3.7,1-5.5
			L587.1,658.7z"/>
	</g>
	<g>
		<g>
			<path class="st4" d="M284,499c0,0-19.4-22-16.2-37.5c3.8-18.4,11.3-21.2,16.1-31.6c5.3-11.6,5.2-26.6-3.4-30.7
				c0,0,19.8,6.8,26.9,20.2c6.4,12.1,6.2,27-5.8,41.9C288.3,477.9,282.1,485.3,284,499z"/>
		</g>
		<path class="st5" d="M295.6,430.3c0,1.9-0.2,3.8-0.5,5.7s-0.7,3.7-1.2,5.6c-1,3.7-2.4,7.2-3.8,10.8c-1.4,3.5-3,7-4.3,10.4
			c-1.4,3.5-2.6,7-3.5,10.5c-0.4,1.8-0.7,3.6-0.9,5.3c0,0.4-0.1,0.9-0.1,1.3v1.3c0,0.9,0,1.8,0.1,2.6c0.3,3.4,1.4,6.8,2.7,10.1
			c1.3,3.3,3,6.6,4.7,10c1.7,3.3,3.5,6.7,4.8,10.3l-0.4,0.2c-2.5-2.9-4.8-5.8-7.1-8.9c-0.6-0.8-1.1-1.5-1.7-2.3s-1.1-1.6-1.6-2.4
			c-0.5-0.8-1-1.7-1.5-2.5c-0.5-0.9-0.9-1.7-1.4-2.6c-0.9-1.8-1.6-3.6-2.1-5.6s-0.9-4-0.9-6.1c-0.1-4.1,0.7-8,1.8-11.8
			c1.1-3.7,2.6-7.3,4.2-10.8c1.6-3.4,3.4-6.8,5-10.2c1.7-3.4,3.3-6.7,4.5-10.3c0.6-1.8,1.2-3.5,1.6-5.4c0.4-1.8,0.8-3.7,1-5.5
			L295.6,430.3z"/>
	</g>
	<g>
		<g>
			<path class="st4" d="M718.7,629.9c0,0-19.4-22-16.2-37.5c3.8-18.4,11.3-21.2,16.1-31.6c5.3-11.6,5.2-26.6-3.4-30.7
				c0,0,19.8,6.8,26.9,20.2c6.4,12.1,6.2,27-5.8,41.9C723,608.8,716.8,616.2,718.7,629.9z"/>
		</g>
		<path class="st5" d="M730.3,561.3c0,1.9-0.2,3.8-0.5,5.7s-0.7,3.7-1.2,5.6c-1,3.7-2.4,7.2-3.8,10.8c-1.4,3.5-3,7-4.3,10.4
			c-1.4,3.5-2.6,7-3.5,10.5c-0.4,1.8-0.7,3.6-0.9,5.3c0,0.4-0.1,0.9-0.1,1.3v1.3c0,0.9,0,1.8,0.1,2.6c0.3,3.4,1.4,6.8,2.7,10.1
			s3,6.6,4.7,10c1.7,3.3,3.5,6.7,4.8,10.3l-0.4,0.2c-2.5-2.9-4.8-5.8-7.1-8.9c-0.6-0.8-1.1-1.5-1.7-2.3c-0.6-0.8-1.1-1.6-1.6-2.4
			c-0.5-0.8-1-1.7-1.5-2.5c-0.5-0.9-0.9-1.7-1.4-2.6c-0.9-1.8-1.6-3.6-2.1-5.6s-0.9-4-0.9-6.1c-0.1-4.1,0.7-8,1.8-11.8
			c1.1-3.7,2.6-7.3,4.2-10.8c1.6-3.4,3.4-6.8,5-10.2c1.7-3.4,3.3-6.7,4.5-10.3c0.6-1.8,1.2-3.5,1.6-5.4c0.4-1.8,0.8-3.7,1-5.5
			L730.3,561.3z"/>
	</g>
	<g>
		<g>
			<path class="st5" d="M194,352.5c0,0-19.4-22-16.2-37.5c3.8-18.4,11.3-21.2,16.1-31.6c5.3-11.6,5.2-26.6-3.4-30.7
				c0,0,19.8,6.8,26.9,20.2c6.4,12.1,6.2,27-5.8,41.9C198.4,331.4,192.1,338.9,194,352.5z"/>
		</g>
		<path class="st4" d="M205.6,283.9c0,1.9-0.2,3.8-0.5,5.7c-0.3,1.9-0.7,3.7-1.2,5.6c-1,3.7-2.4,7.2-3.8,10.8c-1.4,3.5-3,7-4.3,10.4
			c-1.4,3.5-2.6,7-3.5,10.5c-0.4,1.8-0.7,3.6-0.9,5.3c0,0.4-0.1,0.9-0.1,1.3v1.3c0,0.9,0,1.8,0.1,2.6c0.3,3.4,1.4,6.8,2.7,10.1
			c1.3,3.3,3,6.6,4.7,10c1.7,3.3,3.5,6.7,4.8,10.3l-0.4,0.2c-2.5-2.9-4.8-5.8-7.1-8.9c-0.6-0.8-1.1-1.5-1.7-2.3
			c-0.6-0.8-1.1-1.6-1.6-2.4s-1-1.7-1.5-2.5c-0.5-0.9-0.9-1.7-1.4-2.6c-0.9-1.8-1.6-3.6-2.1-5.6s-0.9-4-0.9-6.1
			c-0.1-4.1,0.7-8,1.8-11.8c1.1-3.7,2.6-7.3,4.2-10.8c1.6-3.4,3.4-6.8,5-10.2c1.7-3.4,3.3-6.7,4.5-10.3c0.6-1.8,1.2-3.5,1.6-5.4
			c0.4-1.8,0.8-3.7,1-5.5L205.6,283.9z"/>
	</g>
	<g>
		<g>
			<path class="st5" d="M238.1,641.1c0,0-19.4-22-16.2-37.5c3.8-18.4,11.3-21.2,16.1-31.6c5.3-11.6,5.2-26.6-3.4-30.7
				c0,0,19.8,6.8,26.9,20.2c6.4,12.1,6.2,27-5.8,41.9C242.5,620,236.2,627.5,238.1,641.1z"/>
		</g>
		<path class="st4" d="M249.8,572.5c0,1.9-0.2,3.8-0.5,5.7s-0.7,3.7-1.2,5.6c-1,3.7-2.4,7.2-3.8,10.8c-1.4,3.5-3,7-4.3,10.4
			c-1.4,3.5-2.6,7-3.5,10.5c-0.4,1.8-0.7,3.6-0.9,5.3c0,0.4-0.1,0.9-0.1,1.3v1.3c0,0.9,0,1.8,0.1,2.6c0.3,3.4,1.4,6.8,2.7,10.1
			c1.3,3.3,3,6.6,4.7,10c1.7,3.3,3.5,6.7,4.8,10.3l-0.4,0.2c-2.5-2.9-4.8-5.8-7.1-8.9c-0.6-0.8-1.1-1.5-1.7-2.3s-1.1-1.6-1.6-2.4
			c-0.5-0.8-1-1.7-1.5-2.5c-0.5-0.9-0.9-1.7-1.4-2.6c-0.9-1.8-1.6-3.6-2.1-5.6s-0.9-4-0.9-6.1c-0.1-4.1,0.7-8,1.8-11.8
			c1.1-3.7,2.6-7.3,4.2-10.8c1.6-3.4,3.4-6.8,5-10.2c1.7-3.4,3.3-6.7,4.5-10.3c0.6-1.8,1.2-3.5,1.6-5.4c0.4-1.8,0.8-3.7,1-5.5
			L249.8,572.5z"/>
	</g>
	<g>
		<g>
			<path class="st5" d="M416,636.3c0,0-19.4-22-16.2-37.5c3.8-18.4,11.3-21.2,16.1-31.6c5.3-11.6,5.2-26.6-3.4-30.7
				c0,0,19.8,6.8,26.9,20.2c6.4,12.1,6.2,27-5.8,41.9C420.4,615.2,414.1,622.7,416,636.3z"/>
		</g>
		<path class="st4" d="M427.7,567.7c0,1.9-0.2,3.8-0.5,5.7s-0.7,3.7-1.2,5.6c-1,3.7-2.4,7.2-3.8,10.8c-1.4,3.5-3,7-4.3,10.4
			c-1.4,3.5-2.6,7-3.5,10.5c-0.4,1.8-0.7,3.6-0.9,5.3c0,0.4-0.1,0.9-0.1,1.3v1.3c0,0.9,0,1.8,0.1,2.6c0.3,3.4,1.4,6.8,2.7,10.1
			c1.3,3.3,3,6.6,4.7,10c1.7,3.3,3.5,6.7,4.8,10.3l-0.4,0.2c-2.5-2.9-4.8-5.8-7.1-8.9c-0.6-0.8-1.1-1.5-1.7-2.3s-1.1-1.6-1.6-2.4
			c-0.5-0.8-1-1.7-1.5-2.5c-0.5-0.9-0.9-1.7-1.4-2.6c-0.9-1.8-1.6-3.6-2.1-5.6s-0.9-4-0.9-6.1c-0.1-4.1,0.7-8,1.8-11.8
			c1.1-3.7,2.6-7.3,4.2-10.8c1.6-3.4,3.4-6.8,5-10.2c1.7-3.4,3.3-6.7,4.5-10.3c0.6-1.8,1.2-3.5,1.6-5.4c0.4-1.8,0.8-3.7,1-5.5
			L427.7,567.7z"/>
	</g>
	<g>
		<g>
			<path class="st5" d="M625.8,777.3c0,0-19.4-22-16.2-37.5c3.8-18.4,11.3-21.2,16.1-31.6c5.3-11.6,5.2-26.6-3.4-30.7
				c0,0,19.8,6.8,26.9,20.2c6.4,12.1,6.2,27-5.8,41.9C630.1,756.2,623.9,763.6,625.8,777.3z"/>
		</g>
		<path class="st4" d="M637.4,708.6c0,1.9-0.2,3.8-0.5,5.7s-0.7,3.7-1.2,5.6c-1,3.7-2.4,7.2-3.8,10.8c-1.4,3.5-3,7-4.3,10.4
			c-1.4,3.5-2.6,7-3.5,10.5c-0.4,1.8-0.7,3.6-0.9,5.3c0,0.4-0.1,0.9-0.1,1.3v1.3c0,0.9,0,1.8,0.1,2.6c0.3,3.4,1.4,6.8,2.7,10.1
			s3,6.6,4.7,10c1.7,3.3,3.5,6.7,4.8,10.3l-0.4,0.2c-2.5-2.9-4.8-5.8-7.1-8.9c-0.6-0.8-1.1-1.5-1.7-2.3c-0.6-0.8-1.1-1.6-1.6-2.4
			c-0.5-0.8-1-1.7-1.5-2.5c-0.5-0.9-0.9-1.7-1.4-2.6c-0.9-1.8-1.6-3.6-2.1-5.6s-0.9-4-0.9-6.1c-0.1-4.1,0.7-8,1.8-11.8
			c1.1-3.7,2.6-7.3,4.2-10.8c1.6-3.4,3.4-6.8,5-10.2c1.7-3.4,3.3-6.7,4.5-10.3c0.6-1.8,1.2-3.5,1.6-5.4c0.4-1.8,0.8-3.7,1-5.5
			L637.4,708.6z"/>
	</g>
	<g>
		<g>
			<path class="st5" d="M831.5,698.5c0,0-19.4-22-16.2-37.5c3.8-18.4,11.3-21.2,16.1-31.6c5.3-11.6,5.2-26.6-3.4-30.7
				c0,0,19.8,6.8,26.9,20.2c6.4,12.1,6.2,27-5.8,41.9C835.9,677.4,829.6,684.8,831.5,698.5z"/>
		</g>
		<path class="st4" d="M843.1,629.8c0,1.9-0.2,3.8-0.5,5.7s-0.7,3.7-1.2,5.6c-1,3.7-2.4,7.2-3.8,10.8c-1.4,3.5-3,7-4.3,10.4
			c-1.4,3.5-2.6,7-3.5,10.5c-0.4,1.8-0.7,3.6-0.9,5.3c0,0.4-0.1,0.9-0.1,1.3v1.3c0,0.9,0,1.8,0.1,2.6c0.3,3.4,1.4,6.8,2.7,10.1
			s3,6.6,4.7,10c1.7,3.3,3.5,6.7,4.8,10.3l-0.4,0.2c-2.5-2.9-4.8-5.8-7.1-8.9c-0.6-0.8-1.1-1.5-1.7-2.3c-0.6-0.8-1.1-1.6-1.6-2.4
			c-0.5-0.8-1-1.7-1.5-2.5c-0.5-0.9-0.9-1.7-1.4-2.6c-0.9-1.8-1.6-3.6-2.1-5.6s-0.9-4-0.9-6.1c-0.1-4.1,0.7-8,1.8-11.8
			c1.1-3.7,2.6-7.3,4.2-10.8c1.6-3.4,3.4-6.8,5-10.2c1.7-3.4,3.3-6.7,4.5-10.3c0.6-1.8,1.2-3.5,1.6-5.4c0.4-1.8,0.8-3.7,1-5.5
			L843.1,629.8z"/>
	</g>
</g>
</svg>
