<?xml version="1.0" encoding="utf-8"?>
<!-- Generator: Adobe Illustrator 25.0.0, SVG Export Plug-In . SVG Version: 6.00 Build 0)  -->
<svg version="1.1" id="Layer_1" xmlns="http://www.w3.org/2000/svg" xmlns:xlink="http://www.w3.org/1999/xlink" x="0px" y="0px"
	 viewBox="0 0 187.6 183.9" style="enable-background:new 0 0 187.6 183.9;" xml:space="preserve">
<style type="text/css">
	.st0{fill:#FFFFFF;}
	.st1{fill:#A5BB9C;}
	.st2{fill:#D19229;}
	.st3{fill:#D06328;}
	.st4{fill:#D95026;}
	.st5{fill:#5A9DB4;}
	.st6{fill:#D6AD6B;}
	.st7{fill:#B98B51;}
	.st8{fill:#00587F;}
	.st9{fill:#94C5BB;}
	.st10{fill:#F7E6A1;}
	.st11{fill:#BFA866;}
	.st12{fill:url(#SVGID_1_);}
	.st13{fill:#7FCFDA;}
	.st14{fill:#377796;}
</style>
<circle id="Ellipse_4" class="st0" cx="93.4" cy="91.8" r="89.7"/>
<g>
	<path class="st1" d="M136.7,93.4c-2.4,3.9-3.1,6.7-3.2,13.6c-3.9-6.7-4.4-8.2-5.1-11.1c-0.6-2.3-1.9-11,1.9-19.1
		c2.9-6,4.1-8.6,4.1-11.5c0.2,0.3,0.4,0.6,0.7,0.8l0,0c2.3,3,3.7,4.6,4.9,7.2C143.2,80.5,142.8,83.9,136.7,93.4z"/>
	<path class="st2" d="M133.6,63.8c0,0-1.6-7.3-3.6-10.1c-2-2.9-5.3-2.1-6.6-6.3c-2-6.3-6.2-9.7-8.7-10.2c0,0,3.1,3,4.4,6.3
		c1.3,3.4-1.5,8.2,4.4,10.9C129.7,57.2,133.6,63.8,133.6,63.8z"/>
	<path class="st3" d="M144.7,54.1c-6.2-8.9-14.7-16-24.5-20.7c0.4,0.2,0.8,0.5,1.2,0.8c1.5,1.2,2.2,1.3,5.9,5.5
		c1.4,1.7,2.7,3.8,5.1,5.7C135.5,47.8,142.6,51.2,144.7,54.1z"/>
	<path class="st4" d="M119.2,33.2c0,0-0.1,0-0.1-0.1c-0.1,0-0.1-0.1-0.2-0.1c-0.1,0-0.1-0.1-0.2-0.1c-0.1,0-0.1-0.1-0.2-0.1
		c-0.1,0-0.1-0.1-0.2-0.1c-0.1,0-0.1-0.1-0.2-0.1c-0.1,0-0.2-0.1-0.2-0.1c-0.1,0-0.1-0.1-0.2-0.1c-0.1,0-0.2-0.1-0.3-0.1
		c-0.1,0-0.1-0.1-0.2-0.1c-0.1,0-0.2-0.1-0.3-0.1c0,0-0.1,0-0.1-0.1c-0.1-0.1-0.3-0.1-0.5-0.2l0,0l0,0l0,0c-0.3-0.1-0.5-0.2-0.8-0.3
		l-0.2-0.1c-4.1-1-6.4,0.9-9.3,1.8c-2.3,0.8-5.5-0.8-5.7-1c0.1,0.1,0.5,1.9,1.8,2.8c2,1.3,5.4,0.7,7.9,0.3c2.5-0.4,3.4-0.4,5.3,0.1
		c3.7,0.9,8.8,4.4,11.7,5.6c-0.7-0.9-1.7-2-3.2-3.7C122.1,35.4,120.5,34.1,119.2,33.2z"/>
	<g>
		<path class="st0" d="M81.7,99.8L81.7,99.8C81.7,99.8,81.8,99.8,81.7,99.8C81.8,99.9,81.8,99.8,81.7,99.8z"/>
		<g>
			<path class="st0" d="M81.7,99.8h-0.1H81.7C81.8,99.7,81.8,99.7,81.7,99.8L81.7,99.8C81.8,99.9,81.8,99.8,81.7,99.8z M81.7,99.8
				C81.8,99.8,81.8,99.8,81.7,99.8l0.4-0.1L81.7,99.8C81.7,99.9,81.7,99.9,81.7,99.8L81.7,99.8L81.7,99.8z"/>
		</g>
	</g>
	<path class="st0" d="M111.6,129.9c-0.5,0.2-0.9,0.3-1.4,0.5C111,130.1,111.5,130,111.6,129.9L111.6,129.9z"/>
	<path class="st0" d="M129.8,141.3L129.8,141.3c0.1-0.1,0.2-0.2,0.3-0.2c-0.2,0.1-0.3,0.2-0.5,0.3
		C129.7,141.4,129.7,141.3,129.8,141.3z"/>
	<path class="st0" d="M130.3,140.9C130.3,141,130.3,141,130.3,140.9c-0.1,0.1-0.1,0.1-0.2,0.1C130.2,141,130.2,141,130.3,140.9z"/>
	<path class="st5" d="M115.4,144.7c-6,0.1-9.9,0.6-14.3,3.1c-4.4,2.4-11,4.8-18.8,3.9c1.4,0.3,2.8,0.5,4.3,0.6
		c2.2,0.2,4.5,0.4,6.7,0.4c13.3,0,26-4.2,36.2-11.2c0.2-0.1,0.3-0.2,0.5-0.3l0.1-0.1C125.8,143.8,120.4,144.6,115.4,144.7z"/>
	<path class="st6" d="M94.9,86.7c0,1.8-2.2,2.5-3.7,3.4c-1.4,0.8-0.9,3.7-0.2,5.4c0.7,1.6-2.1,3-2.1,3s2,1.1,0.2,3.5
		c-0.6,0.8-1.2,6.2-3,7.1c-0.9-1.3-4.8-3-5.2-4.9c-0.5-3.1,4.6-7.1,5.6-10.5c0-0.1,0-0.2,0.1-0.2c0-0.1,0-0.2,0-0.2v-0.1l0,0l0,0
		l0,0l0,0c0.1-1.4-0.7-2.2-1.2-3s-0.8-1.2,0.1-2.2c0-0.1,0.1-0.1,0.1-0.2c2-2,4.2-4.6,2.8-6.5c-1.5-1.9-7-2.4-7-2.4s4.9-1.8,7.2-3.9
		c1.5-1.3,2.3-5.4,2.4-8.2l0,0c0-0.3,0-0.6,0-0.8c0.1,2.9-0.3,7.5-0.7,10c-0.1,0.5,0.1,1.4,0.5,2.4c0.5,1.2,1.1,2.8,1.8,4.1l0,0
		C93.8,84.3,94.9,86.1,94.9,86.7z"/>
	<g>
		<path class="st7" d="M91.1,65.7c0,0.3,0,0.6,0,0.9l0,0c-0.1,2.8-0.9,6.8-2.4,8.2c-2.4,2-7.2,3.9-7.2,3.9s5.6,0.5,7,2.4
			s-0.7,4.5-2.8,6.5c0,0.1-0.1,0.1-0.1,0.2c-0.9,0.9-0.6,1.5-0.1,2.2s1.3,1.5,1.2,3l0,0l0,0l0,0l0,0v0.1c0,0.1,0,0.2,0,0.2
			c0,0.1,0,0.2-0.1,0.2c-0.9,3.4-6.1,7.3-5.6,10.5c0.3,1.9,4.3,3.6,5.2,4.9c-1.7,0.9-7.4-0.1-10.6-0.2c-2.7-0.1-4.5,0.7-5.8,1.5
			c-1-1.6-1.8-3.4-2.5-5.1l-0.4-1l-0.1-0.2l-0.1-0.2l-0.2-0.5c-0.2-0.7-0.4-1.3-0.6-2c-0.1-0.3-0.2-0.7-0.3-1
			c-0.1-0.3-0.2-0.7-0.2-1c-0.1-0.7-0.3-1.4-0.4-2.1l-0.2-1.1c0-0.4-0.1-0.7-0.1-1.1l-0.1-1.1c0-0.4-0.1-0.7-0.1-1.1V92v-0.5
			c0-0.4,0-0.7,0-1.1c0-0.2,0-0.4,0-0.5c0-0.2,0-0.4,0-0.5c0-0.4,0-0.7,0-1.1c0.1-1.4,0.3-2.9,0.6-4.3c0.4-1.4,0.9-2.8,1.6-4
			c0.6-1.2,1.4-2.2,2.4-3.2c0.2-0.2,0.4-0.4,0.7-0.7c0.9-0.8,1.9-1.5,3-2.2c1.2-0.8,2.4-1.6,3.7-2.4c0.6-0.4,1.2-0.8,1.8-1.2
			c0.6-0.4,1.2-0.8,1.8-1.2l0.9-0.6l0.2-0.2l0.2-0.2c0.2-0.1,0.3-0.2,0.5-0.3c0.6-0.5,1.2-1,1.8-1.5s1.1-1.1,1.6-1.7
			c0.5-0.6,1-1.2,1.4-1.9c0.8-1.3,1.4-2.8,1.9-4.2c0.2,0.4,0.4,0.7,0.6,1c1,2,1.3,2.8,1.7,5.1C91,64.9,91.1,65.3,91.1,65.7z"/>
	</g>
	<path class="st8" d="M108.7,130.8c-3.3,0.9-7,1.4-10.1,1.4c-9.5,0-13.8-0.7-24.4-7.3c-3-1.8-7.5-4.1-11.5-7.7
		c-0.2-0.2-0.5-0.4-0.7-0.7c-6.1-5.2-10-13-10-21.7c0-4.8,1.1-9.2,3.2-13.2l0,0c0-0.1,0.1-0.2,0.1-0.3c4.6-7.9,11.8-10.8,20.3-14.7
		c2.2-1,4.5-2,6.6-3.1c0.2-0.1,0.4-0.3,0.5-0.4c0.5-0.7,0.9-1.4,1.3-2.1c0.6-1.2,1.1-2.4,1.5-3.8c0.2-0.7,0.3-1.3,0.5-2V55
		c-5.4-5.9-13.3-9.7-21.9-9.7c-6,0-17.5,2.1-24.9,12.5c-4.8,6.3-8.9,20.4-8.9,32.2c0,2.8,0.2,5.5,0.5,8.2l0,0l0,0l0,0l0,0l0,0l0,0
		l0,0l0,0c0,0,0,0,0,0.1l0,0c0,0,0,0,0,0.1l0,0c0,0.1,0,0.1,0.1,0.2l0,0c0,0.1,0,0.1,0.1,0.2l0,0c0,0.1,0.1,0.2,0.1,0.3l0,0
		c0,0,0,0.1,0.1,0.1l0,0c0,0,0,0.1,0.1,0.1l0,0c0,0.1,0,0.1,0.1,0.2l0,0c0,0.1,0,0.1,0.1,0.2l0,0c0,0.1,0,0.1,0.1,0.2l0,0
		c0,0.1,0,0.1,0.1,0.2l0,0c0,0.1,0,0.1,0.1,0.2l0,0c0,0.1,0,0.1,0.1,0.2l0,0c0,0.1,0,0.1,0.1,0.2c0,0,0,0,0,0.1c0,0.1,0,0.1,0.1,0.2
		c0,0,0,0,0,0.1c0,0.1,0.1,0.1,0.1,0.2c0,0,0,0,0,0.1c0,0.1,0.1,0.1,0.1,0.2c0,0,0,0,0,0.1c0,0.1,0.1,0.1,0.1,0.2c0,0,0,0,0,0.1
		c0,0.1,0.1,0.1,0.1,0.2c0,0,0,0,0,0.1c0,0.1,0.1,0.1,0.1,0.2c0,0,0,0,0,0.1c0,0.1,0.1,0.1,0.1,0.2v0.1c0,0.1,0.1,0.1,0.1,0.2v0.1
		c0,0.1,0.1,0.1,0.1,0.2v0.1c0,0.1,0.1,0.1,0.1,0.2v0.1c0,0.1,0.1,0.2,0.1,0.3c1.5,3.4,3.8,7.6,6.7,11.2c0.1,0.2,0.3,0.3,0.4,0.5
		c0,0.1,0.1,0.1,0.1,0.2c0.1,0.1,0.2,0.2,0.3,0.3c0.1,0.1,0.1,0.1,0.2,0.2c0.1,0.1,0.2,0.2,0.3,0.3c0.1,0.1,0.1,0.1,0.2,0.2
		c0.1,0.1,0.2,0.2,0.2,0.2c0.1,0.1,0.1,0.1,0.2,0.2c0.1,0.1,0.2,0.2,0.2,0.2c0.1,0.1,0.1,0.1,0.2,0.2c0.1,0.1,0.2,0.1,0.2,0.2
		c0.1,0.1,0.1,0.1,0.2,0.2c0.1,0.1,0.2,0.1,0.2,0.2c0.1,0.1,0.1,0.1,0.2,0.2c0.1,0.1,0.2,0.1,0.3,0.2c0.1,0.1,0.1,0.1,0.2,0.2
		c0.1,0.1,0.2,0.1,0.3,0.2c0.1,0.1,0.1,0.1,0.2,0.2c0.1,0.1,0.2,0.1,0.3,0.2c0.1,0,0.1,0.1,0.2,0.1c0.1,0.1,0.2,0.1,0.3,0.2
		c0.1,0,0.1,0.1,0.2,0.1c0.1,0.1,0.2,0.1,0.3,0.2c0.1,0,0.1,0.1,0.2,0.1c0.1,0.1,0.2,0.1,0.3,0.2c0.1,0,0.1,0.1,0.2,0.1
		c0.1,0.1,0.2,0.1,0.3,0.2c0.1,0,0.1,0.1,0.2,0.1c0.1,0.1,0.2,0.1,0.3,0.2c0.1,0,0.1,0.1,0.2,0.1c0.1,0.1,0.2,0.1,0.3,0.2
		c0.1,0,0.1,0.1,0.2,0.1c0.1,0.1,0.2,0.1,0.3,0.2c0.1,0,0.1,0.1,0.2,0.1c0.1,0.1,0.2,0.1,0.4,0.2c0,0,0.1,0,0.1,0.1
		c0.2,0.1,0.3,0.1,0.5,0.2c0.1,0,0.1,0.1,0.2,0.1s0.2,0.1,0.3,0.1c0.1,0,0.2,0.1,0.2,0.1c0.1,0,0.2,0.1,0.3,0.1
		c0.1,0,0.2,0.1,0.2,0.1c0.1,0,0.2,0.1,0.2,0.1c0.1,0,0.2,0.1,0.3,0.1c0.1,0,0.2,0.1,0.2,0.1c0.1,0,0.2,0.1,0.3,0.1
		c0.1,0,0.1,0.1,0.2,0.1s0.2,0.1,0.3,0.1c0.1,0,0.1,0.1,0.2,0.1s0.2,0.1,0.3,0.1c0.1,0,0.1,0,0.2,0.1c0.1,0,0.2,0.1,0.3,0.1
		c0.1,0,0.1,0,0.2,0.1c0.1,0,0.2,0.1,0.3,0.1c0.1,0,0.1,0,0.2,0.1c0.1,0,0.2,0.1,0.3,0.1h0.1c0.1,0,0.2,0.1,0.3,0.1h0.1
		c0.1,0,0.3,0.1,0.4,0.1l0,0c0.4,0.1,0.8,0.2,1.2,0.3c-0.7-0.3-1.4-0.6-2.1-1c-7.6-3.9-13.4-11-15.3-19.5c-0.3-1.4-0.5-2.9-0.6-4.3
		c-0.2-1.5-0.2-3.2-0.2-4.7c0-20.1,13.2-37.1,31.3-43c-11.4,5.1-20.3,14.8-24.4,26.7c-1.5,4.6-2.3,9.4-2.3,14.5
		c0,8.5,2.3,16.3,6.3,23c0,0.1,0.1,0.2,0.1,0.2c3.5,5.6,10.1,9.7,16.3,10.1c-1.3-0.1-2.5-0.3-3.8-0.5c1.9,0.5,2.8,0.4,6.8,0.8
		c9.2,0.9,9.3,5.5,13.3,8.8c3.2,2.7,9.2,3.8,14.1,2c3.6-1.2,5.4-2.4,8-4c2.1-1.3,5.1-2.4,6.8-3.1
		C109.6,130.6,109.2,130.7,108.7,130.8z"/>
	<path class="st9" d="M109.1,137.2c3.7-0.7,7-0.8,10.1-0.9c0.2-0.1,0.4-0.2,0.6-0.2c6.4-2.8,15.2-9.2,15.3-18.7c0-3.5-1-5.8-2.7-8.5
		c-1.5-2.4-4.6-6.2-4.6-6.2c0.7,4.3,1,6.3,0.9,9c-0.2,5.2-2.4,9.7-4.3,12.2c-2.3,3.3-4.2,4.9-12.1,8.1c-3.4,1.3-7.2,4-10.8,6
		c-1.9,1.1-3.5,1.9-4.6,2.3C101.7,139.2,105.9,137.9,109.1,137.2z"/>
	<path class="st1" d="M146,101.4c0.8-6.6,5.5-10,4.4-13.8c0-0.1-0.1-0.2-0.1-0.3c0-0.1,0-0.1-0.1-0.2c0-0.1,0-0.1-0.1-0.2l0,0l0,0
		l0,0c0-0.1-0.1-0.2-0.1-0.3c-0.1-0.4-0.3-0.7-0.5-1c-0.1-0.2-0.2-0.3-0.3-0.5l0,0c-0.1-0.1-0.1-0.2-0.2-0.4
		c-0.1-0.1-0.1-0.2-0.2-0.3c-0.1-0.1-0.1-0.2-0.2-0.3c0-0.1-0.1-0.2-0.1-0.2c0-0.1-0.1-0.2-0.2-0.3c-0.2-0.3-0.3-0.5-0.5-0.8
		c-0.1-0.3-0.3-0.5-0.4-0.8c-0.1-0.2-0.2-0.4-0.3-0.5c-0.1-0.2-0.2-0.4-0.3-0.5c0-0.1-0.1-0.2-0.1-0.3c-0.1-0.2-0.2-0.4-0.3-0.6
		c-0.1-0.3-0.2-0.6-0.3-0.9c0.2,0.6,0.9,3.2,1.2,7.3c0.4,5-2.8,7.6-4,13.5c-1.2,5.8,1.9,9.6-0.5,16.8c-0.1,0.3-0.2,0.7-0.4,1
		c0,0.1-0.1,0.2-0.1,0.3c0,0.1-0.1,0.2-0.1,0.4c0,0,0,0,0,0.1c-0.1,0.3-0.2,0.6-0.4,0.9c-0.1,0.1-0.1,0.3-0.2,0.4
		c-0.1,0.1-0.1,0.3-0.2,0.4c-0.1,0.1-0.1,0.2-0.2,0.3c-0.1,0.2-0.2,0.3-0.2,0.5c-0.1,0.1-0.1,0.2-0.2,0.3c0,0.1-0.1,0.2-0.2,0.3
		c0,0.1-0.1,0.2-0.2,0.3c-0.1,0.2-0.2,0.4-0.3,0.6c-0.1,0.1-0.2,0.3-0.3,0.4c-0.1,0.1-0.2,0.3-0.3,0.4c-0.1,0.2-0.2,0.3-0.4,0.5
		c0,0,0,0,0,0.1c-0.1,0.1-0.2,0.2-0.2,0.3c-0.1,0.1-0.2,0.3-0.3,0.4c-0.1,0.2-0.3,0.4-0.4,0.5c-0.1,0.1-0.2,0.2-0.3,0.3
		c-0.1,0.1-0.2,0.3-0.4,0.4c-0.1,0.1-0.2,0.2-0.2,0.3l-0.1,0.1c-0.1,0.1-0.2,0.2-0.2,0.2c-0.2,0.2-0.3,0.3-0.5,0.5
		c-0.2,0.2-0.4,0.3-0.5,0.5c-0.6,0.6-1.3,1.1-2,1.7c-0.2,0.1-0.3,0.2-0.5,0.4c-0.3,0.2-0.6,0.4-0.9,0.6l0,0
		c-0.1,0.1-0.2,0.1-0.3,0.2c-0.1,0.1-0.2,0.1-0.3,0.2c-0.2,0.1-0.4,0.3-0.7,0.4c-0.1,0.1-0.2,0.1-0.4,0.2c-0.1,0.1-0.2,0.1-0.4,0.2
		c-0.2,0.1-0.5,0.3-0.7,0.4c-0.1,0.1-0.3,0.1-0.4,0.2l0,0c-0.1,0.1-0.3,0.1-0.4,0.2c-0.1,0.1-0.3,0.1-0.4,0.2c0,0-0.1,0-0.1,0.1
		c-0.1,0.1-0.3,0.1-0.4,0.2c-0.2,0.1-0.4,0.2-0.5,0.3c-0.3,0.1-0.6,0.3-1,0.4c0,0,0,0-0.1,0c-0.2,0.1-0.4,0.2-0.6,0.3
		c-0.1,0-0.2,0.1-0.3,0.1c-0.3,0.1-0.6,0.2-0.9,0.3c-0.3,0.1-0.6,0.3-1,0.4c-0.2,0.1-0.3,0.1-0.5,0.2c-0.2,0.1-0.3,0.1-0.5,0.2
		c-0.2,0.1-0.3,0.1-0.5,0.2c-0.2,0.1-0.3,0.1-0.5,0.2c-0.4,0.1-0.7,0.2-1.1,0.4c-0.1,0-0.3,0.1-0.4,0.1c-0.1,0-0.3,0.1-0.4,0.1
		c-0.1,0-0.3,0.1-0.4,0.1c4.1-0.1,8-0.1,11.8-1.5c3.5-1.2,5.8-2.7,8-4c1.7-1,5.3-4.4,6-5.1c0.3-0.3,0.6-0.5,0.9-0.8
		c0,0,0,0.1-0.1,0.1c0.3-0.4,0.5-0.7,0.8-1.1l0,0c0.1-0.2,0.2-0.3,0.3-0.5c0-0.1,0.1-0.1,0.1-0.2C152.1,114.1,145.1,109.1,146,101.4
		z"/>
	<path class="st10" d="M149.7,73.1c-0.3,9.5,5.2,8.5,6.4,16.9c0-13.3-4.1-25.6-11.1-35.7C147.6,58.6,150.2,63.6,149.7,73.1z"/>
	<path class="st11" d="M147.3,86.4c-0.3-4.2-1-6.6-1.2-7.3l0,0c0,0,0,0,0-0.1v-0.1l0,0l0,0c-0.2-0.8-0.4-1.6-0.5-2.5
		c-0.5-5-0.7-13.6-4.5-17.3c-1.8-1.8-5.5-3.9-9-6l0,0c0,0,2,1.6,2.7,5.1c0.3,2.2,0.5,4.8,3,8.3c1.9,2.7,2.4,3.5,4.2,6.1
		c4.1,6,4.5,9.7,0.6,16.7c-3.9,7-8.3,12.8-4,25c1.9,5.5-1.8,11.7-5.6,15.6c-1.1,1.1-2.2,1.8-3.8,2.7l0,0l0,0
		c0.1-0.1,0.3-0.1,0.4-0.2c0.2-0.1,0.5-0.3,0.7-0.4c0.1-0.1,0.2-0.1,0.4-0.2c0.1-0.1,0.2-0.1,0.4-0.2c0.2-0.1,0.5-0.3,0.7-0.4
		c0.1-0.1,0.2-0.1,0.3-0.2c0.1-0.1,0.2-0.1,0.3-0.2l0,0c0.3-0.2,0.6-0.4,0.9-0.6c0.2-0.1,0.3-0.2,0.5-0.4c0.7-0.5,1.4-1.1,2-1.7
		c0.2-0.2,0.4-0.3,0.5-0.5c0.2-0.2,0.3-0.3,0.5-0.5c0.1-0.1,0.2-0.2,0.2-0.2l0.1-0.1c0.1-0.1,0.2-0.2,0.2-0.3
		c0.1-0.1,0.2-0.3,0.4-0.4c0.1-0.1,0.2-0.2,0.3-0.3c0.2-0.2,0.3-0.4,0.4-0.5c0.1-0.1,0.2-0.3,0.3-0.4c0.1-0.1,0.2-0.2,0.2-0.3
		c0,0,0,0,0-0.1c0.1-0.2,0.2-0.3,0.4-0.5c0.1-0.1,0.2-0.3,0.3-0.4c0.1-0.1,0.2-0.3,0.3-0.4c0.1-0.2,0.2-0.4,0.3-0.6
		c0.1-0.1,0.1-0.2,0.2-0.3c0.1-0.1,0.1-0.2,0.2-0.3c0.1-0.1,0.1-0.2,0.2-0.3c0.1-0.2,0.2-0.3,0.2-0.5c0.1-0.1,0.1-0.2,0.2-0.3
		c0.1-0.1,0.1-0.3,0.2-0.4c0.1-0.1,0.1-0.3,0.2-0.4c0.1-0.3,0.2-0.6,0.4-0.9c0,0,0,0,0-0.1c0-0.1,0.1-0.2,0.1-0.4
		c0-0.1,0.1-0.2,0.1-0.3c0.1-0.3,0.2-0.7,0.4-1c2.4-7.3-0.7-11,0.5-16.8C144.6,94,147.7,91.4,147.3,86.4z"/>
	
		<linearGradient id="SVGID_1_" gradientUnits="userSpaceOnUse" x1="114.7386" y1="112.5905" x2="156.1823" y2="112.5905" gradientTransform="matrix(1 0 0 -1 0 191.1754)">
		<stop  offset="0" style="stop-color:#D95026"/>
		<stop  offset="1" style="stop-color:#DEAD4E"/>
	</linearGradient>
	<path class="st12" d="M156.2,90.2c-1.2-8.6-6.7-7.4-6.4-16.9c0.3-9.5-2.1-14.7-4.7-18.8l0,0l0,0c-0.1-0.1-0.1-0.2-0.2-0.3
		c0,0,0,0,0-0.1c-3-3.9-8.8-3.4-16.3-10.1c-2.1-1.8-8.6-5.8-13.7-6.8c3.6,1.9,7,4,9.2,8.5c2.4,5.3,13.5,9.6,17.2,13.4
		s4,12.3,4.5,17.3c0.1,0.9,0.3,1.7,0.5,2.5l0,0l0,0v0.1c0,0,0,0,0,0.1c1.1,3.4,3.4,5.6,4.3,8.7c1,3.8-1.8,9.1-1.8,13
		c0,5.3,4,11.1,0.4,19.3C153.3,109.8,156.2,102.1,156.2,90.2z"/>
	<g>
		<path class="st13" d="M80.5,151.1c-0.1,0-0.2,0-0.2-0.1c-0.2-0.1-0.4-0.1-0.6-0.2c-0.1,0-0.2-0.1-0.3-0.1c-3.5-1.4-6.7-5.1-9-8.4
			c-0.5-0.6-0.8-1-0.9-1.1c-0.6-0.6-3.2-3.1-5.4-3.8c-5-1.5-6.9-1.2-11-2.2c-1.1-0.3-2.8-0.8-4.4-1.5
			C57.2,142.4,68.4,148.6,80.5,151.1L80.5,151.1z"/>
	</g>
	<path class="st14" d="M144.8,125.6c-0.7,0.7-4.3,4.1-6,5.1c-2.2,1.3-4.5,2.8-8,4c-6.8,2.4-13.4,0.7-21.7,2.3
		c-3.6,0.7-8.6,2.4-14.2,3.9c-5.6,1.4-10.8,0.9-13.7-0.5c-3.1-1.5-4-4.2-7.3-8.2c-3.4-4-8.3-5.6-13.3-6.6c-1.9-0.5-3.5-1.2-5.6-1.7
		c-4.8-1.5-10.7-3.7-14.8-8.8c-3-3.7-5.2-7.9-6.7-11.2c-1.5-3.4-2.2-5.7-2.2-5.8c1,8,3.6,15.4,7.2,22.1c0.3,0.4,2.8,4,5.8,6.9
		c1.1,0.9,2.3,1.9,3.7,3c4.6,2.7,7.3,3.1,12.1,4.1c4,0.8,6.4,2.1,8.7,5.6c2.2,3.5,6.2,9,10.6,10.7c0.1,0,0.2,0.1,0.3,0.1
		c0.4,0.2,0.6,0.2,0.9,0.3l0,0l0,0c0.5,0.2,1.2,0.3,1.9,0.5c7.6,0.8,14.4-3.4,18.8-5.8c4.4-2.4,8.3-3.2,14.3-3.1
		c6.2,0.1,10.4,1,14.8-1.7c0.7-0.5,1.4-1,2.1-1.6c5.2-4.1,9.7-9,13.4-14.5C145.5,125.1,145.2,125.4,144.8,125.6z"/>
	<g>
		<path class="st5" d="M127.9,102.7c-2.9,14.8-16.2,27.5-31.8,27.5c-0.3,0-0.5,0-0.8,0c-0.2,0-0.4,0-0.5,0c-0.1,0-0.2,0-0.3,0h-0.1
			c-0.2,0-0.4,0-0.6,0c-0.2,0-0.5,0-0.7-0.1c-0.2,0-0.4,0-0.6-0.1c-0.1,0-0.2,0-0.3,0c-0.4,0-0.8-0.1-1.1-0.2
			c-0.2,0-0.3-0.1-0.5-0.1c-0.2,0-0.3-0.1-0.5-0.1c-0.1,0-0.2,0-0.3-0.1c-0.2,0-0.4-0.1-0.6-0.1c-0.2,0-0.4-0.1-0.6-0.2
			c-0.2-0.1-0.5-0.1-0.7-0.2c-0.2,0-0.4-0.1-0.6-0.2l0,0c-0.1,0-0.2-0.1-0.3-0.1l0,0c-0.2,0-0.3-0.1-0.5-0.2h-0.1
			c-0.2-0.1-0.4-0.1-0.6-0.2c-0.2-0.1-0.4-0.2-0.7-0.2l0,0c-0.2-0.1-0.5-0.2-0.7-0.3l0,0c-0.2-0.1-0.4-0.2-0.6-0.2
			c-0.2-0.1-0.4-0.2-0.7-0.3c-0.2-0.1-0.4-0.2-0.6-0.3c-0.2-0.1-0.4-0.2-0.6-0.3c-0.2-0.1-0.3-0.2-0.5-0.3c-0.2-0.1-0.3-0.2-0.5-0.3
			c-1.6-0.9-3.3-2-4.7-3.2c-2.4-2-4.6-4.4-6.3-7c-0.3-0.4-0.6-0.9-0.8-1.3c-0.1-0.2-0.3-0.4-0.4-0.6c-0.7-1.1-1.3-2.3-1.9-3.6
			c-0.6-1.4-1.2-2.9-1.6-4.3l-0.3-1.1l-0.1-0.3l-0.1-0.3l-0.1-0.5c-0.2-0.7-0.3-1.5-0.5-2.2c-0.1-0.4-0.1-0.7-0.2-1.1
			c-0.1-0.4-0.1-0.7-0.2-1.1c-0.1-0.7-0.2-1.5-0.2-2.2L63,96c0-0.4,0-0.7,0-1.1v-1.1c0-0.4,0-0.7,0-1.1c0-1.5,0.2-3,0.4-4.5
			c0.5-3,1.4-5.8,2.9-8.5c0.7-1.3,1.5-2.5,2.5-3.7c1-1.1,2.1-2.1,3.3-3.2c2.2-1.9,4.5-3.9,6.8-5.7l0.8-0.7l0.2-0.2l0.2-0.2
			c0.1-0.1,0.3-0.2,0.4-0.3c0.5-0.4,1-0.9,1.5-1.4c0.3-0.4,0.6-0.7,0.9-1.1c-1.6,1.3-4.1,3.2-9.4,6.5c-8.6,5.5-18.5,12.4-19,26.9
			c-0.1,2.8,0.1,5.3,0.6,7.5l0,0c1.3,5.7,4.3,9.9,7.5,12.9c4,3.7,8.6,5.9,11.5,7.7c10.6,6.6,14.9,7.3,24.4,7.3
			c3.2,0,6.8-0.5,10.1-1.4c1.1-0.4,2-0.6,2.9-0.9l0,0l0,0c2.5-0.7,4.3-1.2,6.6-2.7c5.2-3.1,7.5-8.6,9-13.5
			C128.4,109.9,127.9,102.7,127.9,102.7z"/>
	</g>
	<g>
		<path class="st13" d="M55.1,104.2L55.1,104.2c-0.5-2.2-0.7-4.8-0.6-7.5c0.5-14.5,10.4-21.4,19-26.9c4.8-3.1,7.2-4.8,8.9-6.1
			c-2.1,1-4.4,1.9-6.6,3.1c-8.5,3.9-15.7,6.8-20.3,14.7c0,0.1-0.1,0.2-0.1,0.3l0,0c-2,4-3.2,8.4-3.2,13.2c0,9.1,4.2,17.1,10.8,22.3
			C59.4,114,56.5,109.9,55.1,104.2z"/>
	</g>
	<path class="st5" d="M48.7,116.4c0-0.1-0.1-0.2-0.1-0.2c-4-6.7-6.3-14.7-6.3-23c0-5.1,0.8-10,2.3-14.5C48.7,66.7,57.6,57,69,51.9
		c-18.1,5.8-31.3,22.8-31.3,43c0,1.6,0.1,3.2,0.2,4.7c0.1,1.4,0.4,2.9,0.6,4.3c1.9,8.6,7.6,15.6,15.3,19.5c2.9,1.4,6,2.4,9.3,2.9
		c0.1,0,0.2,0,0.3,0c0.5,0.1,1,0.1,1.4,0.1C58.8,126,52.2,122,48.7,116.4z"/>
</g>
</svg>
