<?xml version="1.0" encoding="utf-8"?>
<!-- Generator: Adobe Illustrator 25.2.3, SVG Export Plug-In . SVG Version: 6.00 Build 0)  -->
<svg version="1.1" id="Layer_1" xmlns="http://www.w3.org/2000/svg" xmlns:xlink="http://www.w3.org/1999/xlink" x="0px" y="0px"
	 viewBox="0 0 792 792" style="enable-background:new 0 0 792 792;" xml:space="preserve">
<style type="text/css">
	.st0{fill:#D85327;}
	.st1{fill:#397897;}
	.st2{fill:#E58630;}
	.st3{fill:#D1932A;}
	.st4{fill:#95C5BB;}
	.st5{fill:#5A9DB3;}
	.st6{fill:#D16428;}
	.st7{fill:#7FCFDA;}
	.st8{display:none;}
	.st9{display:inline;fill:#02587E;}
	.st10{display:inline;fill:#D85327;}
	.st11{display:inline;fill:none;}
	.st12{font-family:'Brother-1816-Bold';}
	.st13{font-size:120px;}
	.st14{letter-spacing:-1;}
	.st15{font-family:'Brother-1816-Medium-Italic';}
	.st16{fill:#02587E;}
	.st17{display:none;fill:#D85327;}
</style>
<g>
	<path class="st0" d="M410,366.5c0,0-18.6,34-38.7,55.4c-17.3,18.4-37.6,35.8-54.8,30.8c-8.1-2.4-8.3-15.4-11.8-18.5
		s-10,1.4-14.3-2.9c-4.3-4.3-1.8-11.9-1.8-11.9s-8.2,1.1-10-1.4s-0.4-14.5-5-17c-4.7-2.5-21.1,2.5-24.7-5.8
		c-3.6-8.3,3.2-21.7,3.2-33.3s-1.1-17-1.1-17s-1.8,2.2-5.4,2.5c-3.6,0.4,0.4-8-0.4-10.5c-0.7-2.5-10.9-10.4-24-30.8
		c-14.7-22.8-21.5-51.1-15.8-80.7c4.3-22.1,14-43.4,39-60.1c0,0-26.9,27.9-28.7,66.9c-1.1,23.2,4.4,40.9,22.6,60.4
		c13.7,14.8,15.1,17.1,23.3,20.3c5.7,2.2,17.2,1.2,21.1-0.7c0,0-10,12.7-12.6,19.2c-0.7,1.8,7.5,9.4,6.4,26s9.7,27.1,19.7,31.5
		c10,4.3,12.1,15.8,18.6,24.2c6.5,8.5,15.7,7.2,23.6,3.6C349.8,411.7,381.7,395.4,410,366.5z"/>
</g>
<g>
	<path class="st1" d="M371.3,137.4c0,0,13.9-30.1,34-51.5c17.3-18.4,37.6-35.8,54.8-30.8c8.1,2.4,8.3,15.4,11.8,18.5
		c3.5,3,10-1.4,14.3,2.9c4.3,4.3,1.8,11.9,1.8,11.9s8.2-1.1,10,1.4s0.4,14.5,5,17c4.7,2.5,21.1-2.5,24.7,5.8s-3.2,21.7-3.2,33.3
		c0,11.6,1.1,17,1.1,17s1.8-2.2,5.4-2.5s-0.4,8,0.4,10.5s10.9,10.4,24,30.8c14.7,22.8,21.5,51.1,15.8,80.7
		c-4.3,22.1-14,43.4-39,60.1c0,0,26.9-27.9,28.7-66.9c1.1-23.2-4.4-40.9-22.6-60.4c-13.7-14.8-15.1-17.1-23.3-20.3
		c-5.7-2.2-17.2-1.2-21.1,0.7c0,0,10-12.7,12.6-19.2c0.7-1.8-7.5-9.4-6.4-26s-9.7-27.1-19.7-31.5c-10-4.3-12.1-15.8-18.6-24.2
		c-6.5-8.5-15.7-7.2-23.6-3.6C426.8,96,399.6,108.4,371.3,137.4z"/>
</g>
<g>
	<path class="st0" d="M221.6,215.6c0,0,15-43.5,41.2-57.2c31.2-16.3,48.7-12.7,69.5-18.1c23.1-6,34-30.7,29.7-48
		c0,0,13.7,36.7,2.6,62.9c-10,23.6-22.5,32.2-58.4,32.5C266.6,188.2,235.2,194.6,221.6,215.6z"/>
</g>
<g>
	<path class="st2" d="M221.9,224.3c-0.9,1.2,13.9-23.8,46.9-28.3c36.6-5,65.9,5.2,86.3-13.6c0,0-0.4,42-29,49.6
		c-28.7,7.6-41.2-8.9-66.6-12.7C241.4,216.5,224.8,220.7,221.9,224.3z"/>
</g>
<g>
	<path class="st3" d="M261.7,223.7c0,0,8,7.4,12.1,12.9c4.2,5.5,9.6,10.4,14.8,14.4c9.7,7.3,27.4,11.7,46.5,8.4
		c18.1-3.2,27.9-0.2,32.8,7.7c4.9,7.8,3,20.6-4.9,31.6c0,0,21.5-5.6,27.5-24.1c1.6-5.1,3.1-11.1,1.7-18.3
		c-1.7-8.6-5.6-14.4-10.5-18.4c-9-7.3-22.6-8-33.9-6.3c-12.1,1.9-21.5,9-40.2,8C292.8,238.7,279.5,229.5,261.7,223.7z"/>
</g>
<g>
	<path class="st4" d="M342.7,226.4c0,0,11.4-2.4,19.3-2.2c11.7,0.3,20,2.8,27,10.8c4.6,5.3,7,15,8.7,22.8
		c1.8,8.5,7.1,19.6,19.6,22.6c0,0-9.6-7-3.4-35.3c3.9-17.8-1.4-29.8-9.8-35.8c-7.8-5.5-20-5.5-29.5-2c-6.8,2.5-11.3,5-18.5,9.5
		C349.9,220.7,342.7,226.4,342.7,226.4z"/>
</g>
<g>
	<path class="st5" d="M557.9,262.8c0,0,0,30-12.2,48.8c-12.2,18.8-15,27.1-39,43.4c-24.9,16.9-63.8,19.2-92.4,1.8
		c-20.9-12.6-30.2-36.4-19.7-55.4c8.6-15.6,22.5-17,30.8-13.4c15,6.5,14.7,21.7,14.7,21.7s-6.4-7.2-12.2-5.1
		c-10.7,4-9.5,21.2,12.9,28.2c31.2,9.8,68.1-2.9,92.4-28.2C549.9,287.5,557.9,262.8,557.9,262.8z"/>
</g>
<g>
	<path class="st1" d="M555.4,255.2c0,0-4.6,28.4-28.2,45.3c-18.6,13.3-41.8,12.8-56.9,9.1c-19.3-4.7-41.2-19.3-48.8-39.8
		c-8.9-24.4,3.2-53.1,24.6-54.8c15.3-1.2,21.1,10.4,20.8,18.7c-0.4,8.3-9.3,12.7-9.3,12.7s6.2-6.8,1.7-12.4c-2.8-3.5-8-2.8-10.7-0.3
		c-3.7,3.5-5.8,10.7-4.5,17.6c2.5,13.4,12.7,28.4,38.8,31.9C501.9,285.7,531.4,282.7,555.4,255.2z"/>
</g>
<g>
	<path class="st6" d="M247.4,160.3c0,0,10.4-26.1,58.1-36.1c42.4-8.9,51.8-41.1,51.8-41.1s3.3,41.4-32.9,51.5
		C305.2,139.9,282.8,137.8,247.4,160.3z"/>
</g>
<g>
	<path class="st7" d="M526.7,348.4c0,0-20.7,33.5-52.6,39.1c-28.4,5-40.5-2.1-53.1,0.6c-7.2,1.5-6.5,11.1-0.7,12
		c6.3,1,6.4-5.3,6.4-5.3s4.6,10-5.7,13.4c-9.7,3.2-24.1-8-15-24.6c5.8-10.6,17.7-12.4,37.6-9.7C467.3,377.1,492.9,376.1,526.7,348.4
		z"/>
</g>
<g class="st8">
	<path class="st9" d="M136,583.3c-26.8,0-45.5-19.3-45.5-44.4c0-24.9,18.9-44.4,45.1-44.4c12.6,0,21.7,3.6,26.5,5.8v16.8
		c-5.5-2.6-14-5.9-25.4-5.9c-17.5,0-28.1,12.5-28.1,27.6c0,15.4,10.6,27.8,27.3,27.8c4.1,0,8.6-0.7,11.5-1.7v-22.8h17.3v34.5
		C157.2,580.7,146.3,583.3,136,583.3z"/>
	<path class="st9" d="M231,548.4c0,3.2-0.4,6.1-0.5,7.2H192c0.7,8.1,6.8,12.7,16.3,12.7c8.3,0,17-2.5,20.3-4.4V579
		c-3.6,1.9-11.5,4.3-22,4.3c-20.2,0-32.9-13.2-32.9-31.3c0-18,13-31.3,29.8-31.3C221.7,520.7,231,533.7,231,548.4z M203.5,534.7
		c-7,0-11,5.5-11.5,11.9h22.2C214.4,540.1,210.7,534.7,203.5,534.7z"/>
	<path class="st9" d="M261.3,522.3l0.5,6.8c0.1,2.1-0.4,3.6-0.5,4.2h0.2c2.5-5.5,10.2-12.6,20.2-12.6c13.3,0,20.4,8.2,20.4,23.8
		v37.1h-17.6v-34.2c0-5.8-1.6-10.7-8-10.7c-8.2,0-13.7,6.4-13.7,15.3v29.5h-17.6v-59.3H261.3z"/>
	<path class="st9" d="M370.1,548.4c0,3.2-0.4,6.1-0.5,7.2h-38.5c0.7,8.1,6.8,12.7,16.3,12.7c8.3,0,17-2.5,20.3-4.4V579
		c-3.6,1.9-11.5,4.3-22,4.3c-20.2,0-32.9-13.2-32.9-31.3c0-18,13-31.3,29.8-31.3C360.8,520.7,370.1,533.7,370.1,548.4z M342.6,534.7
		c-7,0-11,5.5-11.5,11.9h22.2C353.5,540.1,349.8,534.7,342.6,534.7z"/>
	<path class="st9" d="M382.2,522.3h16l0.4,5.8c0,1.8,0,3.2,0.1,3.9c3.6-6.4,9.8-11.4,17.4-11.4c1.9,0,3.5,0.2,3.8,0.4v17.3
		c-0.2-0.1-1.6-0.7-3.9-0.7c-8.9,0-16.2,7.9-16.2,18.7v25.3h-17.5V522.3z"/>
	<path class="st9" d="M429.5,524.7c3.3-1.5,11.2-4,21.5-4c18.1,0,27.1,8.8,27.1,23.6v37.4h-15.9l-0.4-5.5c-0.1-2.5,0.2-4.2,0.2-4.2
		H462c-1.5,3.6-7.4,11.3-18.2,11.3c-10.1,0-18.7-5.9-18.7-18c0-14.5,14.6-21.6,35.7-18.6v-1.4c0-7.1-4.8-9.7-12.6-9.7
		c-7.4,0-14.8,2.6-18.7,5.1V524.7z M460.3,555.9c-13.2-2.1-18.7,2-18.7,7.6c0,3.8,2.6,6.3,6.7,6.3
		C455.1,569.8,460.3,563.5,460.3,555.9z"/>
	<path class="st9" d="M495.9,522.3v-17.8h17v17.8h15.6v13.9h-15.6V560c0,6.3,3.6,8.4,7.5,8.4c3.6,0,7.4-1.2,10-2.5v14.6
		c-2.6,1.3-8,2.7-14.9,2.7c-9.3,0-18.3-4.4-19.6-16.8c-0.1-1.9-0.4-3.9-0.4-6.1v-24.2h-8.1v-13.9H495.9z"/>
	<path class="st9" d="M549.2,495.7c5.9,0,9.8,3.7,9.8,9.6c0,5.7-3.9,9.5-9.8,9.5c-6,0-9.8-3.8-9.8-9.5
		C539.5,499.4,543.2,495.7,549.2,495.7z M558.1,522.3v59.3h-17.6v-59.3H558.1z"/>
	<path class="st9" d="M632.6,552c0,18-13.3,31.3-31.4,31.3c-18.1,0-31.2-13.3-31.2-31.3c0-18,13.2-31.3,31.2-31.3
		C619.4,520.7,632.6,533.9,632.6,552z M616.1,552c0-9.8-6.5-16.4-14.8-16.4c-8.3,0-14.7,6.5-14.7,16.4c0,9.8,6.3,16.4,14.7,16.4
		C609.6,568.3,616.1,561.8,616.1,552z"/>
	<path class="st9" d="M660.6,522.3l0.5,6.8c0.1,2.1-0.4,3.6-0.5,4.2h0.2c2.5-5.5,10.2-12.6,20.2-12.6c13.3,0,20.4,8.2,20.4,23.8
		v37.1h-17.6v-34.2c0-5.8-1.6-10.7-8-10.7c-8.2,0-13.7,6.4-13.7,15.3v29.5h-17.6v-59.3H660.6z"/>
	<path class="st10" d="M147.8,737.7l4.7-30.6h-57l56.8-92.3h13L116,695.9h38.5l5.2-33.5h11.7l-5.2,33.5h17.4l-1.9,11.3h-17.4
		l-4.7,30.6H147.8z"/>
	<path class="st9" d="M218.7,706.5v-85.4h54.4v15.3h-36.3v19.5h30.8v14.7h-30.8v20.6h38.1v15.3H218.7z"/>
	<path class="st9" d="M345.1,732.6h-17.5V704c0-3.3,0.4-5,0.4-5h-0.2c-3.2,5-9.9,9.1-18.4,9.1c-14.7,0-26.9-11.7-26.9-31.3
		c0-19.5,12.2-31.3,27.4-31.3c8.6,0,16.3,4.9,19,10.7h0.2c0.1,0-0.4-1.7-0.2-4l0.4-5h16V732.6z M327,676.9c0-10.9-7-16.4-14.1-16.4
		c-8.1,0-14,6.6-14,16.4c0,9.8,5.9,16.4,14,16.4C320,693.2,327,687.8,327,676.9z"/>
	<path class="st9" d="M401.2,706.5l-0.5-6.8c-0.1-2.1,0.2-3.6,0.5-4.2h-0.2c-2.5,5.5-10.2,12.6-20,12.6c-13.3,0-20.4-8.2-20.4-23.8
		v-37.1h17.6v34.2c0,5.9,1.6,10.7,8,10.7c8,0,13.5-6.4,13.5-15.3v-29.5h17.5v59.3H401.2z"/>
	<path class="st9" d="M433.3,649.6c3.3-1.5,11.2-4,21.5-4c18.1,0,27.1,8.8,27.1,23.6v37.4h-15.9l-0.4-5.5c-0.1-2.5,0.2-4.2,0.2-4.2
		h-0.2c-1.5,3.6-7.4,11.3-18.2,11.3c-10.1,0-18.7-5.9-18.7-18c0-14.5,14.6-21.6,35.7-18.6v-1.4c0-7.1-4.8-9.7-12.6-9.7
		c-7.4,0-14.8,2.6-18.7,5.1V649.6z M464.1,680.8c-13.2-2.1-18.7,2-18.7,7.6c0,3.8,2.6,6.3,6.7,6.3
		C458.9,694.7,464.1,688.4,464.1,680.8z"/>
	<path class="st9" d="M496.9,621.1h17.5v64.5c0,5.5,2.4,7.4,5.9,7.4c2.3,0,4.8-0.7,5.9-1.2v14.6c-1.5,0.7-5.6,1.8-11.2,1.8
		c-10,0-18.1-5.1-18.1-18.6V621.1z"/>
	<path class="st9" d="M545.2,620.6c5.9,0,9.8,3.7,9.8,9.6c0,5.7-3.9,9.5-9.8,9.5c-6,0-9.8-3.8-9.8-9.5
		C535.4,624.3,539.2,620.6,545.2,620.6z M554,647.2v59.3h-17.6v-59.3H554z"/>
	<path class="st9" d="M571.3,647.2v-17.8h17v17.8h15.6v13.9h-15.6v23.8c0,6.3,3.6,8.4,7.5,8.4c3.6,0,7.4-1.2,10-2.5v14.6
		c-2.6,1.3-8,2.7-14.9,2.7c-9.3,0-18.3-4.4-19.6-16.8c-0.1-1.9-0.4-3.9-0.4-6.1v-24.2h-8.1v-13.9H571.3z"/>
	<path class="st9" d="M610.8,717.3c1.1,0.5,3.6,1.2,6.9,1.2c7.8,0,11.7-5.2,14.9-12l-24.2-59.3h19.3l6.8,20.6
		c2.5,7.2,4.9,14.6,6.9,22.1c1.5-3.3,5.4-17.7,7-22.1l6.8-20.6h19L651.6,706c-6.7,17.6-15.5,26.3-27.8,27.8
		c-2.7,0.4-5.2,0.4-7.4,0.1c-2.4-0.2-4.6-0.6-5.5-1.1V717.3z"/>
</g>
<g class="st8">
	<rect x="84.8" y="495.4" class="st11" width="635.2" height="99"/>
	<text transform="matrix(1 0 0 1 84.7504 580.571)" class="st9 st12 st13 st14">Génération</text>
	<rect x="310.4" y="629.8" class="st11" width="454.1" height="99"/>
	<text transform="matrix(1 0 0 1 380.7368 715.0063)" class="st9 st12 st13 st14">l’Égalité</text>
	<rect x="12.5" y="629.8" class="st11" width="269.4" height="99"/>
	<text transform="matrix(1 0 0 1 45.936 715.0063)" class="st10 st15 st13 st14">pour</text>
</g>
<g>
	<path class="st16" d="M136.8,583.3c-27.3,0-46.3-19.5-46.3-44.7c0-25.1,19.2-44.7,45.9-44.7c12.8,0,22.1,3.6,27,5.9v17
		c-5.6-2.6-14.2-6-25.8-6c-17.8,0-28.6,12.6-28.6,27.9c0,15.5,10.8,28,27.7,28c4.2,0,8.7-0.7,11.7-1.7v-23h17.6v34.8
		C158.4,580.7,147.3,583.3,136.8,583.3z"/>
	<path class="st16" d="M232.4,548.2c0,3.2-0.4,6.1-0.5,7.3h-39.2c0.7,8.1,6.9,12.8,16.6,12.8c8.5,0,17.3-2.5,20.7-4.4V579
		c-3.7,1.9-11.7,4.3-22.4,4.3c-20.6,0-33.5-13.3-33.5-31.6c0-18.2,13.3-31.6,30.4-31.6C223,520.2,232.4,533.3,232.4,548.2z
		 M204.4,534.3c-7.2,0-11.2,5.5-11.7,12h22.6C215.5,539.8,211.7,534.3,204.4,534.3z M204.7,493.9h22.7l-17.1,20.7h-15.7L204.7,493.9
		z"/>
	<path class="st16" d="M261.9,521.9l0.5,6.8c0.1,2.2-0.4,3.6-0.5,4.2h0.2c2.5-5.5,10.4-12.7,20.6-12.7c13.5,0,20.8,8.2,20.8,24v37.4
		h-17.9v-34.4c0-5.9-1.7-10.8-8.1-10.8c-8.4,0-14,6.5-14,15.4v29.8h-17.9v-59.8H261.9z"/>
	<path class="st16" d="M371.6,548.2c0,3.2-0.4,6.1-0.5,7.3h-39.2c0.7,8.1,6.9,12.8,16.6,12.8c8.5,0,17.3-2.5,20.7-4.4V579
		c-3.7,1.9-11.7,4.3-22.4,4.3c-20.6,0-33.5-13.3-33.5-31.6c0-18.2,13.3-31.6,30.4-31.6C362.1,520.2,371.6,533.3,371.6,548.2z
		 M343.6,534.3c-7.2,0-11.2,5.5-11.7,12h22.6C354.7,539.8,350.9,534.3,343.6,534.3z M343.8,493.9h22.7l-17.1,20.7h-15.7L343.8,493.9
		z"/>
	<path class="st16" d="M382.6,521.9h16.3l0.4,5.9c0,1.8,0,3.2,0.1,3.9c3.7-6.5,9.9-11.5,17.7-11.5c1.9,0,3.6,0.2,3.8,0.4V538
		c-0.2-0.1-1.7-0.7-3.9-0.7c-9.1,0-16.5,8-16.5,18.9v25.5h-17.8V521.9z"/>
	<path class="st16" d="M429.5,524.2c3.3-1.6,11.4-4.1,21.9-4.1c18.4,0,27.6,8.8,27.6,23.8v37.7h-16.1l-0.4-5.5
		c-0.1-2.5,0.2-4.2,0.2-4.2h-0.2c-1.6,3.6-7.5,11.4-18.5,11.4c-10.3,0-19-6-19-18.2c0-14.6,14.8-21.8,36.3-18.8v-1.4
		c0-7.2-4.9-9.8-12.8-9.8c-7.5,0-15.1,2.6-19,5.1V524.2z M460.9,555.7c-13.4-2.2-19,2-19,7.7c0,3.8,2.6,6.3,6.8,6.3
		C455.6,569.7,460.9,563.3,460.9,555.7z"/>
	<path class="st16" d="M495.9,521.9v-17.9h17.3v17.9h15.9v14h-15.9v24c0,6.3,3.7,8.5,7.7,8.5c3.7,0,7.5-1.2,10.2-2.5v14.7
		c-2.6,1.3-8.1,2.7-15.2,2.7c-9.4,0-18.6-4.4-20-17c-0.1-1.9-0.4-3.9-0.4-6.1v-24.4h-8.2v-14H495.9z"/>
	<path class="st16" d="M549,495.1c6,0,9.9,3.7,9.9,9.7c0,5.7-3.9,9.6-9.9,9.6c-6.1,0-9.9-3.8-9.9-9.6
		C539,498.8,542.9,495.1,549,495.1z M557.9,521.9v59.8H540v-59.8H557.9z"/>
	<path class="st16" d="M632.6,551.7c0,18.2-13.5,31.6-31.9,31.6c-18.4,0-31.8-13.4-31.8-31.6s13.4-31.6,31.8-31.6
		C619.1,520.2,632.6,533.6,632.6,551.7z M615.8,551.7c0-9.9-6.6-16.5-15.1-16.5c-8.5,0-14.9,6.6-14.9,16.5c0,9.9,6.5,16.5,14.9,16.5
		C609.2,568.2,615.8,561.7,615.8,551.7z"/>
	<path class="st16" d="M659.9,521.9l0.5,6.8c0.1,2.2-0.4,3.6-0.5,4.2h0.2c2.5-5.5,10.4-12.7,20.6-12.7c13.5,0,20.8,8.2,20.8,24v37.4
		h-17.9v-34.4c0-5.9-1.7-10.8-8.1-10.8c-8.4,0-14,6.5-14,15.4v29.8h-17.9v-59.8H659.9z"/>
</g>
<g>
	<g>
		<path class="st16" d="M327.9,630h17.8v65c0,5.5,2.4,7.4,6,7.4c2.4,0,4.9-0.7,6-1.2v14.7c-1.6,0.7-5.7,1.8-11.4,1.8
			c-10.2,0-18.4-5.1-18.4-18.8V630z"/>
		<path class="st16" d="M373.5,656.4h-14.5l9.3-34.9h18.2L373.5,656.4z"/>
		<path class="st16" d="M399.5,716V630h55.3v15.4h-36.9V665h31.3v14.8h-31.3v20.8h38.7V716H399.5z M428.5,598.4h22l-18.4,24.3h-14.5
			L428.5,598.4z"/>
		<path class="st16" d="M497.6,705.9c16,2,23.8,6.6,23.8,17.6c0,12.4-12.9,19.7-31.4,19.7c-16.5,0-28.7-5.4-28.7-15.8
			c0-6.7,6.5-12.1,15.1-14c-4.9-0.7-8.6-3.6-8.6-8.1c0-3.7,3.2-7.5,9.4-9.6c-8.4-3.2-14-10.2-14-19.2c0-13.3,11.6-21.9,25.9-21.9
			c3.6,0,7.2,0.6,10.3,1.7h22.1v12.7h-6.9c-1.9,0-2.3-0.4-2.7-0.4c1.7,2.2,2.7,4.8,2.7,7.9c0,11.6-8.8,19.4-20.7,20.9
			c-5,0.8-9,2.3-9,4.1C484.9,703.8,489.3,704.7,497.6,705.9z M503.7,724.8c0-4.4-4.3-7.3-14-7.3c-6.7,0-11.5,3.3-11.5,7.4
			c0,4.7,5.1,7.1,12.2,7.1C498,731.9,503.7,729.1,503.7,724.8z M498.9,676.8c0-5.5-3.8-9.7-9.8-9.7c-5.9,0-9.7,4.2-9.7,9.7
			s3.8,9.6,9.7,9.6C495.1,686.4,498.9,682.3,498.9,676.8z"/>
		<path class="st16" d="M530,658.7c3.3-1.6,11.4-4.1,21.9-4.1c18.4,0,27.6,8.8,27.6,23.8V716h-16.1l-0.4-5.5
			c-0.1-2.5,0.2-4.2,0.2-4.2H563c-1.6,3.6-7.5,11.4-18.5,11.4c-10.3,0-19-6-19-18.2c0-14.6,14.8-21.8,36.3-18.8v-1.4
			c0-7.2-4.9-9.8-12.8-9.8c-7.5,0-15.1,2.6-19,5.1V658.7z M561.3,690.1c-13.4-2.2-19,2-19,7.7c0,3.8,2.6,6.3,6.8,6.3
			C556.1,704.1,561.3,697.7,561.3,690.1z"/>
		<path class="st16" d="M593.5,630h17.8v65c0,5.5,2.4,7.4,6,7.4c2.4,0,4.9-0.7,6-1.2v14.7c-1.6,0.7-5.7,1.8-11.4,1.8
			c-10.2,0-18.4-5.1-18.4-18.8V630z"/>
		<path class="st16" d="M641.4,629.5c6,0,9.9,3.7,9.9,9.7c0,5.7-3.9,9.6-9.9,9.6c-6.1,0-9.9-3.8-9.9-9.6
			C631.5,633.2,635.3,629.5,641.4,629.5z M650.4,656.3V716h-17.9v-59.8H650.4z"/>
		<path class="st16" d="M666.8,656.3v-17.9h17.3v17.9H700v14h-15.9v24c0,6.3,3.7,8.5,7.7,8.5c3.7,0,7.5-1.2,10.2-2.5V715
			c-2.6,1.3-8.1,2.7-15.2,2.7c-9.4,0-18.6-4.4-20-17c-0.1-1.9-0.4-3.9-0.4-6.1v-24.4h-8.2v-14H666.8z"/>
		<path class="st16" d="M764.6,682.6c0,3.2-0.4,6.1-0.5,7.3h-39.2c0.7,8.1,6.9,12.8,16.6,12.8c8.5,0,17.3-2.5,20.7-4.4v15.2
			c-3.7,1.9-11.7,4.3-22.4,4.3c-20.6,0-33.5-13.3-33.5-31.6c0-18.2,13.3-31.6,30.4-31.6C755.1,654.6,764.6,667.7,764.6,682.6z
			 M736.6,668.7c-7.2,0-11.2,5.5-11.7,12h22.6C747.7,674.2,743.9,668.7,736.6,668.7z M736.8,628.3h22.7L742.4,649h-15.7L736.8,628.3
			z"/>
	</g>
	<g>
		<path class="st0" d="M41.1,656.3h13.4l-0.6,5.6c-0.4,2.5-1.1,4.2-1,4.2h0.2c3.8-6,12.8-11.4,22-11.4c13.9,0,23.4,10.3,23.4,26.2
			c0,22-15.7,36.7-33,36.7c-9.2,0-15.9-4.9-18.1-10.4h-0.2c0,0,0.1,1.7-0.5,4.9L42,742.3H27.4L41.1,656.3z M84.5,682.8
			c0-9.2-5.1-15.7-13.6-15.7c-9.1,0-19.8,7.4-19.8,22.4c0,10.5,6.7,15.7,13.7,15.7C75.9,705.2,84.5,695.6,84.5,682.8z"/>
		<path class="st0" d="M170.1,681.6c0,20.2-16.5,36-36.7,36c-16.1,0-26.8-11.4-26.8-26.9c0-20.2,16.7-36,36.7-36
			C159.5,654.7,170.1,666.1,170.1,681.6z M156.1,683c0-9.4-5.9-15.9-14.7-15.9c-11.1,0-20.8,9.3-20.8,22c0,9.6,6,16,14.7,16
			C146.6,705.2,156.1,695.8,156.1,683z"/>
		<path class="st0" d="M218.6,716l0.8-7.5c0.4-2.4,1-3.9,1.2-4.4h-0.2c-3.2,5.5-12.3,13.5-23.4,13.5c-14,0-19.2-8.5-16.7-23.9
			l5.9-37.4h14.6l-5.5,34.9c-1.1,7.1-0.5,13.1,7.7,13.1c9.7,0,17.8-7.9,19.5-18.4l4.7-29.6h14.5L232,716H218.6z"/>
		<path class="st0" d="M258.9,656.3h13.4c-0.2,2.4-1.6,8.1-1.6,10.4c0,0.2,0,0.8,0,0.8c4.9-7.3,12-12.8,20.2-12.8
			c1.8,0,3.3,0.2,3.7,0.4l-2.3,14.1c-0.4,0-1.6-0.5-3.5-0.5c-10.3,0-19,10.4-20.8,21.6L264,716h-14.6L258.9,656.3z"/>
	</g>
</g>
<g class="st8">
	<path class="st9" d="M136,583.3c-26.8,0-45.5-19.3-45.5-44.4c0-24.9,18.9-44.4,45.1-44.4c12.6,0,21.7,3.6,26.5,5.8v16.8
		c-5.5-2.6-14-5.9-25.4-5.9c-17.5,0-28.1,12.5-28.1,27.6c0,15.4,10.6,27.8,27.3,27.8c4.1,0,8.6-0.7,11.5-1.7v-22.8h17.3v34.5
		C157.2,580.7,146.3,583.3,136,583.3z"/>
	<path class="st9" d="M231,548.4c0,3.2-0.4,6.1-0.5,7.2H192c0.7,8.1,6.8,12.7,16.3,12.7c8.3,0,17-2.5,20.3-4.4V579
		c-3.6,1.9-11.5,4.3-22,4.3c-20.2,0-32.9-13.2-32.9-31.3c0-18,13-31.3,29.8-31.3C221.7,520.7,231,533.7,231,548.4z M203.5,534.7
		c-7,0-11,5.5-11.5,11.9h22.2C214.4,540.1,210.7,534.7,203.5,534.7z"/>
	<path class="st9" d="M261.3,522.3l0.5,6.8c0.1,2.1-0.4,3.6-0.5,4.2h0.2c2.5-5.5,10.2-12.6,20.2-12.6c13.3,0,20.4,8.2,20.4,23.8
		v37.1h-17.6v-34.2c0-5.8-1.6-10.7-8-10.7c-8.2,0-13.7,6.4-13.7,15.3v29.5h-17.6v-59.3H261.3z"/>
	<path class="st9" d="M370.1,548.4c0,3.2-0.4,6.1-0.5,7.2h-38.5c0.7,8.1,6.8,12.7,16.3,12.7c8.3,0,17-2.5,20.3-4.4V579
		c-3.6,1.9-11.5,4.3-22,4.3c-20.2,0-32.9-13.2-32.9-31.3c0-18,13-31.3,29.8-31.3C360.8,520.7,370.1,533.7,370.1,548.4z M342.6,534.7
		c-7,0-11,5.5-11.5,11.9h22.2C353.5,540.1,349.8,534.7,342.6,534.7z"/>
	<path class="st9" d="M382.2,522.3h16l0.4,5.8c0,1.8,0,3.2,0.1,3.9c3.6-6.4,9.8-11.4,17.4-11.4c1.9,0,3.5,0.2,3.8,0.4v17.3
		c-0.2-0.1-1.6-0.7-3.9-0.7c-8.9,0-16.2,7.9-16.2,18.7v25.3h-17.5V522.3z"/>
	<path class="st9" d="M429.5,524.7c3.3-1.5,11.2-4,21.5-4c18.1,0,27.1,8.8,27.1,23.6v37.4h-15.9l-0.4-5.5c-0.1-2.5,0.2-4.2,0.2-4.2
		H462c-1.5,3.6-7.4,11.3-18.2,11.3c-10.1,0-18.7-5.9-18.7-18c0-14.5,14.6-21.6,35.7-18.6v-1.4c0-7.1-4.8-9.7-12.6-9.7
		c-7.4,0-14.8,2.6-18.7,5.1V524.7z M460.3,555.9c-13.2-2.1-18.7,2-18.7,7.6c0,3.8,2.6,6.3,6.7,6.3
		C455.1,569.8,460.3,563.5,460.3,555.9z"/>
	<path class="st9" d="M495.9,522.3v-17.8h17v17.8h15.6v13.9h-15.6V560c0,6.3,3.6,8.4,7.5,8.4c3.6,0,7.4-1.2,10-2.5v14.6
		c-2.6,1.3-8,2.7-14.9,2.7c-9.3,0-18.3-4.4-19.6-16.8c-0.1-1.9-0.4-3.9-0.4-6.1v-24.2h-8.1v-13.9H495.9z"/>
	<path class="st9" d="M549.2,495.7c5.9,0,9.8,3.7,9.8,9.6c0,5.7-3.9,9.5-9.8,9.5c-6,0-9.8-3.8-9.8-9.5
		C539.5,499.4,543.2,495.7,549.2,495.7z M558.1,522.3v59.3h-17.6v-59.3H558.1z"/>
	<path class="st9" d="M632.6,552c0,18-13.3,31.3-31.4,31.3c-18.1,0-31.2-13.3-31.2-31.3s13.2-31.3,31.2-31.3
		C619.4,520.7,632.6,533.9,632.6,552z M616.1,552c0-9.8-6.5-16.4-14.8-16.4c-8.3,0-14.7,6.5-14.7,16.4s6.3,16.4,14.7,16.4
		C609.6,568.3,616.1,561.8,616.1,552z"/>
	<path class="st9" d="M660.6,522.3l0.5,6.8c0.1,2.1-0.4,3.6-0.5,4.2h0.2c2.5-5.5,10.2-12.6,20.2-12.6c13.3,0,20.4,8.2,20.4,23.8
		v37.1h-17.6v-34.2c0-5.8-1.6-10.7-8-10.7c-8.2,0-13.7,6.4-13.7,15.3v29.5h-17.6v-59.3H660.6z"/>
</g>
<path class="st17" d="M147.8,737.7l4.7-30.6h-57l56.8-92.3h13L116,695.9h38.5l5.2-33.5h11.7l-5.2,33.5h17.4l-1.9,11.3h-17.4
	l-4.7,30.6H147.8z"/>
<g class="st8">
	<path class="st9" d="M218.7,706.5v-85.4h54.4v15.3h-36.3v19.5h30.8v14.7h-30.8v20.6h38.1v15.3H218.7z"/>
	<path class="st9" d="M345.1,732.6h-17.5V704c0-3.3,0.4-5,0.4-5h-0.2c-3.2,5-9.9,9.1-18.4,9.1c-14.7,0-26.9-11.7-26.9-31.3
		c0-19.5,12.2-31.3,27.4-31.3c8.6,0,16.3,4.9,19,10.7h0.2c0.1,0-0.4-1.7-0.2-4l0.4-5h16V732.6z M327,676.9c0-10.9-7-16.4-14.1-16.4
		c-8.1,0-14,6.6-14,16.4c0,9.8,5.9,16.4,14,16.4C320,693.2,327,687.8,327,676.9z"/>
	<path class="st9" d="M401.2,706.5l-0.5-6.8c-0.1-2.1,0.2-3.6,0.5-4.2h-0.2c-2.5,5.5-10.2,12.6-20,12.6c-13.3,0-20.4-8.2-20.4-23.8
		v-37.1h17.6v34.2c0,5.9,1.6,10.7,8,10.7c8,0,13.5-6.4,13.5-15.3v-29.5h17.5v59.3H401.2z"/>
	<path class="st9" d="M433.3,649.6c3.3-1.5,11.2-4,21.5-4c18.1,0,27.1,8.8,27.1,23.6v37.4h-15.9l-0.4-5.5c-0.1-2.5,0.2-4.2,0.2-4.2
		h-0.2c-1.5,3.6-7.4,11.3-18.2,11.3c-10.1,0-18.7-5.9-18.7-18c0-14.5,14.6-21.6,35.7-18.6v-1.4c0-7.1-4.8-9.7-12.6-9.7
		c-7.4,0-14.8,2.6-18.7,5.1V649.6z M464.1,680.8c-13.2-2.1-18.7,2-18.7,7.6c0,3.8,2.6,6.3,6.7,6.3
		C458.9,694.7,464.1,688.4,464.1,680.8z"/>
	<path class="st9" d="M496.9,621.1h17.5v64.5c0,5.5,2.4,7.4,5.9,7.4c2.3,0,4.8-0.7,5.9-1.2v14.6c-1.5,0.7-5.6,1.8-11.2,1.8
		c-10,0-18.1-5.1-18.1-18.6V621.1z"/>
	<path class="st9" d="M545.2,620.6c5.9,0,9.8,3.7,9.8,9.6c0,5.7-3.9,9.5-9.8,9.5c-6,0-9.8-3.8-9.8-9.5
		C535.4,624.3,539.2,620.6,545.2,620.6z M554,647.2v59.3h-17.6v-59.3H554z"/>
	<path class="st9" d="M571.3,647.2v-17.8h17v17.8h15.6v13.9h-15.6v23.8c0,6.3,3.6,8.4,7.5,8.4c3.6,0,7.4-1.2,10-2.5v14.6
		c-2.6,1.3-8,2.7-14.9,2.7c-9.3,0-18.3-4.4-19.6-16.8c-0.1-1.9-0.4-3.9-0.4-6.1v-24.2h-8.1v-13.9H571.3z"/>
	<path class="st9" d="M610.8,717.3c1.1,0.5,3.6,1.2,6.9,1.2c7.8,0,11.7-5.2,14.9-12l-24.2-59.3h19.3l6.8,20.6
		c2.5,7.2,4.9,14.6,6.9,22.1c1.5-3.3,5.4-17.7,7-22.1l6.8-20.6h19L651.6,706c-6.7,17.6-15.5,26.3-27.8,27.8
		c-2.7,0.4-5.2,0.4-7.4,0.1c-2.4-0.2-4.6-0.6-5.5-1.1V717.3z"/>
</g>
</svg>
