<?xml version="1.0" encoding="utf-8"?>
<!-- Generator: Adobe Illustrator 25.0.0, SVG Export Plug-In . SVG Version: 6.00 Build 0)  -->
<svg version="1.1" id="Layer_2_1_" xmlns="http://www.w3.org/2000/svg" xmlns:xlink="http://www.w3.org/1999/xlink" x="0px" y="0px"
	 viewBox="0 0 2966.3 1177.3" style="enable-background:new 0 0 2966.3 1177.3;" xml:space="preserve">
<style type="text/css">
	.st0{fill:#377797;}
	.st1{fill:#A6BC9D;}
	.st2{fill:none;}
	.st3{fill:#D29329;}
	.st4{fill:#D06328;}
	.st5{fill:#DA5027;}
	.st6{fill:#FFFFFF;}
	.st7{fill:#5A9EB5;}
	.st8{fill:#FFFFFF;stroke:#FFFFFF;stroke-width:4;stroke-miterlimit:10;}
	.st9{fill:#D6AD6B;}
	.st10{fill:#B98B51;}
	.st11{fill:#00587F;}
	.st12{fill:#95C5BB;}
	.st13{fill:#F8E7A2;}
	.st14{fill:#BFA865;}
	.st15{fill:url(#SVGID_1_);}
	.st16{fill:#80D0DB;}
</style>
<g>
	<path class="st0" d="M1442.9,233.3l-66.2-67.7c-1.7-1.6-3.6-3.5-5.5-5v71h-19.5v-115h0.6l66,67.6l5.5,5.3v-71.2h19.5v114.9h-0.4
		V233.3z"/>
	<path class="st0" d="M1468.7,156.6c4.4-2.4,14.9-5.7,28.3-5.7c23.3,0,34.7,11.2,34.7,30.8v49.8h-17.4l-0.3-8.2
		c-0.2-3.6,0.3-6,0.3-6h-0.3c-1.4,3.5-9.7,16.2-25.8,16.2c-14,0-25-8.3-25-23.4c0-19.3,19-28.8,49.5-24.5v-3
		c0-11.5-7.2-15.4-18.7-15.4c-10.4,0-20.3,3.5-25.3,6.6L1468.7,156.6L1468.7,156.6z M1512.2,197c-21.5-3.5-30.6,2.7-30.6,11.6
		c0,6,4.2,10.1,10.8,10.1C1503.8,218.7,1512.2,208,1512.2,197z"/>
	<path class="st0" d="M1558.6,153v-23.6h18.5V153h22.3v15.2h-22.3v36c0,9.7,5,13,10.8,13c4.9,0,10.2-1.6,14.1-3.3v16
		c-3.6,1.9-10.4,3.6-18.9,3.6c-11.9,0-23.9-5.8-24.8-22.8c0-2.5-0.2-5.2-0.2-7.9v-34.7h-11.9v-15.2L1558.6,153L1558.6,153z"/>
	<path class="st0" d="M1630.1,119.5c6.6,0,11.2,4.2,11.2,10.8c0,6.4-4.6,10.7-11.2,10.7c-6.8,0-11.2-4.2-11.2-10.7
		C1619,123.7,1623.4,119.5,1630.1,119.5z M1639.7,153v78.6h-19.2V153H1639.7z"/>
	<path class="st0" d="M1734.2,153l-35.1,80h-11.3l-35.1-80h20.1c7.1,17.6,15.2,36.9,20.6,52.3c2.5-6.6,6.1-17,9.4-25.3l11.2-27
		H1734.2z"/>
	<path class="st0" d="M1815,187.7c0,3.6-0.5,7.1-0.5,8.5h-54.9c0.5,13.2,9.9,21.1,24.4,21.1c11,0,22.5-3.3,27.8-6.6v16.8
		c-5.5,3-16,6.1-29.2,6.1c-26.1,0-42.9-17.1-42.9-41.3c0-23.7,17.1-41.3,39.3-41.3C1802.5,150.9,1815,168.2,1815,187.7z
		 M1778.7,166.3c-11.3,0-18.1,8.8-19,18.7h36.8C1796.6,175.1,1790.4,166.3,1778.7,166.3z"/>
	<path class="st0" d="M1886.6,118.4l16.7,42.8c4.1,10.5,7.7,20.7,10.2,28.5c2.4-6.1,6.1-15.4,10.1-24.7l6.9-16.5l12.3-28.9h0.6
		c10.4,24,22.8,52.3,29.2,70.1c5.3-15.1,18.5-49.2,26.9-71.2h21.8L1973,233.4h-0.6l-23.3-55.8c-2-5-4.4-10.4-6.1-15.2l-6,15.2
		l-23.4,55.8h-0.6l-48.1-114.9h21.7V118.4z"/>
	<path class="st0" d="M2095.5,192.3c0,23.7-17.3,41.3-41.2,41.3c-23.7,0-41.2-17.6-41.2-41.3s17.4-41.3,41.2-41.3
		C2078.2,150.9,2095.5,168.5,2095.5,192.3z M2077.3,192.3c0-14.8-9.7-25-22.9-25c-13,0-22.9,10.2-22.9,25s9.9,25,22.9,25
		C2067.5,217.2,2077.3,207,2077.3,192.3z"/>
	<path class="st0" d="M2127.4,153l0.5,10.1c0,3-0.6,5-0.6,5.7h0.3c3.8-9.4,13.8-16.8,25.5-17.4c2.7-0.2,5.3,0,7.9,0.6
		c8.3,1.7,14.9,7.1,17.4,15.9c5.5-9.3,15.4-16.8,26.9-16.8c18.4,0,27.3,11,27.3,31.4v49.2h-19.2v-46.2c0-9.3-2.7-17-12.4-17
		c-15.1,0-20.3,14-20.3,27.8v35.4h-19.2v-46.2c0-9-1.9-17-12.1-17c-14.8,0-20.6,13.8-20.6,27.8v35.4h-19.2v-78.6L2127.4,153
		L2127.4,153z"/>
	<path class="st0" d="M2323,187.7c0,3.6-0.5,7.1-0.5,8.5h-54.9c0.5,13.2,9.9,21.1,24.4,21.1c11,0,22.5-3.3,27.8-6.6v16.8
		c-5.5,3-16,6.1-29.2,6.1c-26.1,0-42.9-17.1-42.9-41.3c0-23.7,17.1-41.3,39.3-41.3C2310.5,150.9,2323,168.2,2323,187.7z
		 M2286.6,166.3c-11.3,0-18.1,8.8-19,18.7h36.8C2304.6,175.1,2298.4,166.3,2286.6,166.3z"/>
	<path class="st0" d="M2360.5,153l0.5,10.1c0,3-0.6,5-0.6,5.7h0.3c3.1-7.2,13.5-17.8,28.4-17.8c18.5,0,27.2,11.2,27.2,31.4v49.2
		h-19.2v-45.9c0-9.1-2.2-17.3-12.9-17.3c-13,0-22.3,10.4-22.3,24.2v39h-19.2V153L2360.5,153L2360.5,153z"/>
	<path class="st0" d="M2436.1,162.4h-12.7l9.8-35.9h16.3L2436.1,162.4z"/>
	<path class="st0" d="M2472.4,199.2c-14.3-4.4-24.4-10.4-24.4-25.1c0-13.8,11.6-23.1,29.1-23.1c9.9,0,18.7,2.5,23.7,4.7v16.8
		c-5.3-2.8-13.2-5.3-20.3-5.7c-2.7,0-5.3,0.2-7.7,0.6c-3.9,1.1-7.2,3.3-7.2,7.4c0,5,4.7,7.7,14.3,10.5c17.3,5.3,25.6,11.5,25.6,25.1
		c0,14.8-12.1,23.1-30.5,23.1c-11.2,0-20.3-2.5-26.2-5.2v-17.1c7.5,3.9,18.2,6.9,25.8,6.9c6.9,0,13.4-2.2,13.4-8.2
		C2488,204.5,2482.6,202.3,2472.4,199.2z"/>
	<path class="st0" d="M1391.4,264h0.6l53.6,114.9h-20.7l-10.1-22.5h-46.2l-10.1,22.5h-20.7L1391.4,264z M1408.4,341.7
		c-6.4-14.5-11.8-27.2-16.5-40.1c-4.9,11.8-10.7,26.2-16.8,40.1H1408.4z"/>
	<path class="st0" d="M1479.4,346.6c-14.3-4.4-24.4-10.4-24.4-25.1c0-13.8,11.6-23.1,29.1-23.1c9.9,0,18.7,2.5,23.7,4.7v16.7
		c-5.3-2.8-13.2-5.3-20.3-5.7c-2.7,0-5.3,0.2-7.7,0.6c-3.9,1.1-7.2,3.3-7.2,7.4c0,5,4.7,7.7,14.3,10.5c17.3,5.3,25.6,11.5,25.6,25.1
		c0,14.8-12.1,23.1-30.5,23.1c-11.2,0-20.3-2.5-26.2-5.2v-17.1c7.5,3.9,18.2,6.9,25.8,6.9c6.9,0,13.4-2.2,13.4-8.2
		C1495,351.9,1489.6,349.7,1479.4,346.6z"/>
	<path class="st0" d="M1549.8,346.6c-14.3-4.4-24.4-10.4-24.4-25.1c0-13.8,11.6-23.1,29.1-23.1c9.9,0,18.7,2.5,23.7,4.7v16.7
		c-5.3-2.8-13.2-5.3-20.3-5.7c-2.7,0-5.3,0.2-7.7,0.6c-3.9,1.1-7.2,3.3-7.2,7.4c0,5,4.7,7.7,14.3,10.5c17.3,5.3,25.6,11.5,25.6,25.1
		c0,14.8-12.1,23.1-30.5,23.1c-11.2,0-20.3-2.5-26.2-5.2v-17.1c7.5,3.9,18.2,6.9,25.8,6.9c6.9,0,13.4-2.2,13.4-8.2
		C1565.4,351.9,1560,349.7,1549.8,346.6z"/>
	<path class="st0" d="M1677.8,339.6c0,23.7-17.3,41.3-41.2,41.3c-23.7,0-41.2-17.6-41.2-41.3s17.4-41.3,41.2-41.3
		C1660.5,298.3,1677.8,315.9,1677.8,339.6z M1659.5,339.6c0-14.8-9.7-25-22.9-25c-13,0-22.9,10.2-22.9,25s9.9,25,22.9,25
		C1649.8,364.6,1659.5,354.4,1659.5,339.6z"/>
	<path class="st0" d="M1733.2,364.2c10.1,0,18.4-4.2,22.3-6.8v17.4c-3.9,2-11.9,6.1-24.4,6.1c-24.7,0-41.5-17.6-41.5-41.3
		s16.8-41.3,41.5-41.3c12.4,0,20,3.9,23.9,6v17.6c-4.9-3.3-12.7-6.8-21.8-6.8c-14.1,0-24,9.9-24,24.5
		C1709.2,354.3,1718.9,364.2,1733.2,364.2z"/>
	<path class="st0" d="M1784,266.9c6.6,0,11.2,4.2,11.2,10.8c0,6.4-4.6,10.7-11.2,10.7c-6.8,0-11.2-4.2-11.2-10.7
		C1772.8,271.1,1777.2,266.9,1784,266.9z M1793.6,300.3v78.6h-19.2v-78.6H1793.6z"/>
	<path class="st0" d="M1817.8,304c4.4-2.4,14.9-5.7,28.3-5.7c23.3,0,34.7,11.2,34.7,30.8v49.8h-17.4l-0.3-8.2c-0.2-3.6,0.3-6,0.3-6
		h-0.3c-1.4,3.5-9.7,16.2-25.8,16.2c-14,0-25-8.3-25-23.4c0-19.3,19-28.8,49.5-24.5v-3c0-11.5-7.2-15.4-18.7-15.4
		c-10.4,0-20.3,3.5-25.3,6.6L1817.8,304L1817.8,304z M1861.3,344.4c-21.5-3.5-30.7,2.7-30.7,11.6c0,6,4.2,10.1,10.8,10.1
		C1852.8,366,1861.3,355.4,1861.3,344.4z"/>
	<path class="st0" d="M1905,300.3v-23.5h18.5v23.6h22.3v15.2h-22.2v36c0,9.7,5,13,10.8,13c4.9,0,10.2-1.6,14.1-3.3v16
		c-3.6,1.9-10.4,3.6-18.9,3.6c-11.9,0-23.9-5.8-24.8-22.8c0-2.5-0.2-5.2-0.2-7.9v-34.7h-11.9v-15.2L1905,300.3L1905,300.3z"/>
	<path class="st0" d="M1973.1,266.9c6.6,0,11.2,4.2,11.2,10.8c0,6.4-4.6,10.7-11.2,10.7c-6.8,0-11.2-4.2-11.2-10.7
		C1961.9,271.1,1966.3,266.9,1973.1,266.9z M1982.7,300.3v78.6h-19.2v-78.6H1982.7z"/>
	<path class="st0" d="M2084.4,339.6c0,23.7-17.3,41.3-41.2,41.3c-23.7,0-41.2-17.6-41.2-41.3s17.4-41.3,41.2-41.3
		C2067.1,298.3,2084.4,315.9,2084.4,339.6z M2066.1,339.6c0-14.8-9.7-25-22.9-25c-13,0-22.9,10.2-22.9,25s9.9,25,22.9,25
		C2056.4,364.6,2066.1,354.4,2066.1,339.6z"/>
	<path class="st0" d="M2117.2,300.3l0.5,10.1c0,3-0.6,5-0.6,5.7h0.3c3.1-7.2,13.5-17.8,28.4-17.8c18.5,0,27.2,11.2,27.2,31.4v49.2
		h-19.2V333c0-9.1-2.2-17.3-12.9-17.3c-13,0-22.3,10.4-22.3,24.2v39h-19.2v-78.6L2117.2,300.3L2117.2,300.3z"/>
	<path class="st0" d="M2313.7,339.6c0,23.7-17.3,41.3-41.2,41.3c-23.7,0-41.2-17.6-41.2-41.3s17.4-41.3,41.2-41.3
		C2296.4,298.3,2313.7,315.9,2313.7,339.6z M2295.4,339.6c0-14.8-9.7-25-22.9-25c-13,0-22.9,10.2-22.9,25s9.9,25,22.9,25
		C2285.7,364.6,2295.4,354.4,2295.4,339.6z"/>
	<path class="st0" d="M2335.5,300.3v-7.9c0-17.4,11.2-28.8,30.5-28.8c4.9,0,8.8,0.6,10.1,0.9v16.3c-1.3-0.3-4.2-0.9-8-0.9
		c-9,0-14.8,5-14.8,14.3v6h19.6v15.2H2354v63.3h-19.2v-63.3H2324v-15.2L2335.5,300.3L2335.5,300.3z"/>
	<path class="st0" d="M2514.5,290.1c-7.1-3.6-18.2-8.2-32.4-8.2c-24.4,0-40.7,17.6-40.7,40.4s16.3,40.4,40.2,40.4
		c15.1,0,26.6-4.4,33.6-8v18.4c-4.7,2.7-17.6,7.9-34.4,7.9c-34.1,0-59.4-25.1-59.4-58.6c0-33.3,25.3-58.6,59.9-58.6
		c16.3,0,28.5,5.3,33.2,8L2514.5,290.1L2514.5,290.1z"/>
	<path class="st0" d="M2532.1,304c4.4-2.4,14.9-5.7,28.3-5.7c23.3,0,34.7,11.2,34.7,30.8v49.8h-17.4l-0.3-8.2c-0.2-3.6,0.3-6,0.3-6
		h-0.3c-1.4,3.5-9.7,16.2-25.8,16.2c-14,0-25-8.3-25-23.4c0-19.3,19-28.8,49.5-24.5v-3c0-11.5-7.2-15.4-18.7-15.4
		c-10.4,0-20.3,3.5-25.3,6.6V304z M2575.7,344.4c-21.5-3.5-30.7,2.7-30.7,11.6c0,6,4.2,10.1,10.8,10.1
		C2567.2,366,2575.7,355.4,2575.7,344.4z"/>
	<path class="st0" d="M2632.9,300.3l0.5,10.1c0,3-0.6,5-0.6,5.7h0.3c3.1-7.2,13.5-17.8,28.4-17.8c18.5,0,27.2,11.2,27.2,31.4v49.2
		h-19.2V333c0-9.1-2.2-17.3-12.9-17.3c-13,0-22.3,10.4-22.3,24.2v39h-19.2v-78.6L2632.9,300.3L2632.9,300.3z"/>
	<path class="st0" d="M2708.8,304c4.4-2.4,14.9-5.7,28.3-5.7c23.3,0,34.7,11.2,34.7,30.8v49.8h-17.4l-0.3-8.2c-0.2-3.6,0.3-6,0.3-6
		h-0.3c-1.4,3.5-9.7,16.2-25.8,16.2c-14,0-25-8.3-25-23.4c0-19.3,19-28.8,49.5-24.5v-3c0-11.5-7.2-15.4-18.7-15.4
		c-10.4,0-20.3,3.5-25.3,6.6V304z M2752.3,344.4c-21.5-3.5-30.7,2.7-30.7,11.6c0,6,4.2,10.1,10.8,10.1
		C2743.9,366,2752.3,355.4,2752.3,344.4z"/>
	<path class="st0" d="M2866.5,378.9h-17.6l-0.3-8.2c-0.2-3.3,0.3-5.5,0.3-5.5h-0.3c-3.8,8.3-14.5,15.7-26.6,15.7
		c-20.6,0-36.6-16.3-36.6-41.3c0-25.3,16-41.3,36.2-41.3c12.1,0,21.7,6.1,25.9,12.9h0.3c0,0-0.5-2.2-0.5-6.4v-39h19.2L2866.5,378.9
		L2866.5,378.9z M2803.6,339.6c0,14.6,8.8,25,21.5,25c10.5,0,21.7-8,21.7-25s-11.2-25-21.7-25
		C2812.4,314.6,2803.6,324.9,2803.6,339.6z"/>
	<path class="st0" d="M2887,304c4.4-2.4,14.9-5.7,28.3-5.7c23.3,0,34.7,11.2,34.7,30.8v49.8h-17.4l-0.3-8.2c-0.2-3.6,0.3-6,0.3-6
		h-0.3c-1.4,3.5-9.7,16.2-25.8,16.2c-14,0-25-8.3-25-23.4c0-19.3,19-28.8,49.5-24.5v-3c0-11.5-7.2-15.4-18.7-15.4
		c-10.4,0-20.3,3.5-25.3,6.6V304z M2930.6,344.4c-21.5-3.5-30.7,2.7-30.7,11.6c0,6,4.2,10.1,10.8,10.1
		C2922.1,366,2930.6,355.4,2930.6,344.4z"/>
</g>
<g>
	<path class="st0" d="M1351.2,807.3V694.1h19.8v96.5h46.1v16.7H1351.2z"/>
	<path class="st0" d="M1433.4,730.1h-12.7l9.8-35.9h16.3L1433.4,730.1z"/>
	<path class="st0" d="M1483.9,692.4h0.6l53.6,114.9h-20.7l-10.1-22.5h-46.2l-10.1,22.5h-20.7L1483.9,692.4z M1500.9,770
		c-6.4-14.5-11.8-27.2-16.5-40.1c-4.9,11.8-10.7,26.2-16.8,40.1H1500.9z"/>
	<path class="st0" d="M1569,774.9c-14.3-4.4-24.4-10.4-24.4-25.1c0-13.8,11.6-23.1,29.1-23.1c9.9,0,18.7,2.5,23.7,4.7v16.8
		c-5.3-2.8-13.2-5.3-20.3-5.7c-2.7,0-5.3,0.2-7.7,0.6c-3.9,1.1-7.2,3.3-7.2,7.4c0,5,4.7,7.7,14.3,10.5c17.3,5.3,25.6,11.5,25.6,25.1
		c0,14.8-12.1,23.1-30.5,23.1c-11.2,0-20.3-2.5-26.2-5.2v-17.1c7.5,3.9,18.2,6.9,25.8,6.9c6.9,0,13.4-2.2,13.4-8.2
		C1584.5,780.2,1579.2,778,1569,774.9z"/>
	<path class="st0" d="M1639.1,774.9c-14.3-4.4-24.4-10.4-24.4-25.1c0-13.8,11.6-23.1,29.1-23.1c9.9,0,18.7,2.5,23.7,4.7v16.8
		c-5.3-2.8-13.2-5.3-20.3-5.7c-2.7,0-5.3,0.2-7.7,0.6c-3.9,1.1-7.2,3.3-7.2,7.4c0,5,4.7,7.7,14.3,10.5c17.3,5.3,25.6,11.5,25.6,25.1
		c0,14.8-12.1,23.1-30.5,23.1c-11.2,0-20.3-2.5-26.2-5.2v-17.1c7.5,3.9,18.2,6.9,25.8,6.9c6.9,0,13.4-2.2,13.4-8.2
		C1654.6,780.2,1649.3,778,1639.1,774.9z"/>
	<path class="st0" d="M1766.7,768c0,23.7-17.3,41.3-41.2,41.3c-23.7,0-41.2-17.6-41.2-41.3s17.4-41.3,41.2-41.3
		C1749.4,726.6,1766.7,744.3,1766.7,768z M1748.5,768c0-14.8-9.7-25-22.9-25c-13,0-22.9,10.2-22.9,25s9.9,25,22.9,25
		C1738.7,793,1748.5,782.8,1748.5,768z"/>
	<path class="st0" d="M1821.4,792.5c10.1,0,18.4-4.2,22.3-6.8v17.4c-3.9,2-11.9,6.1-24.4,6.1c-24.7,0-41.5-17.6-41.5-41.3
		s16.8-41.3,41.5-41.3c12.4,0,20,3.9,23.9,6v17.6c-4.9-3.3-12.7-6.8-21.8-6.8c-14.1,0-24,9.9-24,24.5
		C1797.4,782.6,1807.1,792.5,1821.4,792.5z"/>
	<path class="st0" d="M1871.7,695.2c6.6,0,11.2,4.2,11.2,10.8c0,6.4-4.6,10.7-11.2,10.7c-6.8,0-11.2-4.2-11.2-10.7
		S1864.9,695.2,1871.7,695.2z M1881.3,728.7v78.6h-19.2v-78.6H1881.3z"/>
	<path class="st0" d="M1905.2,732.3c4.4-2.4,14.9-5.7,28.3-5.7c23.3,0,34.7,11.2,34.7,30.8v49.8h-17.4l-0.3-8.2
		c-0.2-3.6,0.3-6,0.3-6h-0.3c-1.4,3.5-9.7,16.2-25.8,16.2c-14,0-25-8.3-25-23.4c0-19.3,19-28.8,49.5-24.5v-3
		c0-11.5-7.2-15.4-18.7-15.4c-10.4,0-20.3,3.5-25.3,6.6V732.3z M1948.7,772.7c-21.5-3.5-30.7,2.7-30.7,11.6c0,6,4.2,10.1,10.8,10.1
		C1940.2,794.4,1948.7,783.7,1948.7,772.7z"/>
	<path class="st0" d="M1991.3,728.7v-23.6h18.5v23.6h22.3v15.2h-22.3v36c0,9.7,5,13,10.8,13c4.9,0,10.2-1.6,14.1-3.3v16
		c-3.6,1.9-10.4,3.6-18.9,3.6c-11.9,0-23.9-5.8-24.8-22.8c0-2.5-0.2-5.2-0.2-7.9v-34.7h-11.9v-15.2h12.4V728.7z"/>
	<path class="st0" d="M2059.1,695.2c6.6,0,11.2,4.2,11.2,10.8c0,6.4-4.6,10.7-11.2,10.7c-6.8,0-11.2-4.2-11.2-10.7
		S2052.3,695.2,2059.1,695.2z M2068.6,728.7v78.6h-19.2v-78.6H2068.6z"/>
	<path class="st0" d="M2166.4,768c0,23.7-17.3,41.3-41.2,41.3c-23.7,0-41.2-17.6-41.2-41.3s17.4-41.3,41.2-41.3
		C2149.1,726.6,2166.4,744.3,2166.4,768z M2148.2,768c0-14.8-9.7-25-22.9-25c-13,0-22.9,10.2-22.9,25s9.9,25,22.9,25
		C2138.4,793,2148.2,782.8,2148.2,768z"/>
	<path class="st0" d="M2198.3,728.7l0.5,10.1c0,3-0.6,5-0.6,5.7h0.3c3.1-7.2,13.5-17.8,28.4-17.8c18.5,0,27.2,11.2,27.2,31.4v49.2
		h-19.2v-45.9c0-9.1-2.2-17.3-12.9-17.3c-13,0-22.3,10.4-22.3,24.2v39h-19.2v-78.6L2198.3,728.7L2198.3,728.7z"/>
	<path class="st0" d="M2387.7,807.3h-17.6l-0.3-8.2c-0.2-3.3,0.3-5.5,0.3-5.5h-0.3c-3.8,8.3-14.5,15.7-26.6,15.7
		c-20.6,0-36.6-16.3-36.6-41.3c0-25.3,16-41.3,36.2-41.3c12.1,0,21.7,6.1,25.9,12.9h0.3c0,0-0.5-2.2-0.5-6.4v-39h19.2L2387.7,807.3
		L2387.7,807.3z M2324.8,768c0,14.6,8.8,25,21.5,25c10.5,0,21.7-8,21.7-25s-11.2-25-21.7-25C2333.6,743,2324.8,753.2,2324.8,768z"/>
	<path class="st0" d="M2477.1,763.4c0,3.6-0.5,7.1-0.5,8.5h-54.9c0.5,13.2,9.9,21.1,24.4,21.1c11,0,22.5-3.3,27.8-6.6v16.8
		c-5.5,3-16,6.1-29.2,6.1c-26.1,0-42.9-17.1-42.9-41.3c0-23.7,17.1-41.3,39.3-41.3C2464.7,726.6,2477.1,743.9,2477.1,763.4z
		 M2440.8,742.1c-11.3,0-18.1,8.8-19,18.7h36.8C2458.8,750.9,2452.6,742.1,2440.8,742.1z"/>
	<path class="st0" d="M2512.2,774.9c-14.3-4.4-24.4-10.4-24.4-25.1c0-13.8,11.6-23.1,29.1-23.1c9.9,0,18.7,2.5,23.7,4.7v16.8
		c-5.3-2.8-13.2-5.3-20.3-5.7c-2.7,0-5.3,0.2-7.7,0.6c-3.9,1.1-7.2,3.3-7.2,7.4c0,5,4.7,7.7,14.3,10.5c17.3,5.3,25.6,11.5,25.6,25.1
		c0,14.8-12.1,23.1-30.5,23.1c-11.2,0-20.3-2.5-26.2-5.2v-17.1c7.5,3.9,18.2,6.9,25.8,6.9c6.9,0,13.4-2.2,13.4-8.2
		C2527.8,780.2,2522.4,778,2512.2,774.9z"/>
	<path class="st0" d="M1353.2,876.1v-7.9c0-17.4,11.2-28.8,30.5-28.8c4.9,0,8.8,0.6,10.1,0.9v16.3c-1.3-0.3-4.2-0.9-8-0.9
		c-9,0-14.8,5-14.8,14.3v6h19.6v15.2h-18.9v63.3h-19.1v-63.3h-10.8V876L1353.2,876.1L1353.2,876.1z"/>
	<path class="st0" d="M1474.3,910.8c0,3.6-0.5,7.1-0.5,8.5h-54.9c0.5,13.2,9.9,21.1,24.4,21.1c11,0,22.5-3.3,27.8-6.6v16.8
		c-5.5,3-16,6.1-29.2,6.1c-26.1,0-42.9-17.1-42.9-41.3c0-23.7,17.1-41.3,39.3-41.3C1461.8,874,1474.3,891.3,1474.3,910.8z
		 M1437.9,889.4c-11.3,0-18.1,8.8-19,18.7h36.8C1455.9,898.2,1449.7,889.4,1437.9,889.4z"/>
	<path class="st0" d="M1510.6,876.1l0.5,10.1c0,3-0.6,5-0.6,5.7h0.3c3.8-9.4,13.8-16.8,25.5-17.4c2.7-0.2,5.3,0,7.9,0.6
		c8.3,1.7,14.9,7.1,17.4,15.9c5.5-9.3,15.4-16.8,26.9-16.8c18.4,0,27.3,11,27.3,31.4v49.2h-19.2v-46.2c0-9.3-2.7-17-12.4-17
		c-15.1,0-20.3,14-20.3,27.8v35.4h-19.2v-46.2c0-9-1.9-17-12.1-17c-14.8,0-20.6,13.8-20.6,27.8v35.4h-19.2v-78.6h17.8V876.1z"/>
	<path class="st0" d="M1656.6,876.1l0.5,10.1c0,3-0.6,5-0.6,5.7h0.3c3.8-9.4,13.8-16.8,25.5-17.4c2.7-0.2,5.3,0,7.9,0.6
		c8.3,1.7,14.9,7.1,17.4,15.9c5.5-9.3,15.4-16.8,26.9-16.8c18.4,0,27.3,11,27.3,31.4v49.2h-19.2v-46.2c0-9.3-2.7-17-12.4-17
		c-15.1,0-20.3,14-20.3,27.8v35.4h-19.2v-46.2c0-9-1.9-17-12.1-17c-14.8,0-20.6,13.8-20.6,27.8v35.4h-19.2v-78.6h17.8V876.1z"/>
	<path class="st0" d="M1852.3,910.8c0,3.6-0.5,7.1-0.5,8.5h-54.9c0.5,13.2,9.9,21.1,24.4,21.1c11,0,22.5-3.3,27.8-6.6v16.8
		c-5.5,3-16,6.1-29.2,6.1c-26.1,0-42.9-17.1-42.9-41.3c0-23.7,17.1-41.3,39.3-41.3C1839.8,874,1852.3,891.3,1852.3,910.8z
		 M1816,889.4c-11.3,0-18.1,8.8-19,18.7h36.8C1833.9,898.2,1827.7,889.4,1816,889.4z"/>
	<path class="st0" d="M1889.4,922.3c-14.3-4.4-24.4-10.4-24.4-25.1c0-13.8,11.6-23.1,29.1-23.1c9.9,0,18.7,2.5,23.7,4.7v16.8
		c-5.3-2.8-13.2-5.3-20.3-5.7c-2.7,0-5.3,0.2-7.7,0.6c-3.9,1.1-7.2,3.3-7.2,7.4c0,5,4.7,7.7,14.3,10.5c17.3,5.3,25.6,11.5,25.6,25.1
		c0,14.8-12.1,23.1-30.5,23.1c-11.2,0-20.3-2.5-26.2-5.2v-17.1c7.5,3.9,18.2,6.9,25.8,6.9c6.9,0,13.4-2.2,13.4-8.2
		C1904.9,927.6,1899.6,925.4,1889.4,922.3z"/>
	<path class="st0" d="M1980.4,879.7c4.4-2.4,14.9-5.7,28.3-5.7c23.3,0,34.7,11.2,34.7,30.8v49.8H2026l-0.3-8.2c-0.2-3.6,0.3-6,0.3-6
		h-0.3c-1.4,3.5-9.7,16.2-25.8,16.2c-14,0-25-8.3-25-23.4c0-19.3,19-28.8,49.5-24.5v-3c0-11.5-7.2-15.4-18.7-15.4
		c-10.4,0-20.3,3.5-25.3,6.6V879.7z M2023.9,920.1c-21.5-3.5-30.7,2.7-30.7,11.6c0,6,4.2,10.1,10.8,10.1
		C2015.4,941.8,2023.9,931.1,2023.9,920.1z"/>
	<path class="st0" d="M2119.1,954.7l-0.5-9.9c0-3.1,0.5-5.2,0.6-5.8h-0.3c-3.1,7.2-13.4,17.8-28,17.8c-18.4,0-27-11.2-27-31.4v-49.2
		h19.2v45.9c0,9.3,2,17.3,12.7,17.3c12.7,0,21.8-10.4,21.8-24.2v-39h19v78.6h-17.5V954.7z"/>
	<path class="st0" d="M2163.5,876.1v-23.6h18.5v23.6h22.3v15.2H2182v36c0,9.7,5,13,10.8,13c4.9,0,10.2-1.6,14.1-3.3v16
		c-3.6,1.9-10.4,3.6-18.9,3.6c-11.9,0-23.9-5.8-24.8-22.8c0-2.5-0.2-5.2-0.2-7.9v-34.7h-11.9V876h12.4V876.1z"/>
	<path class="st0" d="M2298.5,915.4c0,23.7-17.3,41.3-41.2,41.3c-23.7,0-41.2-17.6-41.2-41.3s17.4-41.3,41.2-41.3
		C2281.2,874,2298.5,891.6,2298.5,915.4z M2280.3,915.4c0-14.8-9.7-25-22.9-25c-13,0-22.9,10.2-22.9,25s9.9,25,22.9,25
		C2270.5,940.4,2280.3,930.1,2280.3,915.4z"/>
	<path class="st0" d="M2352.9,939.9c10.1,0,18.4-4.2,22.3-6.8v17.4c-3.9,2-11.9,6.1-24.4,6.1c-24.7,0-41.5-17.6-41.5-41.3
		s16.8-41.3,41.5-41.3c12.4,0,20,3.9,23.9,6v17.6c-4.9-3.3-12.7-6.8-21.8-6.8c-14.1,0-24,9.9-24,24.5
		C2328.8,930,2338.6,939.9,2352.9,939.9z"/>
	<path class="st0" d="M2412.6,841.5v41.3c0,3.6-0.3,6.8-0.3,8.2c3.8-6.6,13-17,27.8-17c18.5,0,27.2,11.2,27.2,31.4v49.2h-19.2v-45.8
		c0-9.1-2.2-17.3-12.9-17.3c-13,0-22.3,10.4-22.3,24.2v39h-19.2V841.5H2412.6z"/>
	<path class="st0" d="M2491.8,876.1v-23.6h18.5v23.6h22.3v15.2h-22.3v36c0,9.7,5,13,10.8,13c4.9,0,10.2-1.6,14.1-3.3v16
		c-3.6,1.9-10.4,3.6-18.9,3.6c-11.9,0-23.9-5.8-24.8-22.8c0-2.5-0.2-5.2-0.2-7.9v-34.7h-11.9V876h12.4V876.1z"/>
	<path class="st0" d="M2626.8,915.4c0,23.7-17.3,41.3-41.2,41.3c-23.7,0-41.2-17.6-41.2-41.3s17.4-41.3,41.2-41.3
		C2609.5,874,2626.8,891.6,2626.8,915.4z M2608.6,915.4c0-14.8-9.7-25-22.9-25c-13,0-22.9,10.2-22.9,25s9.9,25,22.9,25
		C2598.8,940.4,2608.6,930.1,2608.6,915.4z"/>
	<path class="st0" d="M2659.5,876.1l0.5,10.1c0,3-0.6,5-0.6,5.7h0.3c3.1-7.2,13.5-17.8,28.4-17.8c18.5,0,27.2,11.2,27.2,31.4v49.2
		h-19.2v-45.9c0-9.1-2.2-17.3-12.9-17.3c-13,0-22.3,10.4-22.3,24.2v39h-19.2v-78.6L2659.5,876.1L2659.5,876.1z"/>
	<path class="st0" d="M2804.6,910.8c0,3.6-0.5,7.1-0.5,8.5h-54.9c0.5,13.2,9.9,21.1,24.4,21.1c11,0,22.5-3.3,27.8-6.6v16.8
		c-5.5,3-16,6.1-29.2,6.1c-26.1,0-42.9-17.1-42.9-41.3c0-23.7,17.1-41.3,39.3-41.3C2792.2,874,2804.6,891.3,2804.6,910.8z
		 M2768.3,889.4c-11.3,0-18.1,8.8-19,18.7h36.8C2786.2,898.2,2780.1,889.4,2768.3,889.4z"/>
	<path class="st0" d="M2841.7,922.3c-14.3-4.4-24.4-10.4-24.4-25.1c0-13.8,11.6-23.1,29.1-23.1c9.9,0,18.7,2.5,23.7,4.7v16.8
		c-5.3-2.8-13.2-5.3-20.3-5.7c-2.7,0-5.3,0.2-7.7,0.6c-3.9,1.1-7.2,3.3-7.2,7.4c0,5,4.7,7.7,14.3,10.5c17.3,5.3,25.6,11.5,25.6,25.1
		c0,14.8-12.1,23.1-30.5,23.1c-11.2,0-20.3-2.5-26.2-5.2v-17.1c7.5,3.9,18.2,6.9,25.8,6.9c6.9,0,13.4-2.2,13.4-8.2
		C2857.2,927.6,2851.9,925.4,2841.7,922.3z"/>
	<path class="st0" d="M1425.1,1102.1h-17.6l-0.3-8.2c-0.2-3.3,0.3-5.5,0.3-5.5h-0.3c-3.8,8.3-14.5,15.7-26.6,15.7
		c-20.6,0-36.6-16.3-36.6-41.3c0-25.3,16-41.3,36.2-41.3c12.1,0,21.7,6.1,25.9,12.9h0.3c0,0-0.5-2.2-0.5-6.4v-39h19.2V1102.1z
		 M1362.2,1062.8c0,14.6,8.8,25,21.5,25c10.5,0,21.7-8,21.7-25s-11.2-25-21.7-25C1371,1037.8,1362.2,1048,1362.2,1062.8z"/>
	<path class="st0" d="M1501.3,1102.1l-0.5-9.9c0-3.1,0.5-5.2,0.6-5.8h-0.3c-3.1,7.2-13.4,17.8-28,17.8c-18.4,0-27-11.2-27-31.4
		v-49.2h19.2v45.9c0,9.3,2,17.3,12.7,17.3c12.7,0,21.8-10.4,21.8-24.2v-39h19v78.6h-17.5V1102.1z"/>
	<path class="st0" d="M1671.2,1013.2c-7.1-3.6-18.2-8.2-32.4-8.2c-24.4,0-40.7,17.6-40.7,40.4s16.3,40.4,40.2,40.4
		c15.1,0,26.6-4.4,33.6-8v18.4c-4.7,2.7-17.6,7.9-34.4,7.9c-34.1,0-59.4-25.1-59.4-58.6c0-33.3,25.3-58.6,59.9-58.6
		c16.3,0,28.4,5.3,33.2,8L1671.2,1013.2L1671.2,1013.2z"/>
	<path class="st0" d="M1691.6,1027.1c4.4-2.4,14.9-5.7,28.3-5.7c23.3,0,34.7,11.2,34.7,30.8v49.8h-17.4l-0.3-8.2
		c-0.2-3.6,0.3-6,0.3-6h-0.3c-1.4,3.5-9.7,16.2-25.8,16.2c-14,0-25-8.3-25-23.4c0-19.3,19-28.8,49.5-24.5v-3
		c0-11.5-7.2-15.4-18.7-15.4c-10.4,0-20.3,3.5-25.3,6.6L1691.6,1027.1L1691.6,1027.1z M1735.2,1067.5c-21.5-3.5-30.7,2.7-30.7,11.6
		c0,6,4.2,10.1,10.8,10.1C1726.7,1089.2,1735.2,1078.5,1735.2,1067.5z"/>
	<path class="st0" d="M1794.9,1023.5l0.5,10.1c0,3-0.6,5-0.6,5.7h0.3c3.1-7.2,13.5-17.8,28.4-17.8c18.5,0,27.2,11.2,27.2,31.4v49.2
		h-19.2v-45.9c0-9.1-2.2-17.3-12.9-17.3c-13,0-22.3,10.4-22.3,24.2v39h-19.2v-78.6L1794.9,1023.5L1794.9,1023.5z"/>
	<path class="st0" d="M1872.4,1027.1c4.4-2.4,14.9-5.7,28.3-5.7c23.3,0,34.7,11.2,34.7,30.8v49.8H1918l-0.3-8.2
		c-0.2-3.6,0.3-6,0.3-6h-0.3c-1.4,3.5-9.7,16.2-25.8,16.2c-14,0-25-8.3-25-23.4c0-19.3,19-28.8,49.5-24.5v-3
		c0-11.5-7.2-15.4-18.7-15.4c-10.4,0-20.3,3.5-25.3,6.6V1027.1z M1915.9,1067.5c-21.5-3.5-30.7,2.7-30.7,11.6
		c0,6,4.2,10.1,10.8,10.1C1907.4,1089.2,1915.9,1078.5,1915.9,1067.5z"/>
	<path class="st0" d="M2031.3,1102.1h-17.6l-0.3-8.2c-0.2-3.3,0.3-5.5,0.3-5.5h-0.3c-3.8,8.3-14.5,15.7-26.6,15.7
		c-20.6,0-36.6-16.3-36.6-41.3c0-25.3,16-41.3,36.2-41.3c12.1,0,21.7,6.1,25.9,12.9h0.3c0,0-0.5-2.2-0.5-6.4v-39h19.2L2031.3,1102.1
		L2031.3,1102.1z M1968.4,1062.8c0,14.6,8.8,25,21.5,25c10.5,0,21.7-8,21.7-25s-11.2-25-21.7-25
		C1977.2,1037.8,1968.4,1048,1968.4,1062.8z"/>
	<path class="st0" d="M2055.2,1027.1c4.4-2.4,14.9-5.7,28.3-5.7c23.3,0,34.7,11.2,34.7,30.8v49.8h-17.4l-0.3-8.2
		c-0.2-3.6,0.3-6,0.3-6h-0.3c-1.4,3.5-9.7,16.2-25.8,16.2c-14,0-25-8.3-25-23.4c0-19.3,19-28.8,49.5-24.5v-3
		c0-11.5-7.2-15.4-18.7-15.4c-10.4,0-20.3,3.5-25.3,6.6V1027.1z M2098.7,1067.5c-21.5-3.5-30.7,2.7-30.7,11.6
		c0,6,4.2,10.1,10.8,10.1C2090.2,1089.2,2098.7,1078.5,2098.7,1067.5z"/>
</g>
<g>
	<g>
		<path class="st1" d="M1402.3,552.2l-21-18.3c0,0,26.2-19.1,51.9-8.6L1402.3,552.2z"/>
		<path class="st1" d="M1374.4,546.2l-21,18.3c0,0,26.2,19.1,51.9,8.6L1374.4,546.2z"/>
		<path class="st1" d="M1430.8,546.2l-21,18.3c0,0,26.2,19.1,51.9,8.6L1430.8,546.2z"/>
		<path class="st1" d="M1459.4,552.2l-21-18.3c0,0,26.2-19.1,51.9-8.6L1459.4,552.2z"/>
	</g>
	<path class="st1" d="M1343.5,556.5l32.7-31.5c0,0-12.2-7.8-26.2,2.8C1338.3,536.8,1343.5,556.5,1343.5,556.5z"/>
	<g>
		<path class="st1" d="M1513.2,552.2l-21-18.3c0,0,26.2-19.1,51.9-8.6L1513.2,552.2z"/>
		<path class="st1" d="M1485.3,546.2l-21,18.3c0,0,26.2,19.1,51.9,8.6L1485.3,546.2z"/>
		<path class="st1" d="M1541.7,546.2l-21,18.3c0,0,26.2,19.1,51.9,8.6L1541.7,546.2z"/>
		<path class="st1" d="M1570.3,552.2l-21-18.3c0,0,26.2-19.1,51.9-8.6L1570.3,552.2z"/>
	</g>
	<g>
		<path class="st1" d="M1624.9,552.5l-21-18.3c0,0,26.2-19.1,51.9-8.6L1624.9,552.5z"/>
		<path class="st1" d="M1597.1,546.5l-21,18.3c0,0,26.2,19.1,51.9,8.6L1597.1,546.5z"/>
		<path class="st1" d="M1653.5,546.5l-21,18.3c0,0,26.2,19.1,51.9,8.6L1653.5,546.5z"/>
		<path class="st1" d="M1682,552.5l-21-18.3c0,0,26.2-19.1,51.9-8.6L1682,552.5z"/>
	</g>
	<g>
		<path class="st1" d="M1735.8,552.5l-21-18.3c0,0,26.2-19.1,51.9-8.6L1735.8,552.5z"/>
		<path class="st1" d="M1708,546.5l-21,18.3c0,0,26.2,19.1,51.9,8.6L1708,546.5z"/>
		<path class="st1" d="M1764.4,546.5l-21,18.3c0,0,26.2,19.1,51.9,8.6L1764.4,546.5z"/>
		<path class="st1" d="M1792.9,552.5l-21-18.3c0,0,26.2-19.1,51.9-8.6L1792.9,552.5z"/>
	</g>
	<g>
		<path class="st1" d="M1852.7,552.1l-21-18.3c0,0,26.2-19.1,51.9-8.6L1852.7,552.1z"/>
		<path class="st1" d="M1824.8,546.1l-21,18.3c0,0,26.2,19.1,51.9,8.6L1824.8,546.1z"/>
		<path class="st1" d="M1881.2,546.1l-21,18.3c0,0,26.2,19.1,51.9,8.6L1881.2,546.1z"/>
		<path class="st1" d="M1909.8,552.1l-21-18.3c0,0,26.2-19.1,51.9-8.6L1909.8,552.1z"/>
	</g>
	<g>
		<path class="st1" d="M1963.6,552.2l-21-18.3c0,0,26.2-19.1,51.9-8.6L1963.6,552.2z"/>
		<path class="st1" d="M1935.7,546.1l-21,18.3c0,0,26.2,19.1,51.9,8.6L1935.7,546.1z"/>
		<path class="st1" d="M1992.1,546.1l-21,18.3c0,0,26.2,19.1,51.9,8.6L1992.1,546.1z"/>
		<path class="st1" d="M2020.7,552.2l-21-18.3c0,0,26.2-19.1,51.9-8.6L2020.7,552.2z"/>
	</g>
	<g>
		<path class="st1" d="M2075.3,552.4l-21-18.3c0,0,26.2-19.1,51.9-8.6L2075.3,552.4z"/>
		<path class="st1" d="M2047.5,546.4l-21,18.3c0,0,26.2,19.1,51.9,8.6L2047.5,546.4z"/>
		<path class="st1" d="M2103.9,546.4l-21,18.3c0,0,26.2,19.1,51.9,8.6L2103.9,546.4z"/>
		<path class="st1" d="M2132.4,552.4l-21-18.3c0,0,26.2-19.1,51.9-8.6L2132.4,552.4z"/>
	</g>
	<g>
		<path class="st1" d="M2186.2,552.5l-21-18.3c0,0,26.2-19.1,51.9-8.6L2186.2,552.5z"/>
		<path class="st1" d="M2158.4,546.4l-21,18.3c0,0,26.2,19.1,51.9,8.6L2158.4,546.4z"/>
		<path class="st1" d="M2214.8,546.4l-21,18.3c0,0,26.2,19.1,51.9,8.6L2214.8,546.4z"/>
		<path class="st1" d="M2243.3,552.5l-21-18.3c0,0,26.2-19.1,51.9-8.6L2243.3,552.5z"/>
	</g>
	<g>
		<path class="st1" d="M2301.3,552.5l-21-18.3c0,0,26.2-19.1,51.9-8.6L2301.3,552.5z"/>
		<path class="st1" d="M2273.5,546.5l-21,18.3c0,0,26.2,19.1,51.9,8.6L2273.5,546.5z"/>
		<path class="st1" d="M2329.9,546.5l-21,18.3c0,0,26.2,19.1,51.9,8.6L2329.9,546.5z"/>
	</g>
	<path class="st1" d="M2541,561.9l-30.3-30.4c0,0,7.3-11.4,23.2-3.2C2549.5,536.3,2541,561.9,2541,561.9z"/>
	<g>
		<path class="st1" d="M2358.7,552.5l-21-18.3c0,0,26.2-19.1,51.9-8.6L2358.7,552.5z"/>
		<path class="st1" d="M2387.3,546.5l-21,18.3c0,0,26.2,19.1,51.9,8.6L2387.3,546.5z"/>
		<path class="st1" d="M2415.8,552.5l-21-18.3c0,0,26.2-19.1,51.9-8.6L2415.8,552.5z"/>
	</g>
	<g>
		<path class="st1" d="M2473.8,552.5l-21-18.3c0,0,26.2-19.1,51.9-8.6L2473.8,552.5z"/>
		<path class="st1" d="M2446,546.5l-21,18.3c0,0,26.2,19.1,51.9,8.6L2446,546.5z"/>
		<path class="st1" d="M2502.4,546.5l-21,18.3c0,0,26.2,19.1,51.9,8.6L2502.4,546.5z"/>
	</g>
</g>
<path class="st1" d="M1012.7,599.3c-23.4,36.5-28.6,63.6-30,127.3c-36.2-63.6-40.7-76.2-47.9-103.9c-5.7-22-18.4-103.2,17.8-179.2
	c26.8-56.3,38.1-80.6,38.8-108.2c2.1,2.6,4.3,5.3,6.3,8c0,0,0,0,0.1,0.1c21.7,27.9,34.8,43,46.3,68
	C1074.4,477.5,1069.6,510.4,1012.7,599.3z"/>
<path class="st3" d="M983.8,320.6c0,0-14.9-68.7-33.6-95.2c-19.2-27-49.4-19.8-62.4-59.3c-19.6-59.6-58.6-91.2-81.4-96.1
	c0,0,28.9,27.3,41.1,59.2C859.7,161,833.1,206,889,232C946.6,258.9,983.8,320.6,983.8,320.6z"/>
<path class="st4" d="M1088.6,229.6c-58.4-83-137.6-150.2-230-194c3.6,2.4,7.3,5,11.1,8c14.2,11.3,21.4,12.3,55.4,51.9
	c13.7,15.9,24.8,35.2,47.9,53.4C1001,171,1067.9,202.7,1088.6,229.6z"/>
<path class="st5" d="M847.5,33.3c-0.3-0.2-0.7-0.4-1-0.6c-0.6-0.4-1.2-0.7-1.8-1.1c-0.7-0.4-1.4-0.8-2.1-1.2c-0.6-0.3-1.2-0.7-1.8-1
	c-0.7-0.4-1.4-0.8-2.1-1.2c-0.6-0.3-1.2-0.7-1.8-1c-0.8-0.4-1.5-0.8-2.3-1.2c-0.6-0.3-1.2-0.6-1.7-0.9c-0.8-0.4-1.6-0.8-2.5-1.2
	c-0.6-0.3-1.1-0.6-1.7-0.8c-0.9-0.5-1.9-0.9-2.8-1.4c-0.5-0.2-0.9-0.4-1.4-0.7c-1.4-0.7-2.9-1.3-4.4-2l0,0l0,0l0,0
	c-3.1-1.2-4.8-1.9-8-3c-0.2-0.1-1.9-0.7-2.1-0.7c-38.3-9.8-60.5,8.4-86.8,17.4c-22.2,7.6-52.1-8-53.6-9.2c0.7,1,4.6,17.8,17.3,26.2
	c19.4,12.8,50.6,7,74.1,3.3s31.4-3.7,49.7,1.1c34.4,8.9,81.9,40.7,110.4,52.5c-6.9-8.2-16.5-18.9-30.1-34.3
	C875.6,54.6,859.9,41.9,847.5,33.3z"/>
<g>
	<path class="st6" d="M496.9,659.7c-0.2-0.1-0.5-0.2-0.7-0.3c0.4,0.2,0.9,0.5,1.3,0.7C497.2,659.9,497,659.8,496.9,659.7z"/>
	<g>
		<path class="st6" d="M496.9,659.7c-0.2-0.1-0.6,0-1,0.1l0.5-1c0.3-0.1,0.7-0.2,0.9,0c0.2,0.1,0.3,0.5,0.4,0.8l-0.5,0.8
			C497.1,660.1,497,659.8,496.9,659.7z M496.9,659.7c0.2,0.1,0.5,0.1,0.8,0l3.8-0.9l-4.3,1.6c-0.3,0.1-0.7,0.2-0.9,0.1
			c-0.2-0.1-0.3-0.4-0.4-0.7l0.5-1C496.5,659.3,496.6,659.6,496.9,659.7z"/>
	</g>
</g>
<path class="st6" d="M777.5,942.2c-4.5,1.6-9.1,3.2-13.8,4.6c7.2-2.5,12.3-4.1,13.5-4.5C777.4,942.2,777.5,942.2,777.5,942.2z"/>
<path class="st6" d="M947.4,1049.2c0.1-0.1,0.3-0.2,0.4-0.3c0.9-0.7,1.8-1.4,2.7-2c-1.4,1-2.9,2-4.4,3
	C946.6,1049.7,947,1049.4,947.4,1049.2z"/>
<path class="st6" d="M952.1,1045.8c-0.1,0.1-0.3,0.2-0.4,0.3c-0.4,0.3-0.8,0.6-1.1,0.8C951.1,1046.5,951.6,1046.2,952.1,1045.8z"/>
<path class="st7" d="M812.6,1080.6c-56.4,1.1-92.9,5.5-133.8,28.7c-40.7,23.1-103.6,44.7-175.9,36.6c13.5,2.4,26.2,4.5,40,6
	c20.8,2.2,41.9,3.4,63.2,3.4c124.6,0,244.6-39.4,340-105.4c1.5-1,2.9-2,4.4-3c0.4-0.3,0.8-0.6,1.1-0.8
	C910.4,1072.1,859.4,1079.7,812.6,1080.6z"/>
<path class="st9" d="M620.2,536.3c0.4,17.6-21.3,24.4-34.4,31.7c-13.1,7.3-8.6,34.9-2.2,50.5c6.5,15.5-20.5,27.7-20.5,27.7
	s19.5,10.1,2,32.7c-6.2,8-11.8,58.8-28,67.1c-8.3-12.6-45.5-28.1-48.5-46c-4.9-29.2,43.5-66.9,52.3-98.5c0.2-0.8,0.4-1.6,0.6-2.3
	c0.2-0.8,0.3-1.6,0.4-2.3c0.1-0.5,0.1-0.9,0.2-1.3c0,0,0,0,0-0.1l0,0c0,0,0,0,0-0.1l0,0c1.4-13.3-6.2-20.8-11.5-27.4
	c-5-6.3-7.8-11.8,0.9-20.8c0.5-0.5,0.9-1,1.4-1.5c19.1-19.6,39.7-43.4,26-61.4c-14-18.4-66.5-23.4-66.5-23.4s45.8-16.9,68.4-36.4
	c14.6-12.6,21.9-50.4,23.2-76.6c0-0.1,0-0.1,0-0.2c0.2-3.1,0.3-5.8,0.2-8c1.1,26.4-3.3,71-6.5,94.1c-0.6,4.5,1.2,13,5.2,23.4
	c4.4,11.6,10.9,25.5,17.3,38.5l0,0C609.4,514.1,620.1,530.4,620.2,536.3z"/>
<g>
	<path class="st10" d="M584.3,339.1c0,2.7,0,5.5-0.2,8.5c0,0.1,0,0.1,0,0.2c-1.3,26.2-8.6,64-23.2,76.6
		c-22.6,19.5-68.4,36.4-68.4,36.4s52.5,5,66.5,23.4c13.6,18-6.9,41.8-26,61.4c-0.5,0.5-1,1-1.4,1.5c-8.8,9-6,14.5-0.9,20.8
		c5.2,6.6,12.9,14.1,11.5,27.4l0,0c0,0,0,0,0,0.1l0,0c0,0,0,0,0,0.1c0,0.4-0.1,0.9-0.2,1.3c-0.1,0.8-0.2,1.5-0.4,2.3
		s-0.4,1.5-0.6,2.3c-8.8,31.6-57.2,69.3-52.3,98.5c3,17.8,40.2,33.4,48.5,46c-16.2,8.3-69.8-1-99.2-2.1
		c-24.6-0.9-42.5,6.4-54.8,14.7c-9.5-15-17.5-31.2-24.2-48l-3.5-9.4l-0.9-2.3l-0.8-2.4l-1.6-4.8c-2.2-6.3-3.9-12.8-5.8-19.3
		c-0.9-3.2-1.6-6.5-2.4-9.8s-1.6-6.6-2.2-9.9c-1.2-6.6-2.7-13.2-3.6-20l-1.5-10.1c-0.5-3.4-0.7-6.8-1.1-10.1l-1.1-10.1
		c-0.2-3.4-0.6-6.8-0.7-10.2l-0.3-5.1l-0.2-5.1c-0.2-3.4-0.2-6.8-0.2-10.2c0-1.7,0-3.4,0-5.1c0-1.7,0-3.4,0.1-5.1
		c0.1-3.4,0.2-6.8,0.4-10.2c0.8-13.6,2.5-27.1,6-40.4c3.4-13.2,8.4-26,15.2-37.8c6.2-11,13.8-21.2,22.5-30.1c2.1-2,4.3-4.2,6.7-6.4
		c8.5-7.7,17.9-14.6,27.4-21.2c11.3-7.8,22.9-15.3,34.6-22.8c5.8-3.7,11.6-7.5,17.4-11.3c5.8-3.8,11.6-7.6,17.4-11.5l8.6-5.8
		l2.2-1.5l2.2-1.6c1.5-1.1,3-2.1,4.5-3.2c5.9-4.4,11.5-9.2,16.9-14.2c5.4-5,10.5-10.5,15.2-16.3c4.8-5.8,9.2-11.8,13.2-18.2
		c7.7-12.3,13.8-25.5,18.5-39c2.3,3.7,4.3,7.1,5.5,9.6c9.3,19.4,12.8,26.2,16.1,48C584.1,330.9,584.3,334.7,584.3,339.1z"/>
</g>
<path class="st11" d="M749.3,950.7c-31,8.3-65.7,13.4-95,13.5c-88.9,0.2-129.2-7.1-229.1-69.1c-27.8-17.3-70.7-38.5-108.2-73.2
	c-2.2-2-4.4-4.1-6.5-6.2c-57.3-49.2-93.6-122.1-93.6-203.5c0-44.6,10.9-86.6,30.1-123.6c0,0,0-0.1,0.1-0.1c0.4-0.8,0.8-1.7,1.3-2.5
	c43.4-73.6,111.4-101.3,191-138c21.1-9.7,42.2-19.1,62.3-28.3c1.7-1.3,3.4-2.6,4.9-3.9c5-6.5,8.5-13.2,12.4-20.3
	c6.2-11.1,10.9-23,14.4-35.4c1.8-6.2,3.3-12.5,4.8-19.1l0.4-2c-50.9-55.9-124.3-91-205.9-91c-56.1,0-164.5,20-233.6,118
	c-45.5,59.5-83.5,191.8-83.5,302.4c0,25.8,1.7,51.2,4.9,76.2l0,0l0,0v0.1v0.1c0,0.1,0.1,0.2,0.1,0.3l0,0c0,0.1,0.1,0.3,0.1,0.4l0,0
	c0.1,0.2,0.1,0.4,0.2,0.6l0,0c0.1,0.2,0.1,0.4,0.2,0.6c0,0,0,0,0,0.1c0.2,0.5,0.4,1,0.6,1.7c0,0,0,0,0,0.1c0.2,0.7,0.5,1.4,0.8,2.2
	l0,0c0.3,0.8,0.6,1.7,0.9,2.6l0,0c0.2,0.4,0.3,0.9,0.5,1.4v0.1c0.2,0.5,0.3,0.9,0.5,1.4c0,0,0,0.1,0.1,0.1c0.2,0.5,0.4,1.1,0.6,1.6
	l0,0c0.2,0.5,0.4,1.1,0.6,1.7v0.1c0.2,0.5,0.4,1.1,0.6,1.7c0,0.1,0,0.1,0.1,0.2c0.2,0.6,0.4,1.1,0.7,1.7c0,0.1,0.1,0.1,0.1,0.2
	c0.2,0.6,0.4,1.2,0.7,1.8c0,0.1,0.1,0.2,0.1,0.3c0.2,0.6,0.4,1.2,0.7,1.7c0,0.1,0.1,0.3,0.1,0.4c0.2,0.5,0.4,1.1,0.7,1.7
	c0.1,0.2,0.1,0.4,0.2,0.5c0.2,0.6,0.5,1.2,0.7,1.7c0.1,0.2,0.1,0.3,0.2,0.5c0.2,0.6,0.5,1.2,0.7,1.9c0.1,0.2,0.1,0.3,0.2,0.5
	c0.2,0.6,0.5,1.2,0.7,1.8c0.1,0.2,0.2,0.4,0.2,0.6c0.3,0.6,0.5,1.3,0.8,1.9c0.1,0.2,0.1,0.4,0.2,0.5c0.3,0.7,0.6,1.4,0.9,2
	c0.1,0.2,0.1,0.3,0.2,0.5c0.3,0.6,0.6,1.3,0.8,2c0.1,0.2,0.2,0.4,0.3,0.7c0.3,0.6,0.5,1.2,0.8,1.8c0.1,0.3,0.2,0.6,0.4,0.9
	c0.3,0.6,0.5,1.2,0.8,1.9c0.1,0.3,0.3,0.6,0.4,0.9c0.3,0.6,0.6,1.3,0.9,2c0.1,0.3,0.2,0.6,0.4,0.9c0.3,0.6,0.6,1.3,0.8,1.9
	c0.1,0.3,0.3,0.6,0.4,1c0.4,1,0.9,1.9,1.3,2.9C56,730.2,77.2,770.2,105,804.2c1.3,1.5,2.5,3,3.8,4.5c0.4,0.5,0.9,1,1.3,1.5
	c0.9,1,1.7,1.9,2.6,2.9c0.5,0.6,1.1,1.1,1.6,1.7c0.8,0.8,1.6,1.7,2.4,2.5c0.6,0.6,1.2,1.1,1.7,1.7c0.8,0.8,1.6,1.6,2.4,2.3
	c0.6,0.6,1.2,1.1,1.8,1.7c0.8,0.7,1.6,1.5,2.3,2.2c0.6,0.6,1.3,1.1,1.9,1.7c0.8,0.7,1.6,1.4,2.4,2.1c0.6,0.5,1.3,1.1,1.9,1.6
	c0.8,0.7,1.6,1.3,2.4,2c0.7,0.5,1.3,1,2,1.6c0.8,0.6,1.6,1.3,2.4,1.9c0.7,0.5,1.3,1,2,1.5c0.8,0.6,1.6,1.2,2.4,1.8
	c0.7,0.5,1.3,1,2,1.5c0.8,0.6,1.6,1.2,2.5,1.7c0.7,0.5,1.4,0.9,2,1.4c0.8,0.6,1.7,1.1,2.5,1.7c0.7,0.4,1.4,0.9,2,1.3
	c0.8,0.5,1.7,1.1,2.5,1.6c0.7,0.4,1.4,0.8,2,1.3c0.9,0.5,1.7,1,2.6,1.5c0.7,0.4,1.4,0.8,2,1.2c0.9,0.5,1.8,1,2.6,1.5
	c0.7,0.4,1.4,0.8,2,1.1c0.9,0.5,1.8,1,2.7,1.5c0.7,0.4,1.3,0.7,2,1.1c0.9,0.5,1.9,1,2.8,1.4c0.6,0.3,1.3,0.7,1.9,1c1,0.5,2,1,3,1.5
	c0.6,0.3,1.2,0.6,1.7,0.9c1.2,0.6,2.3,1.1,3.5,1.7c0.4,0.2,0.8,0.4,1.2,0.6c1.6,0.7,3.1,1.4,4.7,2.1c0.6,0.3,1.2,0.5,1.8,0.8
	c1,0.4,1.9,0.8,2.9,1.3c0.7,0.3,1.4,0.6,2.2,0.9c0.8,0.4,1.7,0.7,2.5,1s1.6,0.6,2.3,0.9c0.8,0.3,1.6,0.6,2.3,0.9
	c0.8,0.3,1.6,0.6,2.4,0.9c0.7,0.3,1.5,0.6,2.2,0.9c0.8,0.3,1.7,0.6,2.5,0.9c0.7,0.3,1.4,0.5,2.1,0.8c0.8,0.3,1.7,0.6,2.5,0.9
	c0.7,0.2,1.4,0.5,2,0.7c0.9,0.3,1.7,0.6,2.6,0.9c0.6,0.2,1.3,0.5,1.9,0.7c0.9,0.3,1.8,0.6,2.7,0.9c0.6,0.2,1.2,0.4,1.8,0.6
	c0.9,0.3,1.9,0.6,2.8,0.9c0.5,0.2,1.1,0.4,1.6,0.5c1,0.3,2,0.7,3,1c0.4,0.1,0.9,0.3,1.3,0.4c1.1,0.3,2.1,0.7,3.2,1
	c0.3,0.1,0.6,0.2,0.9,0.3c1.2,0.4,2.4,0.8,3.6,1.2l0,0c3.9,1,7.7,2.1,11.3,3.1c-6.8-2.8-13.5-5.8-20-9.1
	c-71.8-36.3-125.5-103-144-183.1c-2.7-13.3-4.8-26.8-6.2-40.4c-1.5-14.6-2.3-29.5-2.3-44.5c0-188.9,123.4-348.9,294-403.8
	c-107.2,47.9-190.8,139-228.8,251.2c-14.5,42.7-22.3,88.5-22.3,136.2c0,79.1,21.7,153.2,59.4,216.6c0.5,0.8,0.9,1.5,1.4,2.3
	c32.3,52.5,94.7,90.7,152.9,94.4c-12.1-0.8-24-2.4-35.7-4.8c18.3,4.4,25.6,3.5,63.9,7.4c86.3,8.8,87.5,51.8,124.2,81.9
	c30,24.8,86.3,35.4,132.1,19.2c33.7-12,50.7-22.6,74.4-37.2c20.5-12.6,48-23.2,64.3-29C758.3,948.1,753.9,949.4,749.3,950.7z"/>
<path class="st12" d="M753.4,1010.3c34.5-6.9,65.7-7.6,95.1-8.2c1.9-0.8,3.8-1.5,5.7-2.3c60.4-25.8,142.6-86.4,143.3-175.4
	c0.3-32.2-9.6-54.9-25-79.4c-14.6-23.1-42.6-58.5-42.6-58.5c6.3,40.1,9.3,59.7,8.6,84.6c-1.5,48.7-22.6,90.5-40.5,115.1
	c-22,30.2-39.1,45.8-113.8,75.8c-32,12.9-68.3,36.9-101.5,56.8c-17.8,10.7-32.2,17.7-43.4,22.4
	C683.9,1029.1,723.6,1016.2,753.4,1010.3z"/>
<path class="st1" d="M1099.5,673.7c7.3-62.7,51.3-93.5,41.4-128.9c-0.3-1-0.6-2-0.9-3c-0.2-0.6-0.4-1.3-0.6-1.9
	c-0.2-0.7-0.5-1.4-0.7-2l0,0c-0.1-0.1-0.1-0.2-0.2-0.3c0-0.1,0-0.1-0.1-0.2c-0.4-1-0.7-1.9-1.1-2.9c-1.4-3.4-2.9-6.7-4.6-9.9
	c-0.8-1.5-1.6-3.1-2.5-4.7c-0.1-0.1-0.1-0.2-0.2-0.3c-0.6-1.2-1.3-2.3-2-3.5c-0.5-1-1.1-2-1.7-2.9c-0.6-1-1.2-2-1.7-2.9
	c-0.5-0.8-0.9-1.6-1.4-2.4c-0.5-0.8-1-1.6-1.4-2.4c-1.4-2.4-2.9-4.8-4.3-7.3c-1.4-2.4-2.9-4.9-4.3-7.4c-0.9-1.7-1.9-3.4-2.8-5.1
	c-0.9-1.7-1.8-3.5-2.6-5.2c-0.4-0.9-0.9-1.8-1.3-2.7c-0.8-1.8-1.6-3.6-2.4-5.5c-1.2-2.8-2.2-5.6-3.2-8.6c1.9,6.1,8.3,29.3,11.6,69
	c3.8,46.8-25.5,71.9-37,126.7c-11.4,54.8,17.9,89.6-5.1,158.4c-1.1,3.2-2.2,6.5-3.4,9.8c-0.4,1-0.8,2.1-1.2,3.1
	c-0.4,1.2-0.9,2.3-1.3,3.5c-0.1,0.2-0.2,0.4-0.3,0.7c-1.1,2.8-2.3,5.6-3.5,8.4c-0.6,1.4-1.2,2.7-1.8,4.1c-0.6,1.4-1.3,2.7-1.9,4.1
	c-0.5,1-1,2.1-1.5,3.1c-0.8,1.6-1.5,3.1-2.4,4.7c-0.5,0.9-1,1.8-1.5,2.7c-0.5,0.9-1,1.8-1.5,2.7c-0.5,0.9-1,1.8-1.5,2.6
	c-1,1.8-2.1,3.6-3.2,5.3c-0.9,1.4-1.8,2.9-2.7,4.3c-0.8,1.3-1.7,2.6-2.6,3.9c-1.1,1.6-2.3,3.3-3.4,4.9c-0.1,0.2-0.3,0.4-0.4,0.6
	c-0.8,1.1-1.6,2.1-2.4,3.2c-0.9,1.2-1.9,2.5-2.9,3.7c-1.3,1.7-2.7,3.4-4.1,5.1c-0.9,1.1-1.8,2.2-2.8,3.2c-1.2,1.3-2.3,2.6-3.5,4
	c-0.8,0.8-1.5,1.7-2.4,2.5c-0.3,0.3-0.6,0.6-0.8,0.9c-0.8,0.8-1.5,1.6-2.3,2.4c-1.6,1.6-3.2,3.2-4.9,4.8c-1.7,1.6-3.4,3.2-5.2,4.8
	c-5.9,5.3-12.4,10.6-19.4,15.8c-1.5,1.1-3.1,2.3-4.7,3.4c-2.8,2-5.6,3.9-8.5,5.9c-0.1,0.1-0.2,0.1-0.3,0.2c-1,0.7-2,1.3-3.1,2
	c-1,0.7-2.1,1.3-3.1,2c-2.1,1.3-4.3,2.7-6.5,4c-1.1,0.7-2.2,1.3-3.4,2c-1.1,0.7-2.3,1.3-3.4,2c-2.3,1.3-4.6,2.6-7,3.9
	c-1.2,0.7-2.4,1.3-3.6,1.9c-0.1,0-0.1,0.1-0.1,0.1c-1.2,0.7-2.5,1.3-3.7,1.9c-1.2,0.7-2.5,1.3-3.8,1.9c-0.4,0.2-0.7,0.4-1.1,0.6
	c-1.3,0.6-2.6,1.3-3.9,1.9c-1.7,0.8-3.4,1.6-5.1,2.4c-3,1.4-6.2,2.8-9.4,4.2c-0.2,0.1-0.4,0.2-0.6,0.3c-1.9,0.9-3.9,1.7-5.9,2.5
	c-1.1,0.4-2.1,0.9-3.3,1.4c-2.7,1.1-5.5,2.2-8.3,3.3c-3,1.2-6.1,2.4-9.2,3.6c-1.5,0.6-3.1,1.2-4.7,1.8c-1.6,0.6-3.2,1.2-4.8,1.7
	c-1.6,0.6-3.2,1.2-4.8,1.7c-1.7,0.6-3.3,1.2-5,1.7c-3.4,1.2-6.8,2.3-10.2,3.4c-1.4,0.4-2.8,0.9-4.2,1.3c-1.3,0.4-2.7,0.8-4,1.3
	c-1.2,0.4-2.4,0.7-3.6,1.1c38.6-0.8,74.2-1,110.8-14.3c32.8-11.9,54.2-25.1,74.9-37.8c16.6-9.6,50-41.1,56.6-47.9
	c3.2-2.8,6-5.2,8.3-7.4c-0.2,0.3-0.4,0.6-0.6,0.9c2.7-3.4,5.2-6.8,7.5-10.3c0.1-0.1,0.1-0.1,0.1-0.2c1-1.6,2-3.2,3-4.8
	c0.3-0.6,0.7-1.1,1-1.6C1157.3,793.5,1091.1,746.3,1099.5,673.7z"/>
<path class="st13" d="M1135.4,409c-3.3,89.4,48.7,79.1,60.3,159.4c0-124.5-38.6-240-104.5-335.2
	C1115.4,271.3,1138.7,319.6,1135.4,409z"/>
<path class="st14" d="M1112.6,532.7c-3.2-39.2-9.5-62.3-11.5-68.8c0-0.1-0.1-0.2-0.1-0.2c-0.1-0.2-0.1-0.4-0.2-0.6
	c-0.1-0.3-0.2-0.5-0.3-0.8c0-0.1-0.1-0.2-0.1-0.2V462c-2.3-7.3-4.1-15.2-4.9-23.9c-4.4-46.9-6.6-127.6-42-163
	c-17.5-17.5-51.7-36.3-84.5-56.8l0,0c0,0,19.6,14.9,24.7,47.7c3.3,21.2,4.7,45.4,27.7,77.2c18,25,22.6,32.4,39.6,57.6
	c37.9,56.1,42.2,91.2,6.1,157c-36.2,65.8-77.4,120.5-37.3,234.4c18.2,51.7-17.2,110.5-52.5,146.6c-10.4,10.7-21.1,17.4-35.3,25.3
	h0.1c0,0,0,0,0.1,0c1.2-0.7,2.4-1.3,3.6-1.9c2.4-1.3,4.7-2.6,7-3.9c1.2-0.7,2.3-1.3,3.4-2s2.3-1.3,3.4-2c2.2-1.3,4.4-2.6,6.5-4
	c1.1-0.7,2.1-1.3,3.1-2s2.1-1.3,3.1-2c0.1-0.1,0.2-0.2,0.3-0.2c2.9-2,5.8-3.9,8.5-5.9c1.6-1.2,3.2-2.3,4.7-3.4
	c7-5.2,13.4-10.5,19.4-15.8c1.8-1.6,3.5-3.2,5.2-4.8c1.7-1.6,3.3-3.2,4.9-4.8c0.8-0.8,1.5-1.6,2.3-2.4c0.3-0.3,0.6-0.6,0.8-0.9
	c0.8-0.8,1.6-1.7,2.4-2.5c1.2-1.3,2.4-2.6,3.5-4c1-1.1,1.9-2.2,2.8-3.2c1.4-1.7,2.8-3.4,4.1-5.1c1-1.2,1.9-2.5,2.9-3.7
	c0.8-1.1,1.6-2.1,2.4-3.2c0.2-0.2,0.3-0.4,0.4-0.6c1.2-1.6,2.3-3.3,3.4-4.9c0.9-1.3,1.8-2.6,2.6-3.9c0.9-1.4,1.8-2.9,2.7-4.3
	c1.1-1.8,2.1-3.6,3.2-5.3c0.5-0.9,1-1.8,1.5-2.6c0.5-0.9,1-1.8,1.5-2.7c0.5-0.9,1-1.8,1.5-2.7c0.8-1.6,1.6-3.1,2.4-4.7
	c0.5-1,1-2.1,1.5-3.1c0.7-1.4,1.3-2.8,1.9-4.1c0.6-1.4,1.2-2.7,1.8-4.1c1.2-2.8,2.4-5.7,3.5-8.4c0.1-0.2,0.2-0.4,0.3-0.7
	c0.4-1.2,0.9-2.3,1.3-3.5c0.4-1,0.8-2.1,1.2-3.1c1.2-3.3,2.3-6.5,3.4-9.8c22.9-68.8-6.4-103.6,5.1-158.4
	C1087.1,604.6,1116.4,579.5,1112.6,532.7z"/>
<linearGradient id="SVGID_1_" gradientUnits="userSpaceOnUse" x1="806.4141" y1="718.3318" x2="1195.714" y2="718.3318" gradientTransform="matrix(1 0 0 -1 0 1177.5635)">
	<stop  offset="0" style="stop-color:#DA5027"/>
	<stop  offset="1" style="stop-color:#DEAD4D"/>
</linearGradient>
<path class="st15" d="M1195.7,568.4c-11.6-80.3-63.6-70-60.3-159.4c3.3-89.4-20-137.7-44.2-175.8c0,0,0-0.1-0.1-0.1
	c0-0.1-0.1-0.1-0.1-0.2c-0.6-0.9-1.3-1.8-1.9-2.7c-0.1-0.2-0.3-0.4-0.5-0.7c-28.2-36.6-82-31.3-153.6-95
	c-19.8-17.6-80-54.8-128.6-64.6c33.7,18.3,66.4,37.5,85.8,79.4c23.2,50.1,126,90.2,161.4,125.6s37.6,116.1,42,163
	c0.8,8.7,2.5,16.6,4.9,23.9v0.1c0,0.1,0.1,0.1,0.1,0.2c0.1,0.3,0.2,0.6,0.3,0.8c0.1,0.2,0.1,0.3,0.2,0.6
	c10.5,31.5,32,52.8,39.9,81.2c10,35.4-17.5,85.3-17.5,122.7c0,49.9,37.4,104.6,4,181.2C1169,753.2,1195.7,680.1,1195.7,568.4z"/>
<g>
	<path class="st16" d="M484.7,1141.6c-0.8-0.2-1.5-0.5-2.3-0.7c-1.8-0.5-3.7-1.1-6.2-2.1c-0.7-0.1-2.3-1-3-1.2
		c-32.4-13.2-62.9-48.2-84.3-78.5c-4.3-5.5-7.3-9.3-8.4-10.5c-5.8-5.8-29.6-28.8-51-35.6c-46.7-14.8-65-11.4-103-20.6
		c-10.5-2.6-25.5-7.9-41.5-14.2C265.9,1058.5,371.1,1117.1,484.7,1141.6L484.7,1141.6z"/>
</g>
<path class="st0" d="M1088.8,902.1c-6.6,6.8-40,38.4-56.6,47.9c-20.8,12.7-42.2,25.9-74.9,37.8c-63.9,23.2-125.1,6.7-203.9,22.5
	c-33.9,6.8-80.7,22.6-133.1,36.1c-52.4,13.5-101.2,9-128.7-4.4c-28.8-14-37.1-39.2-68.8-76.4c-31.8-37.2-77.8-52.9-124.7-62.5
	c-18.3-5.1-32.8-11.5-52.7-16.6c-44.7-14.3-100.1-34.3-139-82.1c-27.8-34.1-48.9-74-63.2-105.4c-14.1-31.2-21.4-54-21.5-54.3
	c9.6,74.7,33.3,145,68.3,208.2c2.5,3.6,25.9,37.5,54.4,65.3c10.4,9,22.2,18.6,34.6,27.5c43.5,25.3,68.9,28.7,114.1,38.5
	c36.9,8.1,60.7,20.1,81.2,52.8c20.5,32.7,58.3,83.9,99.1,100.6c0.7,0.2,2.3,1,3,1.2c3.5,1.5,5.7,1.9,8.5,2.8l0,0l0,0
	c5,1.6,11.4,3.1,18.3,4.4c72.2,8.1,135.1-31.8,175.8-54.9c40.9-23.2,77.4-30.1,133.8-28.7c58.5,1.4,97.8,9.8,139.1-16.2
	c6.7-4.9,13.4-9.9,19.9-15c48.7-38.5,91.1-84.5,125.5-136.2C1094.8,896.9,1092,899.3,1088.8,902.1z"/>
<g>
	<path class="st7" d="M929.8,686.5C903.2,825.2,777.7,945,631.2,945c-2.5,0-5.1,0-7.6-0.1c-1.7,0-3.4-0.1-5.1-0.2c-1,0-2-0.1-3-0.1
		c-0.5,0-0.9,0-1.3-0.1c-1.9-0.1-3.7-0.2-5.5-0.3c-2.3-0.2-4.6-0.4-7-0.6c-2-0.2-3.9-0.4-5.9-0.6c-1.1-0.1-2.2-0.3-3.2-0.4
		c-3.7-0.5-7.3-1-10.9-1.6c-1.5-0.2-3-0.5-4.5-0.8c-1.7-0.3-3.3-0.6-4.9-1c-0.8-0.1-1.7-0.3-2.5-0.5c-2.1-0.4-4.1-0.8-6.1-1.3
		c-2.1-0.4-4.1-0.9-6.1-1.4c-2.2-0.6-4.4-1.1-6.5-1.8c-1.8-0.5-3.6-1-5.4-1.6h-0.1c-1.1-0.3-2.2-0.7-3.2-1c-0.1,0-0.2-0.1-0.4-0.1
		c-1.5-0.5-3.1-1-4.6-1.5c-0.4-0.1-0.9-0.3-1.3-0.4c-2-0.7-4-1.3-5.9-2.1c-2.1-0.7-4.2-1.5-6.3-2.3l0,0c-2.2-0.8-4.4-1.7-6.6-2.6
		c-0.2-0.1-0.3-0.1-0.4-0.2c-1.8-0.7-3.6-1.5-5.4-2.3c-2.1-0.9-4.3-1.9-6.4-2.9c-2-0.9-4-1.9-6-2.8c-2-1-4-2-5.9-3
		c-1.5-0.8-3.1-1.6-4.6-2.5c-1.5-0.8-3-1.6-4.4-2.5c-15.5-8.7-30.2-18.7-43.9-30c-22.9-18.8-43-41-59.5-65.8
		c-2.7-4.1-5.3-8.2-7.9-12.4c-1.2-2-2.4-4.1-3.6-6.1c-6.8-10.6-12.7-21.7-18-33c-6.1-13.2-11.2-26.7-15.5-40.4l-3-10.3l-0.7-2.6
		l-0.6-2.6l-1.3-5.2c-1.8-6.9-3.1-14-4.5-20.9c-0.7-3.5-1.1-7-1.7-10.5c-0.5-3.5-1.2-7-1.5-10.5c-0.8-7.1-1.8-14.1-2.1-21.2
		l-0.7-10.6c-0.2-3.5-0.2-7.1-0.3-10.6l-0.3-10.6c0.1-3.5,0-7.1,0.2-10.6c0.4-14.1,1.7-28.2,4.1-42.2c4.8-27.8,13.2-55,26.6-79.8
		c6.6-12.4,14.8-24.1,24.1-34.7c9.4-10.6,19.8-20.1,30.3-29.4c21-18.5,42.4-36.1,63.9-53.6l8.1-6.5l2-1.6l1.9-1.6
		c1.3-1.1,2.5-2.1,3.8-3.1c4.9-4.3,9.6-8.8,13.9-13.5c3.2-3.4,6.2-7,9-10.7c-15.4,12.3-38,29.2-87.7,61
		c-81.1,51.6-174.1,116.4-178.7,252.7c-0.9,26.2,1.4,49.7,6.1,70.8v0.1c12,53.8,39.8,92.4,71.3,121.5
		c37.5,34.7,80.4,55.9,108.2,73.2c99.9,62,140.2,69.2,229.1,69.1c29.3,0,64-5.2,95-13.5c10.1-3.4,18.9-6,27-8.4
		c0.1,0,0.2-0.1,0.3-0.1l0,0c23.6-7,40.3-11.6,62.3-24.8c48.7-29,70.8-80.5,84.2-126.2C934.8,754.4,929.8,686.5,929.8,686.5z"/>
</g>
<g>
	<path class="st16" d="M246.6,700.4L246.6,700.4c-4.7-21.2-7-44.7-6.1-70.9c4.6-136.3,97.6-201.1,178.3-252.8
		c44.7-28.6,67.5-45.2,82.9-57.2c-20.2,9.2-41.3,18.6-62.4,28.3c-79.6,36.8-147.6,64.4-191,138c-0.5,0.8-0.9,1.7-1.3,2.5
		c0,0,0,0.1-0.1,0.1c-19.2,37-30.1,79-30.1,123.6c0,84.9,39.5,160.7,101.1,209.8C286.4,792.8,258.6,754.2,246.6,700.4z"/>
</g>
<path class="st7" d="M186.7,814.9c-0.5-0.8-0.9-1.5-1.4-2.3c-37.7-63.4-59.4-137.4-59.4-216.6c0-47.6,7.9-93.4,22.3-136.2
	c38-112.2,121.6-203.2,228.8-251.2c-170.6,54.9-294,215-294,403.8c0,15,0.8,29.9,2.3,44.5c1.4,13.7,3.5,27.2,6.2,40.4
	c18.5,80.1,72.2,146.8,144,183.1c27,13.6,56.5,23.2,87.6,27.2c0.9,0.1,1.7,0.2,2.6,0.3c4.6,0.5,9.2,1,13.9,1.3
	C281.4,905.5,219,867.3,186.7,814.9z"/>
</svg>
